%
M48
M72
T01C0.0120
T02C0.0400
%
T01
X1134Y1134
X1134Y2119
X1134Y3103
X2119Y3103
X3103Y3103
X4087Y3103
X5071Y3103
X5071Y2119
X4087Y2119
X3103Y2119
X2119Y2119
X2119Y1134
X3103Y1134
X4087Y1134
X5071Y1134
X6056Y1134
X7040Y1134
X8024Y1134
X9008Y1134
X9008Y2119
X8024Y2119
X7040Y2119
X7040Y3103
X8024Y3103
X9008Y3103
X9993Y3103
X10977Y3103
X11961Y3103
X12945Y3103
X12945Y2119
X11961Y2119
X10977Y2119
X9993Y2119
X9993Y1134
X10977Y1134
X11961Y1134
X12945Y1134
X12945Y4103
X12945Y4903
X11961Y4903
X11961Y4103
X10977Y4103
X10977Y4903
X9993Y4903
X9993Y4103
X9008Y4103
X9008Y4903
X8024Y4903
X8024Y4103
X7040Y4103
X7040Y4903
X6056Y4903
X6056Y4103
X5071Y4103
X5071Y4903
X4087Y4903
X4087Y4103
X3103Y4103
X3103Y4903
X2660Y5610
X2670Y6050
X2119Y4903
X2119Y4103
X1134Y4103
X1134Y4903
X4087Y7040
X4087Y8024
X5071Y7040
X6056Y7040
X7006Y7032
X7990Y7032
X8974Y7032
X9958Y7032
X8024Y8024
X7040Y8024
X6071Y8024
X5021Y9258
X4987Y10130
X4003Y10130
X3987Y10977
X3019Y10130
X3003Y10977
X1950Y9990
X3053Y9258
X3987Y9258
X1950Y11970
X2119Y12980
X2119Y13930
X3103Y13930
X3103Y12980
X4087Y12980
X4087Y13930
X4087Y14898
X5071Y14914
X5071Y15898
X4087Y15898
X3103Y15898
X3103Y16882
X4087Y16882
X5071Y16882
X6056Y16882
X7040Y16882
X8024Y16882
X9008Y16882
X9993Y16882
X10977Y16882
X11961Y16882
X12945Y16882
X13930Y16882
X14914Y16882
X14914Y15898
X15898Y15898
X15898Y14914
X14914Y14914
X14914Y13930
X15898Y13930
X16882Y13930
X16882Y14914
X16882Y15898
X16882Y16882
X15898Y16882
X17867Y16882
X18851Y16882
X18851Y15898
X17867Y15898
X17867Y14914
X18851Y14914
X18851Y13930
X17867Y13930
X17867Y12945
X18851Y12945
X18851Y11961
X17867Y11961
X17867Y10977
X18851Y10977
X18851Y9993
X17867Y9993
X16882Y9993
X16882Y10977
X16882Y11961
X15898Y11961
X14914Y11961
X14914Y12945
X15898Y12945
X16882Y12945
X13930Y15898
X12945Y15882
X11961Y15882
X10977Y15882
X10977Y14932
X9993Y14932
X9993Y15882
X9008Y15882
X8024Y15882
X7040Y15882
X6056Y15898
X6056Y14898
X5071Y13914
X7124Y12945
X8024Y12945
X9008Y11961
X9008Y10977
X9008Y9993
X9993Y9993
X9993Y10977
X10977Y10977
X10977Y9993
X11961Y9993
X11961Y10977
X11961Y11961
X10977Y11961
X9993Y11961
X9993Y9008
X10977Y9008
X11961Y9008
X12945Y8024
X12933Y7044
X12049Y7044
X12049Y6060
X13033Y6060
X14018Y6060
X13918Y7044
X14764Y7008
X14764Y8008
X13930Y8024
X13930Y9008
X14764Y9008
X16882Y9008
X16882Y8024
X16882Y7040
X16882Y6056
X15898Y6056
X15898Y5071
X14914Y5071
X16882Y5071
X17867Y5071
X18851Y5071
X18851Y6056
X17867Y6056
X17867Y7040
X18851Y7040
X18851Y8024
X17867Y8024
X17867Y9008
X18851Y9008
X12945Y12945
X12945Y13930
X12945Y17867
X11961Y17867
X10977Y17867
X9993Y17867
X9008Y17867
X8024Y17867
X7040Y17867
X8024Y14932
X9008Y14932
X9008Y9008
X6056Y3103
X6056Y2119
X1134Y14914
X1134Y15898
X1134Y16882
X2119Y16882
X2119Y15898
T02
X1050Y13493
X1050Y12493
X1050Y11493
X1050Y10493
X1050Y9493
X1050Y8493
X1050Y7493
X1050Y6493
M30
