G75*
%MOIN*%
%OFA0B0*%
%FSLAX24Y24*%
%IPPOS*%
%LPD*%
%AMOC8*
5,1,8,0,0,1.08239X$1,22.5*
%
%ADD10OC8,0.0759*%
%ADD11C,0.0297*%
%ADD12OC8,0.0297*%
D10*
X001050Y006493D03*
X001050Y007493D03*
X001050Y008493D03*
X001050Y009493D03*
X001050Y010493D03*
X001050Y011493D03*
X001050Y012493D03*
X001050Y013493D03*
D11*
X002670Y006050D03*
X002660Y005610D03*
D12*
X001134Y001134D03*
X001134Y002119D03*
X001134Y003103D03*
X002119Y003103D03*
X003103Y003103D03*
X004087Y003103D03*
X005071Y003103D03*
X005071Y002119D03*
X004087Y002119D03*
X003103Y002119D03*
X002119Y002119D03*
X002119Y001134D03*
X003103Y001134D03*
X004087Y001134D03*
X005071Y001134D03*
X006056Y001134D03*
X007040Y001134D03*
X008024Y001134D03*
X009008Y001134D03*
X009008Y002119D03*
X008024Y002119D03*
X007040Y002119D03*
X007040Y003103D03*
X008024Y003103D03*
X009008Y003103D03*
X009993Y003103D03*
X010977Y003103D03*
X011961Y003103D03*
X012945Y003103D03*
X012945Y002119D03*
X011961Y002119D03*
X010977Y002119D03*
X009993Y002119D03*
X009993Y001134D03*
X010977Y001134D03*
X011961Y001134D03*
X012945Y001134D03*
X012945Y004103D03*
X012945Y004903D03*
X011961Y004903D03*
X011961Y004103D03*
X010977Y004103D03*
X010977Y004903D03*
X009993Y004903D03*
X009993Y004103D03*
X009008Y004103D03*
X009008Y004903D03*
X008024Y004903D03*
X008024Y004103D03*
X007040Y004103D03*
X007040Y004903D03*
X006056Y004903D03*
X006056Y004103D03*
X005071Y004103D03*
X005071Y004903D03*
X004087Y004903D03*
X004087Y004103D03*
X003103Y004103D03*
X003103Y004903D03*
X002119Y004903D03*
X002119Y004103D03*
X001134Y004103D03*
X001134Y004903D03*
X004087Y007040D03*
X004087Y008024D03*
X005071Y007040D03*
X006056Y007040D03*
X007006Y007032D03*
X007990Y007032D03*
X008974Y007032D03*
X009958Y007032D03*
X008024Y008024D03*
X007040Y008024D03*
X006071Y008024D03*
X005021Y009258D03*
X004987Y010130D03*
X004003Y010130D03*
X003987Y010977D03*
X003019Y010130D03*
X003003Y010977D03*
X001950Y009990D03*
X003053Y009258D03*
X003987Y009258D03*
X001950Y011970D03*
X002119Y012980D03*
X002119Y013930D03*
X003103Y013930D03*
X003103Y012980D03*
X004087Y012980D03*
X004087Y013930D03*
X004087Y014898D03*
X005071Y014914D03*
X005071Y015898D03*
X004087Y015898D03*
X003103Y015898D03*
X003103Y016882D03*
X004087Y016882D03*
X005071Y016882D03*
X006056Y016882D03*
X007040Y016882D03*
X008024Y016882D03*
X009008Y016882D03*
X009993Y016882D03*
X010977Y016882D03*
X011961Y016882D03*
X012945Y016882D03*
X013930Y016882D03*
X014914Y016882D03*
X014914Y015898D03*
X015898Y015898D03*
X015898Y014914D03*
X014914Y014914D03*
X014914Y013930D03*
X015898Y013930D03*
X016882Y013930D03*
X016882Y014914D03*
X016882Y015898D03*
X016882Y016882D03*
X015898Y016882D03*
X017867Y016882D03*
X018851Y016882D03*
X018851Y015898D03*
X017867Y015898D03*
X017867Y014914D03*
X018851Y014914D03*
X018851Y013930D03*
X017867Y013930D03*
X017867Y012945D03*
X018851Y012945D03*
X018851Y011961D03*
X017867Y011961D03*
X017867Y010977D03*
X018851Y010977D03*
X018851Y009993D03*
X017867Y009993D03*
X016882Y009993D03*
X016882Y010977D03*
X016882Y011961D03*
X015898Y011961D03*
X014914Y011961D03*
X014914Y012945D03*
X015898Y012945D03*
X016882Y012945D03*
X013930Y015898D03*
X012945Y015882D03*
X011961Y015882D03*
X010977Y015882D03*
X010977Y014932D03*
X009993Y014932D03*
X009993Y015882D03*
X009008Y015882D03*
X008024Y015882D03*
X007040Y015882D03*
X006056Y015898D03*
X006056Y014898D03*
X005071Y013914D03*
X007124Y012945D03*
X008024Y012945D03*
X009008Y011961D03*
X009008Y010977D03*
X009008Y009993D03*
X009993Y009993D03*
X009993Y010977D03*
X010977Y010977D03*
X010977Y009993D03*
X011961Y009993D03*
X011961Y010977D03*
X011961Y011961D03*
X010977Y011961D03*
X009993Y011961D03*
X009993Y009008D03*
X010977Y009008D03*
X011961Y009008D03*
X012945Y008024D03*
X012933Y007044D03*
X012049Y007044D03*
X012049Y006060D03*
X013033Y006060D03*
X014018Y006060D03*
X013918Y007044D03*
X014764Y007008D03*
X014764Y008008D03*
X013930Y008024D03*
X013930Y009008D03*
X014764Y009008D03*
X016882Y009008D03*
X016882Y008024D03*
X016882Y007040D03*
X016882Y006056D03*
X015898Y006056D03*
X015898Y005071D03*
X014914Y005071D03*
X016882Y005071D03*
X017867Y005071D03*
X018851Y005071D03*
X018851Y006056D03*
X017867Y006056D03*
X017867Y007040D03*
X018851Y007040D03*
X018851Y008024D03*
X017867Y008024D03*
X017867Y009008D03*
X018851Y009008D03*
X012945Y012945D03*
X012945Y013930D03*
X012945Y017867D03*
X011961Y017867D03*
X010977Y017867D03*
X009993Y017867D03*
X009008Y017867D03*
X008024Y017867D03*
X007040Y017867D03*
X008024Y014932D03*
X009008Y014932D03*
X009008Y009008D03*
X006056Y003103D03*
X006056Y002119D03*
X001134Y014914D03*
X001134Y015898D03*
X001134Y016882D03*
X002119Y016882D03*
X002119Y015898D03*
M02*
