G75*
%MOIN*%
%OFA0B0*%
%FSLAX24Y24*%
%IPPOS*%
%LPD*%
%AMOC8*
5,1,8,0,0,1.08239X$1,22.5*
%
%ADD10C,0.0030*%
%ADD11OC8,0.0700*%
%ADD12C,0.0238*%
%ADD13C,0.0100*%
%ADD14OC8,0.0238*%
D10*
X013862Y017882D02*
X014047Y017882D01*
X014109Y017943D01*
X014047Y018005D01*
X013862Y018005D01*
X013862Y018067D02*
X013862Y017882D01*
X013862Y018067D02*
X013924Y018128D01*
X014047Y018128D01*
X014293Y018128D02*
X014293Y017882D01*
X014355Y017882D02*
X014231Y017882D01*
X014293Y018128D02*
X014355Y018128D01*
X014476Y018128D02*
X014538Y018128D01*
X014662Y018005D01*
X014662Y017882D02*
X014662Y018128D01*
X014784Y018128D02*
X014907Y018128D01*
X014845Y018190D02*
X014845Y017943D01*
X014784Y017882D01*
X015029Y017943D02*
X015090Y018005D01*
X015214Y018005D01*
X015275Y018067D01*
X015214Y018128D01*
X015029Y018128D01*
X015029Y017943D02*
X015090Y017882D01*
X015275Y017882D01*
X015397Y017882D02*
X015397Y018128D01*
X015397Y017882D02*
X015582Y017882D01*
X015644Y017943D01*
X015644Y018128D01*
X015765Y018128D02*
X015765Y017882D01*
X015765Y018067D02*
X016012Y018067D01*
X016012Y018128D02*
X015889Y018252D01*
X015765Y018128D01*
X016012Y018128D02*
X016012Y017882D01*
X016502Y017882D02*
X016502Y018067D01*
X016564Y018128D01*
X016749Y018128D01*
X016749Y017882D01*
X016871Y017882D02*
X016994Y017882D01*
X016932Y017882D02*
X016932Y018128D01*
X016994Y018128D01*
X016932Y018252D02*
X016932Y018314D01*
X016932Y018482D02*
X017056Y018482D01*
X016994Y018482D02*
X016994Y018728D01*
X017056Y018728D01*
X017177Y018728D02*
X017239Y018728D01*
X017363Y018605D01*
X017363Y018482D02*
X017363Y018728D01*
X017484Y018728D02*
X017484Y018420D01*
X017546Y018358D01*
X017607Y018358D01*
X017669Y018482D02*
X017484Y018482D01*
X017669Y018482D02*
X017731Y018543D01*
X017731Y018728D01*
X017852Y018667D02*
X017852Y018543D01*
X017914Y018482D01*
X018099Y018482D01*
X018099Y018358D02*
X018099Y018728D01*
X017914Y018728D01*
X017852Y018667D01*
X018221Y018667D02*
X018221Y018543D01*
X018282Y018482D01*
X018406Y018482D01*
X018467Y018543D01*
X018467Y018667D01*
X018406Y018728D01*
X018282Y018728D01*
X018221Y018667D01*
X018589Y018790D02*
X018651Y018852D01*
X018774Y018852D01*
X018836Y018790D01*
X018836Y018543D01*
X018774Y018482D01*
X018651Y018482D01*
X018589Y018543D01*
X018589Y018252D02*
X018589Y017882D01*
X018467Y017943D02*
X018406Y018005D01*
X018221Y018005D01*
X018221Y018067D02*
X018221Y017882D01*
X018406Y017882D01*
X018467Y017943D01*
X018406Y018128D02*
X018282Y018128D01*
X018221Y018067D01*
X018099Y018067D02*
X018037Y018128D01*
X017852Y018128D01*
X017852Y018252D02*
X017852Y017882D01*
X018037Y017882D01*
X018099Y017943D01*
X018099Y018067D01*
X017731Y018067D02*
X017731Y017943D01*
X017669Y017882D01*
X017546Y017882D01*
X017484Y018005D02*
X017731Y018005D01*
X017731Y018067D02*
X017669Y018128D01*
X017546Y018128D01*
X017484Y018067D01*
X017484Y018005D01*
X016810Y018543D02*
X016748Y018482D01*
X016563Y018482D01*
X016563Y018420D02*
X016563Y018728D01*
X016748Y018728D01*
X016810Y018667D01*
X016810Y018543D01*
X016687Y018358D02*
X016625Y018358D01*
X016563Y018420D01*
X016442Y018482D02*
X016442Y018852D01*
X016380Y018728D02*
X016257Y018728D01*
X016195Y018667D01*
X016195Y018482D01*
X016012Y018543D02*
X015950Y018482D01*
X016012Y018543D02*
X016012Y018790D01*
X016073Y018728D02*
X015950Y018728D01*
X016380Y018728D02*
X016442Y018667D01*
X016502Y019082D02*
X016749Y019082D01*
X016749Y019452D01*
X016870Y019390D02*
X016870Y019267D01*
X016932Y019205D01*
X017117Y019205D01*
X017117Y019082D02*
X017117Y019452D01*
X016932Y019452D01*
X016870Y019390D01*
X017238Y019267D02*
X017238Y019082D01*
X017238Y019267D02*
X017300Y019328D01*
X017424Y019328D01*
X017485Y019267D01*
X017607Y019328D02*
X017792Y019328D01*
X017854Y019267D01*
X017854Y019143D01*
X017792Y019082D01*
X017607Y019082D01*
X017485Y019082D02*
X017485Y019452D01*
X017976Y019328D02*
X018099Y019328D01*
X018037Y019390D02*
X018037Y019143D01*
X017976Y019082D01*
X018221Y019082D02*
X018221Y019267D01*
X018282Y019328D01*
X018406Y019328D01*
X018406Y019205D02*
X018221Y019205D01*
X018221Y019082D02*
X018406Y019082D01*
X018467Y019143D01*
X018406Y019205D01*
X018589Y019082D02*
X018589Y019452D01*
X018836Y019452D02*
X018836Y019082D01*
X018712Y019205D01*
X018589Y019082D01*
X018589Y018252D02*
X018712Y018128D01*
X018836Y018252D01*
X018836Y017882D01*
X016994Y018852D02*
X016994Y018914D01*
X016380Y019082D02*
X016380Y019452D01*
X016195Y019452D01*
X016133Y019390D01*
X016133Y019328D01*
X016195Y019267D01*
X016380Y019267D01*
X016195Y019267D02*
X016133Y019205D01*
X016133Y019143D01*
X016195Y019082D01*
X016380Y019082D01*
X015644Y019143D02*
X015582Y019082D01*
X015459Y019082D01*
X015397Y019143D01*
X015397Y019267D01*
X015520Y019267D01*
X015397Y019390D02*
X015459Y019452D01*
X015582Y019452D01*
X015644Y019390D01*
X015644Y019143D01*
X015460Y018852D02*
X015460Y018482D01*
X015274Y018482D01*
X015213Y018543D01*
X015213Y018667D01*
X015274Y018728D01*
X015460Y018728D01*
X015091Y018728D02*
X015091Y018543D01*
X015030Y018482D01*
X014844Y018482D01*
X014844Y018420D02*
X014906Y018358D01*
X014968Y018358D01*
X014844Y018420D02*
X014844Y018728D01*
X014845Y019082D02*
X014722Y019082D01*
X014660Y019143D01*
X014660Y019205D01*
X014722Y019267D01*
X014845Y019267D01*
X014907Y019328D01*
X014907Y019390D01*
X014845Y019452D01*
X014722Y019452D01*
X014660Y019390D01*
X015029Y019390D02*
X015029Y019267D01*
X015090Y019205D01*
X015275Y019205D01*
X015275Y019082D02*
X015275Y019452D01*
X015090Y019452D01*
X015029Y019390D01*
X014907Y019143D02*
X014845Y019082D01*
X014539Y019020D02*
X014292Y019020D01*
X014170Y019082D02*
X013985Y019082D01*
X013924Y019143D01*
X013924Y019267D01*
X013985Y019328D01*
X014170Y019328D01*
X014170Y019452D02*
X014170Y019082D01*
X014108Y018852D02*
X014108Y018482D01*
X013986Y018543D02*
X013925Y018482D01*
X013801Y018482D01*
X013739Y018543D01*
X013739Y018605D01*
X013801Y018667D01*
X013925Y018667D01*
X013986Y018728D01*
X013986Y018790D01*
X013925Y018852D01*
X013801Y018852D01*
X013739Y018790D01*
X013618Y018852D02*
X013433Y018852D01*
X013371Y018790D01*
X013371Y018543D01*
X013433Y018482D01*
X013618Y018482D01*
X013618Y018852D01*
X013617Y019082D02*
X013555Y019143D01*
X013555Y019267D01*
X013617Y019328D01*
X013740Y019328D01*
X013802Y019267D01*
X013802Y019143D01*
X013740Y019082D01*
X013617Y019082D01*
X013434Y019143D02*
X013372Y019205D01*
X013187Y019205D01*
X013187Y019267D02*
X013187Y019082D01*
X013372Y019082D01*
X013434Y019143D01*
X013372Y019328D02*
X013249Y019328D01*
X013187Y019267D01*
X013066Y019328D02*
X013066Y019082D01*
X013066Y019205D02*
X012942Y019328D01*
X012880Y019328D01*
X012759Y019267D02*
X012759Y019143D01*
X012697Y019082D01*
X012512Y019082D01*
X012512Y019452D01*
X012512Y019328D02*
X012697Y019328D01*
X012759Y019267D01*
X012881Y018852D02*
X012634Y018852D01*
X012513Y018790D02*
X012513Y018728D01*
X012451Y018667D01*
X012328Y018667D01*
X012266Y018605D01*
X012266Y018543D01*
X012328Y018482D01*
X012451Y018482D01*
X012513Y018543D01*
X012634Y018482D02*
X012881Y018482D01*
X012881Y018852D01*
X013003Y018852D02*
X013250Y018482D01*
X012881Y018667D02*
X012758Y018667D01*
X012513Y018790D02*
X012451Y018852D01*
X012328Y018852D01*
X012266Y018790D01*
X012145Y018852D02*
X011960Y018852D01*
X011898Y018790D01*
X011898Y018543D01*
X011960Y018482D01*
X012145Y018482D01*
X012145Y018852D01*
X011899Y019082D02*
X011775Y019205D01*
X011775Y019452D01*
X011654Y019328D02*
X011530Y019452D01*
X011530Y019082D01*
X011407Y019082D02*
X011654Y019082D01*
X011899Y019082D02*
X012022Y019205D01*
X012022Y019452D01*
X011285Y019143D02*
X011224Y019143D01*
X011224Y019082D01*
X011285Y019082D01*
X011285Y019143D01*
X011101Y019143D02*
X010854Y019390D01*
X010854Y019143D01*
X010916Y019082D01*
X011039Y019082D01*
X011101Y019143D01*
X011101Y019390D01*
X011039Y019452D01*
X010916Y019452D01*
X010854Y019390D01*
X010855Y018852D02*
X010793Y018790D01*
X011040Y018543D01*
X010978Y018482D01*
X010855Y018482D01*
X010793Y018543D01*
X010793Y018790D01*
X010855Y018852D02*
X010978Y018852D01*
X011040Y018790D01*
X011040Y018543D01*
X011161Y018482D02*
X011408Y018482D01*
X011161Y018728D01*
X011161Y018790D01*
X011223Y018852D01*
X011346Y018852D01*
X011408Y018790D01*
X010671Y018728D02*
X010548Y018852D01*
X010548Y018482D01*
X010671Y018482D02*
X010425Y018482D01*
X010303Y018543D02*
X010303Y018605D01*
X010241Y018667D01*
X010118Y018667D01*
X010056Y018605D01*
X010056Y018543D01*
X010118Y018482D01*
X010241Y018482D01*
X010303Y018543D01*
X010241Y018667D02*
X010303Y018728D01*
X010303Y018790D01*
X010241Y018852D01*
X010118Y018852D01*
X010056Y018790D01*
X010056Y018728D01*
X010118Y018667D01*
X014108Y018667D02*
X014355Y018667D01*
X014355Y018482D02*
X014355Y018852D01*
X014293Y018314D02*
X014293Y018252D01*
D11*
X001050Y013493D03*
X001050Y012493D03*
X001050Y011493D03*
X001050Y010493D03*
X001050Y009493D03*
X001050Y008493D03*
X001050Y007493D03*
X001050Y006493D03*
D12*
X002670Y006050D03*
X002660Y005610D03*
D13*
X000368Y000368D02*
X000368Y019617D01*
X019692Y019617D01*
X019692Y000368D01*
X000368Y000368D01*
X000368Y000446D02*
X019692Y000446D01*
X019692Y000544D02*
X000368Y000544D01*
X000368Y000643D02*
X019692Y000643D01*
X019692Y000741D02*
X000368Y000741D01*
X000368Y000840D02*
X019692Y000840D01*
X019692Y000938D02*
X000368Y000938D01*
X000368Y001037D02*
X019692Y001037D01*
X019692Y001135D02*
X000368Y001135D01*
X000368Y001234D02*
X019692Y001234D01*
X019692Y001332D02*
X000368Y001332D01*
X000368Y001431D02*
X019692Y001431D01*
X019692Y001529D02*
X000368Y001529D01*
X000368Y001628D02*
X019692Y001628D01*
X019692Y001726D02*
X000368Y001726D01*
X000368Y001825D02*
X019692Y001825D01*
X019692Y001923D02*
X000368Y001923D01*
X000368Y002022D02*
X019692Y002022D01*
X019692Y002120D02*
X000368Y002120D01*
X000368Y002219D02*
X019692Y002219D01*
X019692Y002317D02*
X000368Y002317D01*
X000368Y002416D02*
X019692Y002416D01*
X019692Y002514D02*
X000368Y002514D01*
X000368Y002613D02*
X019692Y002613D01*
X019692Y002711D02*
X000368Y002711D01*
X000368Y002810D02*
X019692Y002810D01*
X019692Y002908D02*
X000368Y002908D01*
X000368Y003007D02*
X019692Y003007D01*
X019692Y003105D02*
X000368Y003105D01*
X000368Y003204D02*
X019692Y003204D01*
X019692Y003302D02*
X000368Y003302D01*
X000368Y003401D02*
X019692Y003401D01*
X019692Y003499D02*
X000368Y003499D01*
X000368Y003598D02*
X019692Y003598D01*
X019692Y003696D02*
X000368Y003696D01*
X000368Y003795D02*
X019692Y003795D01*
X019692Y003893D02*
X000368Y003893D01*
X000368Y003992D02*
X019692Y003992D01*
X019692Y004090D02*
X000368Y004090D01*
X000368Y004189D02*
X019692Y004189D01*
X019692Y004287D02*
X000368Y004287D01*
X000368Y004386D02*
X019692Y004386D01*
X019692Y004484D02*
X000368Y004484D01*
X000368Y004583D02*
X019692Y004583D01*
X019692Y004681D02*
X000368Y004681D01*
X000368Y004780D02*
X019692Y004780D01*
X019692Y004878D02*
X000368Y004878D01*
X000368Y004977D02*
X019692Y004977D01*
X019692Y005075D02*
X000368Y005075D01*
X000368Y005174D02*
X019692Y005174D01*
X019692Y005272D02*
X000368Y005272D01*
X000368Y005371D02*
X002535Y005371D01*
X002508Y005382D02*
X002606Y005341D01*
X002714Y005341D01*
X002812Y005382D01*
X002888Y005458D01*
X002929Y005556D01*
X002929Y005664D01*
X002888Y005762D01*
X002825Y005825D01*
X002898Y005898D01*
X002939Y005996D01*
X002939Y006104D01*
X002898Y006202D01*
X002870Y006231D01*
X002870Y007870D01*
X002870Y007953D01*
X002812Y008011D01*
X001545Y009280D01*
X001550Y009285D01*
X001550Y009700D01*
X001257Y009993D01*
X001550Y010285D01*
X001550Y010700D01*
X001257Y010993D01*
X001550Y011285D01*
X001550Y011700D01*
X001257Y011993D01*
X001550Y012285D01*
X001550Y012700D01*
X001257Y012993D01*
X001550Y013285D01*
X001550Y013700D01*
X001257Y013993D01*
X000843Y013993D01*
X000550Y013700D01*
X000550Y013285D01*
X000843Y012993D01*
X001257Y012993D01*
X000843Y012993D01*
X000550Y012700D01*
X000550Y012285D01*
X000843Y011993D01*
X001257Y011993D01*
X000843Y011993D01*
X000550Y011700D01*
X000550Y011285D01*
X000843Y010993D01*
X001257Y010993D01*
X000843Y010993D01*
X000550Y010700D01*
X000550Y010285D01*
X000843Y009993D01*
X001257Y009993D01*
X000843Y009993D01*
X000550Y009700D01*
X000550Y009285D01*
X000843Y008993D01*
X001257Y008993D01*
X001262Y008997D01*
X002470Y007787D01*
X002470Y006231D01*
X002442Y006202D01*
X002415Y006138D01*
X002390Y006163D01*
X002390Y007350D01*
X002390Y007433D01*
X002332Y007491D01*
X001545Y008280D01*
X001550Y008285D01*
X001550Y008700D01*
X001257Y008993D01*
X000843Y008993D01*
X000550Y008700D01*
X000550Y008285D01*
X000843Y007993D01*
X001257Y007993D01*
X001262Y007997D01*
X001990Y007267D01*
X001990Y005997D01*
X002107Y005880D01*
X002391Y005596D01*
X002391Y005556D01*
X002432Y005458D01*
X002508Y005382D01*
X002427Y005469D02*
X000368Y005469D01*
X000368Y005568D02*
X002391Y005568D01*
X002321Y005666D02*
X000368Y005666D01*
X000368Y005765D02*
X002223Y005765D01*
X002124Y005863D02*
X000368Y005863D01*
X000368Y005962D02*
X002026Y005962D01*
X001990Y006060D02*
X001325Y006060D01*
X001257Y005993D02*
X001550Y006285D01*
X001550Y006700D01*
X001257Y006993D01*
X000843Y006993D01*
X000550Y006700D01*
X000550Y006285D01*
X000843Y005993D01*
X001257Y005993D01*
X001423Y006159D02*
X001990Y006159D01*
X001990Y006257D02*
X001522Y006257D01*
X001550Y006356D02*
X001990Y006356D01*
X001990Y006454D02*
X001550Y006454D01*
X001550Y006553D02*
X001990Y006553D01*
X001990Y006651D02*
X001550Y006651D01*
X001500Y006750D02*
X001990Y006750D01*
X001990Y006848D02*
X001402Y006848D01*
X001303Y006947D02*
X001990Y006947D01*
X001990Y007045D02*
X001280Y007045D01*
X001248Y007014D02*
X001529Y007294D01*
X001529Y007443D01*
X001100Y007443D01*
X001100Y007543D01*
X001000Y007543D01*
X001000Y007971D01*
X000852Y007971D01*
X000571Y007691D01*
X000571Y007543D01*
X001000Y007543D01*
X001000Y007443D01*
X000571Y007443D01*
X000571Y007294D01*
X000852Y007014D01*
X001000Y007014D01*
X001000Y007443D01*
X001100Y007443D01*
X001100Y007014D01*
X001248Y007014D01*
X001100Y007045D02*
X001000Y007045D01*
X001000Y007144D02*
X001100Y007144D01*
X001100Y007242D02*
X001000Y007242D01*
X001000Y007341D02*
X001100Y007341D01*
X001100Y007439D02*
X001000Y007439D01*
X001000Y007538D02*
X000368Y007538D01*
X000368Y007636D02*
X000571Y007636D01*
X000615Y007735D02*
X000368Y007735D01*
X000368Y007833D02*
X000713Y007833D01*
X000812Y007932D02*
X000368Y007932D01*
X000368Y008030D02*
X000805Y008030D01*
X000707Y008129D02*
X000368Y008129D01*
X000368Y008227D02*
X000608Y008227D01*
X000550Y008326D02*
X000368Y008326D01*
X000368Y008424D02*
X000550Y008424D01*
X000550Y008523D02*
X000368Y008523D01*
X000368Y008621D02*
X000550Y008621D01*
X000570Y008720D02*
X000368Y008720D01*
X000368Y008818D02*
X000668Y008818D01*
X000767Y008917D02*
X000368Y008917D01*
X000368Y009015D02*
X000820Y009015D01*
X000722Y009114D02*
X000368Y009114D01*
X000368Y009212D02*
X000623Y009212D01*
X000550Y009311D02*
X000368Y009311D01*
X000368Y009409D02*
X000550Y009409D01*
X000550Y009508D02*
X000368Y009508D01*
X000368Y009606D02*
X000550Y009606D01*
X000555Y009705D02*
X000368Y009705D01*
X000368Y009803D02*
X000653Y009803D01*
X000752Y009902D02*
X000368Y009902D01*
X000368Y010000D02*
X000835Y010000D01*
X000737Y010099D02*
X000368Y010099D01*
X000368Y010197D02*
X000638Y010197D01*
X000550Y010296D02*
X000368Y010296D01*
X000368Y010394D02*
X000550Y010394D01*
X000550Y010493D02*
X000368Y010493D01*
X000368Y010591D02*
X000550Y010591D01*
X000550Y010690D02*
X000368Y010690D01*
X000368Y010788D02*
X000638Y010788D01*
X000737Y010887D02*
X000368Y010887D01*
X000368Y010985D02*
X000835Y010985D01*
X000752Y011084D02*
X000368Y011084D01*
X000368Y011182D02*
X000653Y011182D01*
X000555Y011281D02*
X000368Y011281D01*
X000368Y011379D02*
X000550Y011379D01*
X000550Y011478D02*
X000368Y011478D01*
X000368Y011576D02*
X000550Y011576D01*
X000550Y011675D02*
X000368Y011675D01*
X000368Y011773D02*
X000623Y011773D01*
X000722Y011872D02*
X000368Y011872D01*
X000368Y011970D02*
X000820Y011970D01*
X000767Y012069D02*
X000368Y012069D01*
X000368Y012167D02*
X000668Y012167D01*
X000570Y012266D02*
X000368Y012266D01*
X000368Y012364D02*
X000550Y012364D01*
X000550Y012463D02*
X000368Y012463D01*
X000368Y012561D02*
X000550Y012561D01*
X000550Y012660D02*
X000368Y012660D01*
X000368Y012758D02*
X000608Y012758D01*
X000707Y012857D02*
X000368Y012857D01*
X000368Y012955D02*
X000805Y012955D01*
X000782Y013054D02*
X000368Y013054D01*
X000368Y013152D02*
X000683Y013152D01*
X000585Y013251D02*
X000368Y013251D01*
X000368Y013349D02*
X000550Y013349D01*
X000550Y013448D02*
X000368Y013448D01*
X000368Y013546D02*
X000550Y013546D01*
X000550Y013645D02*
X000368Y013645D01*
X000368Y013743D02*
X000593Y013743D01*
X000692Y013842D02*
X000368Y013842D01*
X000368Y013940D02*
X000790Y013940D01*
X000368Y014039D02*
X019692Y014039D01*
X019692Y014137D02*
X000368Y014137D01*
X000368Y014236D02*
X019692Y014236D01*
X019692Y014334D02*
X000368Y014334D01*
X000368Y014433D02*
X019692Y014433D01*
X019692Y014531D02*
X000368Y014531D01*
X000368Y014630D02*
X019692Y014630D01*
X019692Y014728D02*
X000368Y014728D01*
X000368Y014827D02*
X019692Y014827D01*
X019692Y014925D02*
X000368Y014925D01*
X000368Y015024D02*
X019692Y015024D01*
X019692Y015122D02*
X000368Y015122D01*
X000368Y015221D02*
X019692Y015221D01*
X019692Y015319D02*
X000368Y015319D01*
X000368Y015418D02*
X019692Y015418D01*
X019692Y015516D02*
X000368Y015516D01*
X000368Y015615D02*
X019692Y015615D01*
X019692Y015713D02*
X000368Y015713D01*
X000368Y015812D02*
X019692Y015812D01*
X019692Y015910D02*
X000368Y015910D01*
X000368Y016009D02*
X019692Y016009D01*
X019692Y016107D02*
X000368Y016107D01*
X000368Y016206D02*
X019692Y016206D01*
X019692Y016304D02*
X000368Y016304D01*
X000368Y016403D02*
X019692Y016403D01*
X019692Y016501D02*
X000368Y016501D01*
X000368Y016600D02*
X019692Y016600D01*
X019692Y016698D02*
X000368Y016698D01*
X000368Y016797D02*
X019692Y016797D01*
X019692Y016895D02*
X000368Y016895D01*
X000368Y016994D02*
X019692Y016994D01*
X019692Y017092D02*
X000368Y017092D01*
X000368Y017191D02*
X019692Y017191D01*
X019692Y017289D02*
X000368Y017289D01*
X000368Y017388D02*
X019692Y017388D01*
X019692Y017486D02*
X000368Y017486D01*
X000368Y017585D02*
X019692Y017585D01*
X019692Y017683D02*
X000368Y017683D01*
X000368Y017782D02*
X013729Y017782D01*
X013697Y017813D02*
X013794Y017717D01*
X014116Y017717D01*
X014139Y017740D01*
X014163Y017717D01*
X014423Y017717D01*
X014508Y017802D01*
X014593Y017717D01*
X014730Y017717D01*
X014852Y017717D01*
X014914Y017778D01*
X014937Y017801D01*
X014960Y017778D01*
X014960Y017778D01*
X015022Y017717D01*
X015022Y017717D01*
X015022Y017717D01*
X015091Y017717D01*
X015650Y017717D01*
X015674Y017740D01*
X015697Y017717D01*
X015834Y017717D01*
X015889Y017772D01*
X015944Y017717D01*
X016080Y017717D01*
X016177Y017813D01*
X016177Y018197D01*
X016054Y018320D01*
X016038Y018336D01*
X016072Y018371D01*
X016127Y018317D01*
X016263Y018317D01*
X016318Y018372D01*
X016373Y018317D01*
X016433Y018317D01*
X016476Y018274D01*
X016399Y018197D01*
X016337Y018135D01*
X016337Y017813D01*
X016433Y017717D01*
X016570Y017717D01*
X016625Y017772D01*
X016680Y017717D01*
X017063Y017717D01*
X017159Y017813D01*
X017159Y017950D01*
X017104Y018005D01*
X017159Y018060D01*
X017159Y018197D01*
X017097Y018258D01*
X017097Y018317D01*
X017124Y018317D01*
X017209Y018402D01*
X017294Y018317D01*
X017354Y018317D01*
X017381Y018290D01*
X017427Y018243D01*
X017416Y018232D01*
X017319Y018135D01*
X017319Y017937D01*
X017381Y017875D01*
X017381Y017813D01*
X017477Y017717D01*
X017737Y017717D01*
X017761Y017740D01*
X017784Y017717D01*
X018106Y017717D01*
X018129Y017740D01*
X018152Y017717D01*
X018474Y017717D01*
X018497Y017740D01*
X018521Y017717D01*
X018657Y017717D01*
X018712Y017772D01*
X018767Y017717D01*
X018904Y017717D01*
X019001Y017813D01*
X019001Y018320D01*
X018923Y018398D01*
X018939Y018413D01*
X019001Y018475D01*
X019001Y018791D01*
X019001Y018858D01*
X019001Y018858D01*
X019001Y018858D01*
X018939Y018920D01*
X018939Y018920D01*
X018923Y018936D01*
X019001Y019013D01*
X019001Y019520D01*
X018904Y019617D01*
X018767Y019617D01*
X018712Y019562D01*
X018657Y019617D01*
X018521Y019617D01*
X018424Y019520D01*
X018424Y019493D01*
X018214Y019493D01*
X018191Y019470D01*
X018168Y019493D01*
X018106Y019555D01*
X017969Y019555D01*
X017907Y019493D01*
X017884Y019470D01*
X017861Y019492D01*
X017860Y019493D01*
X017793Y019493D01*
X017724Y019493D01*
X017650Y019493D01*
X017650Y019520D01*
X017554Y019617D01*
X017417Y019617D01*
X017320Y019520D01*
X017320Y019493D01*
X017282Y019493D01*
X017282Y019520D01*
X017185Y019617D01*
X016863Y019617D01*
X016840Y019594D01*
X016817Y019617D01*
X016680Y019617D01*
X016584Y019520D01*
X016584Y019247D01*
X016545Y019247D01*
X016545Y019520D01*
X016449Y019617D01*
X016127Y019617D01*
X015968Y019458D01*
X015968Y019212D01*
X015968Y019173D01*
X015968Y019137D01*
X015968Y019137D01*
X015968Y019075D01*
X015968Y019075D01*
X015970Y019074D01*
X016065Y018978D01*
X016065Y018978D01*
X016127Y018917D01*
X016127Y018917D01*
X016127Y018917D01*
X016195Y018917D01*
X016277Y018917D01*
X016277Y018893D01*
X016188Y018893D01*
X016165Y018870D01*
X016142Y018893D01*
X016080Y018955D01*
X015943Y018955D01*
X015882Y018893D01*
X015882Y018893D01*
X015785Y018797D01*
X015785Y018660D01*
X015840Y018605D01*
X015785Y018550D01*
X015785Y018413D01*
X015801Y018397D01*
X015697Y018293D01*
X015575Y018293D01*
X015520Y018238D01*
X015465Y018293D01*
X015329Y018293D01*
X015305Y018270D01*
X015282Y018293D01*
X015213Y018293D01*
X015145Y018293D01*
X015133Y018293D01*
X015133Y018351D01*
X015152Y018371D01*
X015206Y018317D01*
X015206Y018317D01*
X015206Y018317D01*
X015275Y018317D01*
X015528Y018317D01*
X015625Y018413D01*
X015625Y018917D01*
X015650Y018917D01*
X015747Y019013D01*
X015809Y019075D01*
X015809Y019391D01*
X015809Y019458D01*
X015809Y019458D01*
X015809Y019458D01*
X015747Y019520D01*
X015747Y019520D01*
X015652Y019616D01*
X015650Y019617D01*
X015583Y019617D01*
X015514Y019617D01*
X015514Y019617D01*
X015390Y019617D01*
X015367Y019594D01*
X015344Y019617D01*
X015022Y019617D01*
X014968Y019563D01*
X014915Y019616D01*
X014914Y019617D01*
X014914Y019617D01*
X014846Y019617D01*
X014777Y019617D01*
X014777Y019617D01*
X014654Y019617D01*
X014557Y019520D01*
X014495Y019458D01*
X014495Y019322D01*
X014519Y019298D01*
X014495Y019273D01*
X014495Y019212D01*
X014495Y019212D01*
X014495Y019185D01*
X014335Y019185D01*
X014335Y019520D01*
X014239Y019617D01*
X014102Y019617D01*
X014005Y019520D01*
X014005Y019493D01*
X013917Y019493D01*
X013863Y019439D01*
X013810Y019492D01*
X013809Y019493D01*
X013809Y019493D01*
X013741Y019493D01*
X013672Y019493D01*
X013549Y019493D01*
X013495Y019439D01*
X013440Y019493D01*
X013180Y019493D01*
X013157Y019470D01*
X013134Y019493D01*
X012812Y019493D01*
X012789Y019470D01*
X012765Y019493D01*
X012677Y019493D01*
X012677Y019520D01*
X012580Y019617D01*
X012443Y019617D01*
X012347Y019520D01*
X012347Y019017D01*
X012260Y019017D01*
X012236Y018994D01*
X012213Y019017D01*
X012067Y019017D01*
X012187Y019137D01*
X012187Y019520D01*
X012090Y019617D01*
X011954Y019617D01*
X011899Y019562D01*
X011843Y019617D01*
X011707Y019617D01*
X011653Y019563D01*
X011599Y019617D01*
X011462Y019617D01*
X011365Y019520D01*
X011365Y019297D01*
X011354Y019308D01*
X011266Y019308D01*
X011266Y019389D01*
X011266Y019458D01*
X011266Y019458D01*
X011266Y019458D01*
X011204Y019520D01*
X011204Y019520D01*
X011108Y019617D01*
X011039Y019617D01*
X010971Y019617D01*
X010848Y019617D01*
X010786Y019555D01*
X010689Y019458D01*
X010689Y019212D01*
X010689Y019143D01*
X010689Y019075D01*
X010689Y019075D01*
X010690Y019074D01*
X010767Y018997D01*
X010725Y018955D01*
X010701Y018932D01*
X010616Y019017D01*
X010480Y019017D01*
X010395Y018932D01*
X010310Y019017D01*
X010241Y019017D01*
X010173Y019017D01*
X010050Y019017D01*
X009988Y018955D01*
X009891Y018858D01*
X009891Y018612D01*
X009891Y018573D01*
X009891Y018537D01*
X009891Y018537D01*
X009891Y018475D01*
X009891Y018475D01*
X009892Y018474D01*
X009988Y018378D01*
X010050Y018317D01*
X010117Y018317D01*
X010310Y018317D01*
X010333Y018340D01*
X010356Y018317D01*
X010740Y018317D01*
X010763Y018340D01*
X010786Y018317D01*
X010786Y018317D01*
X010786Y018317D01*
X010854Y018317D01*
X011046Y018317D01*
X011070Y018340D01*
X011093Y018317D01*
X011476Y018317D01*
X011573Y018413D01*
X011573Y018550D01*
X011487Y018636D01*
X011573Y018722D01*
X011573Y018858D01*
X011515Y018917D01*
X011722Y018917D01*
X011776Y018971D01*
X011811Y018936D01*
X011795Y018920D01*
X011733Y018858D01*
X011733Y018612D01*
X011733Y018612D01*
X011733Y018544D01*
X011733Y018475D01*
X011830Y018378D01*
X011891Y018317D01*
X011891Y018317D01*
X011891Y018317D01*
X011960Y018317D01*
X012213Y018317D01*
X012236Y018340D01*
X012260Y018317D01*
X012352Y018317D01*
X012520Y018317D01*
X012543Y018340D01*
X012566Y018317D01*
X012950Y018317D01*
X013046Y018413D01*
X013046Y018489D01*
X013150Y018333D01*
X013284Y018306D01*
X013339Y018342D01*
X013364Y018317D01*
X013364Y018317D01*
X013364Y018317D01*
X013434Y018317D01*
X013686Y018317D01*
X013710Y018340D01*
X013733Y018317D01*
X013800Y018317D01*
X013993Y018317D01*
X014016Y018340D01*
X014039Y018317D01*
X014128Y018317D01*
X014128Y018281D01*
X014116Y018293D01*
X013856Y018293D01*
X013794Y018232D01*
X013697Y018135D01*
X013697Y017813D01*
X013697Y017880D02*
X000368Y017880D01*
X000368Y017979D02*
X013697Y017979D01*
X013697Y018077D02*
X000368Y018077D01*
X000368Y018176D02*
X013738Y018176D01*
X013836Y018274D02*
X000368Y018274D01*
X000368Y018373D02*
X009994Y018373D01*
X009988Y018378D02*
X009988Y018378D01*
X010050Y018317D02*
X010050Y018317D01*
X010050Y018317D01*
X009895Y018471D02*
X000368Y018471D01*
X000368Y018570D02*
X009891Y018570D01*
X009891Y018612D02*
X009891Y018612D01*
X009891Y018668D02*
X000368Y018668D01*
X000368Y018767D02*
X009891Y018767D01*
X009898Y018865D02*
X000368Y018865D01*
X000368Y018964D02*
X009996Y018964D01*
X010173Y019017D02*
X010173Y019017D01*
X010363Y018964D02*
X010426Y018964D01*
X010670Y018964D02*
X010733Y018964D01*
X010702Y019062D02*
X000368Y019062D01*
X000368Y019161D02*
X010689Y019161D01*
X010689Y019212D02*
X010689Y019212D01*
X010689Y019259D02*
X000368Y019259D01*
X000368Y019358D02*
X010689Y019358D01*
X010689Y019456D02*
X000368Y019456D01*
X000368Y019555D02*
X010785Y019555D01*
X010786Y019555D02*
X010786Y019555D01*
X010971Y019617D02*
X010971Y019617D01*
X011170Y019555D02*
X011400Y019555D01*
X011365Y019456D02*
X011266Y019456D01*
X011266Y019358D02*
X011365Y019358D01*
X011567Y018865D02*
X011739Y018865D01*
X011733Y018767D02*
X011573Y018767D01*
X011519Y018668D02*
X011733Y018668D01*
X011733Y018570D02*
X011553Y018570D01*
X011573Y018471D02*
X011737Y018471D01*
X011830Y018378D02*
X011830Y018378D01*
X011835Y018373D02*
X011532Y018373D01*
X011769Y018964D02*
X011783Y018964D01*
X012112Y019062D02*
X012347Y019062D01*
X012347Y019161D02*
X012187Y019161D01*
X012187Y019259D02*
X012347Y019259D01*
X012347Y019358D02*
X012187Y019358D01*
X012187Y019456D02*
X012347Y019456D01*
X012381Y019555D02*
X012153Y019555D01*
X012642Y019555D02*
X014040Y019555D01*
X013880Y019456D02*
X013846Y019456D01*
X013672Y019493D02*
X013672Y019493D01*
X013511Y019456D02*
X013478Y019456D01*
X014301Y019555D02*
X014591Y019555D01*
X014495Y019456D02*
X014335Y019456D01*
X014335Y019358D02*
X014495Y019358D01*
X014495Y019259D02*
X014335Y019259D01*
X013733Y018317D02*
X013733Y018317D01*
X013733Y018317D01*
X013124Y018373D02*
X013006Y018373D01*
X013046Y018471D02*
X013058Y018471D01*
X012260Y018317D02*
X012260Y018317D01*
X012260Y018317D01*
X014488Y017782D02*
X014528Y017782D01*
X014730Y017717D02*
X014730Y017717D01*
X014914Y017778D02*
X014914Y017778D01*
X014917Y017782D02*
X014957Y017782D01*
X015145Y018293D02*
X015145Y018293D01*
X015301Y018274D02*
X015309Y018274D01*
X015485Y018274D02*
X015556Y018274D01*
X015584Y018373D02*
X015776Y018373D01*
X015785Y018471D02*
X015625Y018471D01*
X015625Y018570D02*
X015805Y018570D01*
X015785Y018668D02*
X015625Y018668D01*
X015625Y018767D02*
X015785Y018767D01*
X015853Y018865D02*
X015625Y018865D01*
X015697Y018964D02*
X016080Y018964D01*
X015981Y019062D02*
X015796Y019062D01*
X015809Y019161D02*
X015968Y019161D01*
X015968Y019212D02*
X015968Y019212D01*
X015968Y019259D02*
X015809Y019259D01*
X015809Y019358D02*
X015968Y019358D01*
X015968Y019456D02*
X015809Y019456D01*
X015713Y019555D02*
X016065Y019555D01*
X015650Y019617D02*
X015650Y019617D01*
X016511Y019555D02*
X016618Y019555D01*
X016584Y019456D02*
X016545Y019456D01*
X016545Y019358D02*
X016584Y019358D01*
X016584Y019259D02*
X016545Y019259D01*
X017248Y019555D02*
X017355Y019555D01*
X017616Y019555D02*
X017969Y019555D01*
X017907Y019493D02*
X017907Y019493D01*
X017860Y019493D02*
X017860Y019493D01*
X017724Y019493D02*
X017724Y019493D01*
X018106Y019555D02*
X018458Y019555D01*
X018966Y019555D02*
X019692Y019555D01*
X019692Y019456D02*
X019001Y019456D01*
X019001Y019358D02*
X019692Y019358D01*
X019692Y019259D02*
X019001Y019259D01*
X019001Y019161D02*
X019692Y019161D01*
X019692Y019062D02*
X019001Y019062D01*
X018951Y018964D02*
X019692Y018964D01*
X019692Y018865D02*
X018994Y018865D01*
X019001Y018767D02*
X019692Y018767D01*
X019692Y018668D02*
X019001Y018668D01*
X019001Y018570D02*
X019692Y018570D01*
X019692Y018471D02*
X018997Y018471D01*
X018948Y018373D02*
X019692Y018373D01*
X019692Y018274D02*
X019001Y018274D01*
X019001Y018176D02*
X019692Y018176D01*
X019692Y018077D02*
X019001Y018077D01*
X019001Y017979D02*
X019692Y017979D01*
X019692Y017880D02*
X019001Y017880D01*
X018969Y017782D02*
X019692Y017782D01*
X017412Y017782D02*
X017128Y017782D01*
X017159Y017880D02*
X017376Y017880D01*
X017319Y017979D02*
X017131Y017979D01*
X017159Y018077D02*
X017319Y018077D01*
X017359Y018176D02*
X017159Y018176D01*
X017097Y018274D02*
X017396Y018274D01*
X017381Y018290D02*
X017381Y018290D01*
X017238Y018373D02*
X017180Y018373D01*
X016476Y018274D02*
X016100Y018274D01*
X016177Y018176D02*
X016377Y018176D01*
X016399Y018197D02*
X016399Y018197D01*
X016337Y018077D02*
X016177Y018077D01*
X016177Y017979D02*
X016337Y017979D01*
X016337Y017880D02*
X016177Y017880D01*
X016145Y017782D02*
X016368Y017782D01*
X019692Y013940D02*
X001310Y013940D01*
X001408Y013842D02*
X019692Y013842D01*
X019692Y013743D02*
X001507Y013743D01*
X001550Y013645D02*
X019692Y013645D01*
X019692Y013546D02*
X001550Y013546D01*
X001550Y013448D02*
X019692Y013448D01*
X019692Y013349D02*
X001550Y013349D01*
X001515Y013251D02*
X019692Y013251D01*
X019692Y013152D02*
X001417Y013152D01*
X001318Y013054D02*
X019692Y013054D01*
X019692Y012955D02*
X001295Y012955D01*
X001393Y012857D02*
X019692Y012857D01*
X019692Y012758D02*
X001492Y012758D01*
X001550Y012660D02*
X019692Y012660D01*
X019692Y012561D02*
X001550Y012561D01*
X001550Y012463D02*
X019692Y012463D01*
X019692Y012364D02*
X001550Y012364D01*
X001530Y012266D02*
X019692Y012266D01*
X019692Y012167D02*
X002133Y012167D01*
X002061Y012239D02*
X001839Y012239D01*
X001681Y012081D01*
X001681Y011859D01*
X001750Y011789D01*
X001750Y010171D01*
X001681Y010101D01*
X001681Y009879D01*
X001839Y009721D01*
X002061Y009721D01*
X002219Y009879D01*
X002219Y010101D01*
X002150Y010171D01*
X002150Y011789D01*
X002219Y011859D01*
X002219Y012081D01*
X002061Y012239D01*
X002219Y012069D02*
X019692Y012069D01*
X019692Y011970D02*
X002219Y011970D01*
X002219Y011872D02*
X019692Y011872D01*
X019692Y011773D02*
X002150Y011773D01*
X002150Y011675D02*
X019692Y011675D01*
X019692Y011576D02*
X002150Y011576D01*
X002150Y011478D02*
X019692Y011478D01*
X019692Y011379D02*
X002150Y011379D01*
X002150Y011281D02*
X019692Y011281D01*
X019692Y011182D02*
X002150Y011182D01*
X002150Y011084D02*
X019692Y011084D01*
X019692Y010985D02*
X002150Y010985D01*
X002150Y010887D02*
X019692Y010887D01*
X019692Y010788D02*
X002150Y010788D01*
X002150Y010690D02*
X019692Y010690D01*
X019692Y010591D02*
X002150Y010591D01*
X002150Y010493D02*
X019692Y010493D01*
X019692Y010394D02*
X002150Y010394D01*
X002150Y010296D02*
X019692Y010296D01*
X019692Y010197D02*
X002150Y010197D01*
X002219Y010099D02*
X019692Y010099D01*
X019692Y010000D02*
X002219Y010000D01*
X002219Y009902D02*
X019692Y009902D01*
X019692Y009803D02*
X002144Y009803D01*
X001950Y009990D02*
X001950Y011970D01*
X001681Y011970D02*
X001280Y011970D01*
X001333Y012069D02*
X001681Y012069D01*
X001767Y012167D02*
X001432Y012167D01*
X001378Y011872D02*
X001681Y011872D01*
X001750Y011773D02*
X001477Y011773D01*
X001550Y011675D02*
X001750Y011675D01*
X001750Y011576D02*
X001550Y011576D01*
X001550Y011478D02*
X001750Y011478D01*
X001750Y011379D02*
X001550Y011379D01*
X001545Y011281D02*
X001750Y011281D01*
X001750Y011182D02*
X001447Y011182D01*
X001348Y011084D02*
X001750Y011084D01*
X001750Y010985D02*
X001265Y010985D01*
X001363Y010887D02*
X001750Y010887D01*
X001750Y010788D02*
X001462Y010788D01*
X001550Y010690D02*
X001750Y010690D01*
X001750Y010591D02*
X001550Y010591D01*
X001550Y010493D02*
X001750Y010493D01*
X001750Y010394D02*
X001550Y010394D01*
X001550Y010296D02*
X001750Y010296D01*
X001750Y010197D02*
X001462Y010197D01*
X001363Y010099D02*
X001681Y010099D01*
X001681Y010000D02*
X001265Y010000D01*
X001348Y009902D02*
X001681Y009902D01*
X001756Y009803D02*
X001447Y009803D01*
X001545Y009705D02*
X019692Y009705D01*
X019692Y009606D02*
X001550Y009606D01*
X001550Y009508D02*
X019692Y009508D01*
X019692Y009409D02*
X001550Y009409D01*
X001550Y009311D02*
X019692Y009311D01*
X019692Y009212D02*
X001613Y009212D01*
X001711Y009114D02*
X019692Y009114D01*
X019692Y009015D02*
X001809Y009015D01*
X001908Y008917D02*
X019692Y008917D01*
X019692Y008818D02*
X002006Y008818D01*
X002104Y008720D02*
X019692Y008720D01*
X019692Y008621D02*
X002203Y008621D01*
X002301Y008523D02*
X019692Y008523D01*
X019692Y008424D02*
X002399Y008424D01*
X002498Y008326D02*
X019692Y008326D01*
X019692Y008227D02*
X002596Y008227D01*
X002695Y008129D02*
X019692Y008129D01*
X019692Y008030D02*
X002793Y008030D01*
X002870Y007953D02*
X002870Y007953D01*
X002870Y007953D01*
X002870Y007932D02*
X019692Y007932D01*
X019692Y007833D02*
X002870Y007833D01*
X002870Y007735D02*
X019692Y007735D01*
X019692Y007636D02*
X002870Y007636D01*
X002870Y007538D02*
X019692Y007538D01*
X019692Y007439D02*
X002870Y007439D01*
X002870Y007341D02*
X019692Y007341D01*
X019692Y007242D02*
X002870Y007242D01*
X002870Y007144D02*
X019692Y007144D01*
X019692Y007045D02*
X002870Y007045D01*
X002870Y006947D02*
X019692Y006947D01*
X019692Y006848D02*
X002870Y006848D01*
X002870Y006750D02*
X019692Y006750D01*
X019692Y006651D02*
X002870Y006651D01*
X002870Y006553D02*
X019692Y006553D01*
X019692Y006454D02*
X002870Y006454D01*
X002870Y006356D02*
X019692Y006356D01*
X019692Y006257D02*
X002870Y006257D01*
X002916Y006159D02*
X019692Y006159D01*
X019692Y006060D02*
X002939Y006060D01*
X002925Y005962D02*
X019692Y005962D01*
X019692Y005863D02*
X002864Y005863D01*
X002886Y005765D02*
X019692Y005765D01*
X019692Y005666D02*
X002928Y005666D01*
X002929Y005568D02*
X019692Y005568D01*
X019692Y005469D02*
X002893Y005469D01*
X002785Y005371D02*
X019692Y005371D01*
X002660Y005610D02*
X002190Y006080D01*
X002190Y007350D01*
X001050Y008493D01*
X001550Y008523D02*
X001736Y008523D01*
X001638Y008621D02*
X001550Y008621D01*
X001539Y008720D02*
X001530Y008720D01*
X001441Y008818D02*
X001432Y008818D01*
X001342Y008917D02*
X001333Y008917D01*
X001550Y008424D02*
X001834Y008424D01*
X001933Y008326D02*
X001550Y008326D01*
X001597Y008227D02*
X002031Y008227D01*
X002129Y008129D02*
X001696Y008129D01*
X001794Y008030D02*
X002228Y008030D01*
X002326Y007932D02*
X001892Y007932D01*
X001991Y007833D02*
X002424Y007833D01*
X002470Y007735D02*
X002089Y007735D01*
X002187Y007636D02*
X002470Y007636D01*
X002470Y007538D02*
X002285Y007538D01*
X002384Y007439D02*
X002470Y007439D01*
X002390Y007433D02*
X002390Y007433D01*
X002390Y007433D01*
X002390Y007341D02*
X002470Y007341D01*
X002470Y007242D02*
X002390Y007242D01*
X002390Y007144D02*
X002470Y007144D01*
X002470Y007045D02*
X002390Y007045D01*
X002390Y006947D02*
X002470Y006947D01*
X002470Y006848D02*
X002390Y006848D01*
X002390Y006750D02*
X002470Y006750D01*
X002470Y006651D02*
X002390Y006651D01*
X002390Y006553D02*
X002470Y006553D01*
X002470Y006454D02*
X002390Y006454D01*
X002390Y006356D02*
X002470Y006356D01*
X002470Y006257D02*
X002390Y006257D01*
X002394Y006159D02*
X002424Y006159D01*
X002670Y006050D02*
X002670Y007870D01*
X001050Y009493D01*
X001100Y007971D02*
X001248Y007971D01*
X001529Y007691D01*
X001529Y007543D01*
X001100Y007543D01*
X001100Y007971D01*
X001100Y007932D02*
X001000Y007932D01*
X001000Y007833D02*
X001100Y007833D01*
X001100Y007735D02*
X001000Y007735D01*
X001000Y007636D02*
X001100Y007636D01*
X001100Y007538D02*
X001720Y007538D01*
X001622Y007636D02*
X001529Y007636D01*
X001524Y007735D02*
X001485Y007735D01*
X001426Y007833D02*
X001387Y007833D01*
X001327Y007932D02*
X001288Y007932D01*
X001529Y007439D02*
X001819Y007439D01*
X001917Y007341D02*
X001529Y007341D01*
X001477Y007242D02*
X001990Y007242D01*
X001990Y007144D02*
X001378Y007144D01*
X000820Y007045D02*
X000368Y007045D01*
X000368Y006947D02*
X000797Y006947D01*
X000698Y006848D02*
X000368Y006848D01*
X000368Y006750D02*
X000600Y006750D01*
X000550Y006651D02*
X000368Y006651D01*
X000368Y006553D02*
X000550Y006553D01*
X000550Y006454D02*
X000368Y006454D01*
X000368Y006356D02*
X000550Y006356D01*
X000578Y006257D02*
X000368Y006257D01*
X000368Y006159D02*
X000677Y006159D01*
X000775Y006060D02*
X000368Y006060D01*
X000368Y007144D02*
X000722Y007144D01*
X000623Y007242D02*
X000368Y007242D01*
X000368Y007341D02*
X000571Y007341D01*
X000571Y007439D02*
X000368Y007439D01*
D14*
X001950Y009990D03*
X003003Y010977D03*
X003019Y010130D03*
X003053Y009258D03*
X003987Y009258D03*
X004003Y010130D03*
X003987Y010977D03*
X004987Y010130D03*
X005021Y009258D03*
X004087Y008024D03*
X004087Y007040D03*
X005071Y007040D03*
X006056Y007040D03*
X007006Y007032D03*
X007990Y007032D03*
X008974Y007032D03*
X009958Y007032D03*
X008024Y008024D03*
X007040Y008024D03*
X006071Y008024D03*
X009008Y009008D03*
X009008Y009993D03*
X009008Y010977D03*
X009008Y011961D03*
X009993Y011961D03*
X010977Y011961D03*
X011961Y011961D03*
X011961Y010977D03*
X011961Y009993D03*
X010977Y009993D03*
X010977Y010977D03*
X009993Y010977D03*
X009993Y009993D03*
X009993Y009008D03*
X010977Y009008D03*
X011961Y009008D03*
X012945Y008024D03*
X012933Y007044D03*
X012049Y007044D03*
X012049Y006060D03*
X013033Y006060D03*
X014018Y006060D03*
X013918Y007044D03*
X014764Y007008D03*
X014764Y008008D03*
X013930Y008024D03*
X013930Y009008D03*
X014764Y009008D03*
X016882Y009008D03*
X016882Y008024D03*
X016882Y007040D03*
X016882Y006056D03*
X015898Y006056D03*
X015898Y005071D03*
X014914Y005071D03*
X016882Y005071D03*
X017867Y005071D03*
X018851Y005071D03*
X018851Y006056D03*
X017867Y006056D03*
X017867Y007040D03*
X018851Y007040D03*
X018851Y008024D03*
X017867Y008024D03*
X017867Y009008D03*
X018851Y009008D03*
X018851Y009993D03*
X018851Y010977D03*
X017867Y010977D03*
X017867Y009993D03*
X016882Y009993D03*
X016882Y010977D03*
X016882Y011961D03*
X015898Y011961D03*
X014914Y011961D03*
X014914Y012945D03*
X015898Y012945D03*
X016882Y012945D03*
X016882Y013930D03*
X016882Y014914D03*
X015898Y014914D03*
X015898Y015898D03*
X014914Y015898D03*
X014914Y014914D03*
X014914Y013930D03*
X015898Y013930D03*
X017867Y013930D03*
X018851Y013930D03*
X018851Y014914D03*
X017867Y014914D03*
X017867Y015898D03*
X018851Y015898D03*
X018851Y016882D03*
X017867Y016882D03*
X016882Y016882D03*
X016882Y015898D03*
X015898Y016882D03*
X014914Y016882D03*
X013930Y016882D03*
X013930Y015898D03*
X012945Y015882D03*
X011961Y015882D03*
X010977Y015882D03*
X010977Y014932D03*
X009993Y014932D03*
X009993Y015882D03*
X009008Y015882D03*
X008024Y015882D03*
X007040Y015882D03*
X006056Y015898D03*
X006056Y016882D03*
X007040Y016882D03*
X008024Y016882D03*
X009008Y016882D03*
X009993Y016882D03*
X010977Y016882D03*
X011961Y016882D03*
X012945Y016882D03*
X012945Y017867D03*
X011961Y017867D03*
X010977Y017867D03*
X009993Y017867D03*
X009008Y017867D03*
X008024Y017867D03*
X007040Y017867D03*
X005071Y016882D03*
X005071Y015898D03*
X004087Y015898D03*
X003103Y015898D03*
X003103Y016882D03*
X004087Y016882D03*
X002119Y016882D03*
X002119Y015898D03*
X001134Y015898D03*
X001134Y014914D03*
X002119Y013930D03*
X002119Y012980D03*
X003103Y012980D03*
X003103Y013930D03*
X004087Y013930D03*
X004087Y012980D03*
X005071Y013914D03*
X005071Y014914D03*
X004087Y014898D03*
X006056Y014898D03*
X008024Y014932D03*
X009008Y014932D03*
X008024Y012945D03*
X007124Y012945D03*
X001950Y011970D03*
X001134Y016882D03*
X012945Y013930D03*
X012945Y012945D03*
X017867Y012945D03*
X018851Y012945D03*
X018851Y011961D03*
X017867Y011961D03*
X012945Y004903D03*
X012945Y004103D03*
X011961Y004103D03*
X011961Y004903D03*
X010977Y004903D03*
X010977Y004103D03*
X009993Y004103D03*
X009993Y004903D03*
X009008Y004903D03*
X009008Y004103D03*
X008024Y004103D03*
X008024Y004903D03*
X007040Y004903D03*
X007040Y004103D03*
X006056Y004103D03*
X006056Y004903D03*
X005071Y004903D03*
X005071Y004103D03*
X004087Y004103D03*
X004087Y004903D03*
X003103Y004903D03*
X003103Y004103D03*
X002119Y004103D03*
X002119Y004903D03*
X001134Y004903D03*
X001134Y004103D03*
X001134Y003103D03*
X001134Y002119D03*
X002119Y002119D03*
X002119Y003103D03*
X003103Y003103D03*
X004087Y003103D03*
X005071Y003103D03*
X005071Y002119D03*
X004087Y002119D03*
X003103Y002119D03*
X003103Y001134D03*
X004087Y001134D03*
X005071Y001134D03*
X006056Y001134D03*
X007040Y001134D03*
X008024Y001134D03*
X009008Y001134D03*
X009008Y002119D03*
X008024Y002119D03*
X007040Y002119D03*
X007040Y003103D03*
X008024Y003103D03*
X009008Y003103D03*
X009993Y003103D03*
X010977Y003103D03*
X011961Y003103D03*
X012945Y003103D03*
X012945Y002119D03*
X011961Y002119D03*
X010977Y002119D03*
X009993Y002119D03*
X009993Y001134D03*
X010977Y001134D03*
X011961Y001134D03*
X012945Y001134D03*
X006056Y002119D03*
X006056Y003103D03*
X002119Y001134D03*
X001134Y001134D03*
M02*
