%
M48
M72
T01C0.0120
T02C0.0315
T03C0.0335
T04C0.0390
T05C0.0400
T06C0.0440
T07C0.0630
T08C0.0866
%
T01
X5544Y642
X6528Y642
X8497Y642
X9481Y642
X9481Y1626
X8497Y1626
X8292Y3390
X11352Y2250
X10957Y1134
X11942Y1134
X14894Y642
X14894Y1674
X15879Y1674
X16863Y2119
X17847Y2119
X19323Y3103
X20308Y3103
X21784Y5071
X22768Y5071
X23753Y5563
X24737Y5563
X25721Y5563
X26705Y5563
X27690Y5563
X28674Y5563
X28674Y6548
X27690Y6548
X26705Y6548
X25721Y6548
X24737Y7532
X24245Y7040
X23753Y7040
X23260Y7040
X22276Y7040
X21612Y6500
X21612Y6040
X20608Y5360
X15879Y5071
X14894Y5071
X13910Y5071
X12926Y5071
X11942Y6548
X10932Y7470
X10706Y7844
X11148Y8543
X10934Y8804
X9554Y8504
X8426Y7724
X7812Y8790
X8005Y10977
X8989Y10977
X9973Y10977
X11892Y10710
X13932Y10590
X14292Y11790
X15879Y13437
X16371Y13930
X16692Y13590
X16863Y14422
X16371Y14422
X16371Y14914
X16371Y15406
X13812Y15570
X12926Y13930
X17288Y17678
X18352Y19861
X18672Y21210
X19552Y21181
X19152Y22170
X21052Y20641
X21352Y19981
X21292Y19201
X23712Y21690
X26532Y21690
X27690Y22788
X28182Y21804
X27690Y20819
X28812Y19470
X28740Y19013
X29052Y18990
X29412Y18510
X29790Y18203
X30132Y17910
X29712Y17670
X29712Y17250
X29052Y17550
X28732Y18001
X27952Y17881
X27972Y16590
X27372Y16590
X25572Y14670
X25721Y13930
X25229Y13930
X24245Y13437
X23260Y15406
X22768Y15406
X28152Y11430
X28692Y11430
X27690Y10485
X28158Y10044
X28506Y9696
X28212Y8550
X27690Y8024
X27197Y8024
X26213Y9008
X25721Y9008
X25721Y9500
X26213Y10977
X29412Y7950
X32052Y8550
X32048Y9038
X32052Y9450
X33728Y10118
X34812Y10110
X36012Y10830
X36452Y10113
X36012Y9270
X37532Y8516
X38024Y9008
X39008Y9008
X39993Y9008
X40977Y9008
X40977Y8024
X39993Y8024
X39656Y6560
X39501Y5563
X38516Y5563
X37532Y5563
X36548Y5563
X35564Y5563
X35071Y6056
X35412Y6390
X34579Y5563
X33612Y7110
X33972Y7350
X33852Y7950
X34328Y8300
X36548Y7040
X37532Y7040
X37332Y7950
X40485Y10485
X40485Y11469
X41469Y10485
X42453Y11961
X41961Y12453
X42488Y13478
X42728Y14318
X42968Y15278
X41469Y15898
X40485Y15898
X40485Y14914
X39501Y14914
X39501Y15898
X38516Y15898
X38024Y16390
X37040Y16882
X36548Y17374
X35071Y17374
X34579Y17867
X33595Y17867
X32412Y17790
X32292Y17190
X32172Y16590
X33612Y16110
X31812Y15630
X32172Y14070
X32932Y13981
X34087Y14422
X34579Y14422
X35071Y14422
X36056Y14914
X36548Y14914
X36548Y15898
X37532Y14914
X37532Y13930
X38516Y13930
X39612Y13830
X38024Y12453
X37532Y12453
X36548Y11961
X36548Y12945
X36548Y13930
X40485Y16882
X41469Y16882
X40485Y17867
X39501Y17867
X38516Y18851
X38024Y19343
X37532Y19835
X37040Y20327
X36548Y20819
X36056Y21311
X35564Y21311
X35564Y22296
X36056Y22296
X35071Y22296
X34087Y22296
X33331Y22860
X33103Y22296
X32119Y22296
X31134Y22296
X30150Y22296
X30642Y21311
X31627Y21311
X32611Y21311
X33595Y21311
X34579Y21311
X34579Y19835
X34087Y18851
X33103Y19835
X32532Y18630
X30150Y19343
X30150Y20327
X30150Y23772
X30150Y24264
X30642Y24264
X31134Y24264
X31627Y24264
X30132Y25350
X28182Y25741
X27690Y26725
X27690Y27709
X26705Y27709
X25932Y27870
X25812Y28470
X25448Y29318
X26213Y29678
X26213Y30662
X26213Y31646
X24893Y30986
X23753Y31646
X22768Y31646
X21784Y31646
X21784Y32630
X22768Y32630
X23753Y32630
X23753Y33615
X22768Y33615
X21784Y33615
X21784Y34599
X21784Y35583
X21252Y35670
X22768Y35583
X23753Y35583
X23753Y34599
X25812Y34950
X26213Y33615
X26213Y32630
X27690Y32630
X28758Y32570
X29658Y30662
X28674Y29678
X28182Y30170
X27570Y30782
X29166Y29185
X30788Y28538
X32528Y28298
X33552Y27510
X32228Y26858
X32292Y26430
X32708Y26318
X33492Y24690
X34332Y24690
X36056Y23772
X36548Y24756
X37532Y24756
X38516Y24756
X38516Y23772
X39501Y23772
X40485Y23772
X40485Y24756
X41469Y24756
X42453Y25741
X43438Y24756
X43438Y23772
X42453Y22788
X41469Y22788
X43438Y22296
X43438Y21804
X43438Y20819
X43438Y19835
X42453Y19343
X41469Y19343
X40485Y19835
X40485Y20819
X41469Y20819
X42453Y20819
X39501Y20819
X39501Y19835
X38516Y20819
X38516Y21804
X38516Y22296
X37532Y21804
X39501Y24756
X39501Y25741
X39501Y26725
X38516Y25741
X36128Y27518
X35292Y27870
X35292Y26850
X39008Y29185
X39501Y28693
X39993Y29185
X40977Y29185
X39993Y30170
X42453Y29678
X42945Y30662
X42945Y31646
X43438Y32138
X43438Y33122
X43930Y34107
X43930Y35091
X43930Y36075
X43930Y37059
X43930Y38044
X43930Y39028
X42945Y39028
X39788Y37035
X40317Y36267
X40977Y34107
X41469Y34107
X41469Y33122
X40977Y33122
X39501Y32630
X39008Y32630
X39008Y33615
X35564Y34599
X35564Y35583
X34579Y35583
X33595Y35583
X32611Y35583
X33103Y34599
X33595Y33615
X32611Y33615
X31627Y33615
X31627Y32570
X32611Y32570
X33595Y32570
X34579Y33615
X32611Y31646
X31627Y31646
X31627Y30662
X32892Y30270
X33548Y30278
X34579Y30662
X35564Y30662
X36548Y29678
X42453Y28693
X43438Y28693
X43438Y27217
X35564Y36567
X35564Y37552
X34579Y36567
X33595Y36567
X32119Y37059
X31627Y36567
X30642Y37552
X29658Y37552
X30132Y36448
X29658Y36075
X27690Y37552
X26705Y37552
X26705Y38536
X27690Y38536
X28674Y38536
X31627Y39028
X33103Y38536
X34579Y39028
X35564Y39028
X36056Y38536
X37040Y38536
X37532Y39028
X23753Y30170
X22932Y30270
X20308Y30170
X19932Y30510
X19932Y31950
X17355Y29678
X17847Y28693
X17355Y28201
X16863Y28693
X18339Y28201
X18339Y26725
X17847Y26233
X17355Y26725
X16863Y26233
X16371Y26725
X16371Y25741
X17355Y25741
X20308Y25741
X21292Y25741
X22092Y25950
X20800Y27709
X23753Y27709
X24737Y27709
X27690Y24756
X28182Y23772
X16863Y32138
X16371Y33122
X14894Y34599
X13910Y34599
X13910Y35583
X12926Y35583
X12926Y34599
X12926Y36567
X13418Y36567
X12926Y37552
X12926Y38536
X10957Y36567
X9973Y36567
X9973Y37552
X8989Y37552
X8989Y38536
X9973Y38536
X7020Y37552
X7020Y36567
X5544Y36567
X5544Y37552
X5544Y38536
X6528Y35091
X5544Y34599
X5544Y33615
X6612Y33390
X8005Y33615
X10465Y35583
X5544Y31646
X5544Y30662
X6132Y29070
X8497Y30662
X8005Y31154
X9973Y29185
X8005Y26725
X8005Y25741
X9481Y25248
X8005Y23772
X7020Y23772
X9481Y22788
X11942Y22296
X12926Y20819
X14402Y20819
X10957Y19835
X10957Y19343
X11666Y18256
X9481Y20327
X5652Y15870
X6528Y14914
X12434Y8516
X12434Y8024
X12926Y8024
X12926Y7532
X13418Y7040
X24257Y1987
X25032Y1410
X27197Y3595
X27197Y4087
X26705Y4087
X30012Y1350
X31932Y3810
X31632Y4650
X30728Y5438
X31632Y6330
X31932Y6450
X32052Y6750
X35264Y2983
X36732Y4110
X38352Y4770
X40485Y4579
X40785Y5563
X41469Y5071
X41469Y4087
X40977Y3595
X41049Y2431
X41469Y1626
X41961Y1626
X41892Y1950
X42453Y2119
X42453Y1626
X41961Y1134
X41469Y1134
X40977Y1134
X40485Y1134
X43438Y1134
X43930Y1134
X41961Y9008
X43930Y9993
X42848Y16838
X31212Y13950
X30852Y11300
X30852Y10840
X18072Y34950
X18339Y39028
X18831Y39028
X19323Y39028
X19816Y39028
T02
X40092Y23110
X40092Y22110
T03
X6698Y13318
X6698Y11822
X6758Y8998
X6758Y7502
X6758Y3658
X6758Y2162
T04
X18332Y37250
X19332Y37250
X18832Y38250
T05
X16512Y38690
X16512Y37690
X16512Y36690
X16512Y35690
X16512Y34690
X7652Y30270
X6652Y30270
X17932Y15690
X18932Y15690
X19932Y15690
X20932Y15690
X21932Y15690
X14792Y7950
X13792Y7950
X43632Y8050
X43632Y9050
X43632Y10930
X43632Y11930
X43632Y12930
X43632Y13930
X43632Y14930
X43632Y15930
X43632Y16930
X43632Y17930
X43632Y7050
X43632Y6050
X43632Y5050
T06
X9652Y16470
X9652Y17470
X9652Y18470
X9652Y19470
X7652Y18970
X7652Y17970
X7652Y16970
T07
X41261Y28121
X41261Y30128
X41261Y32136
X41261Y35128
T08
X42092Y24110
X42092Y20110
M30
