G75*
%MOIN*%
%OFA0B0*%
%FSLAX24Y24*%
%IPPOS*%
%LPD*%
%AMOC8*
5,1,8,0,0,1.08239X$1,22.5*
%
%ADD10R,0.0590X0.0590*%
%ADD11C,0.0590*%
%ADD12C,0.0557*%
%ADD13OC8,0.1000*%
%ADD14C,0.1024*%
%ADD15C,0.0472*%
%ADD16C,0.0640*%
%ADD17OC8,0.0238*%
%ADD18C,0.0100*%
%ADD19C,0.0400*%
%ADD20C,0.0160*%
%ADD21C,0.0240*%
D10*
X018332Y037250D03*
D11*
X019332Y037250D03*
X018832Y038250D03*
D12*
X016790Y038690D02*
X016233Y038690D01*
X016233Y037690D02*
X016790Y037690D01*
X016790Y036690D02*
X016233Y036690D01*
X016233Y035690D02*
X016790Y035690D01*
X016790Y034690D02*
X016233Y034690D01*
X007652Y030549D02*
X007652Y029991D01*
X006652Y029991D02*
X006652Y030549D01*
X017932Y015969D02*
X017932Y015411D01*
X018932Y015411D02*
X018932Y015969D01*
X019932Y015969D02*
X019932Y015411D01*
X020932Y015411D02*
X020932Y015969D01*
X021932Y015969D02*
X021932Y015411D01*
X014792Y008229D02*
X014792Y007671D01*
X013792Y007671D02*
X013792Y008229D01*
X043353Y008050D02*
X043910Y008050D01*
X043910Y009050D02*
X043353Y009050D01*
X043353Y010930D02*
X043910Y010930D01*
X043910Y011930D02*
X043353Y011930D01*
X043353Y012930D02*
X043910Y012930D01*
X043910Y013930D02*
X043353Y013930D01*
X043353Y014930D02*
X043910Y014930D01*
X043910Y015930D02*
X043353Y015930D01*
X043353Y016930D02*
X043910Y016930D01*
X043910Y017930D02*
X043353Y017930D01*
X043353Y007050D02*
X043910Y007050D01*
X043910Y006050D02*
X043353Y006050D01*
X043353Y005050D02*
X043910Y005050D01*
D13*
X041261Y028121D03*
X041261Y030128D03*
X041261Y032136D03*
X041261Y035128D03*
D14*
X042092Y024110D03*
X042092Y020110D03*
D15*
X040328Y022110D02*
X039856Y022110D01*
X039856Y023110D02*
X040328Y023110D01*
D16*
X009972Y019470D02*
X009332Y019470D01*
X009332Y018470D02*
X009972Y018470D01*
X009972Y017470D02*
X009332Y017470D01*
X009332Y016470D02*
X009972Y016470D01*
X007972Y016970D02*
X007332Y016970D01*
X007332Y017970D02*
X007972Y017970D01*
X007972Y018970D02*
X007332Y018970D01*
D17*
X009481Y020327D03*
X010957Y019835D03*
X010957Y019343D03*
X011666Y018256D03*
X012926Y020819D03*
X014402Y020819D03*
X011942Y022296D03*
X009481Y022788D03*
X008005Y023772D03*
X007020Y023772D03*
X009481Y025248D03*
X008005Y025741D03*
X008005Y026725D03*
X006132Y029070D03*
X005544Y030662D03*
X005544Y031646D03*
X008005Y031154D03*
X008497Y030662D03*
X009973Y029185D03*
X008005Y033615D03*
X006612Y033390D03*
X005544Y033615D03*
X005544Y034599D03*
X006528Y035091D03*
X007020Y036567D03*
X007020Y037552D03*
X005544Y037552D03*
X005544Y036567D03*
X005544Y038536D03*
X008989Y038536D03*
X009973Y038536D03*
X009973Y037552D03*
X008989Y037552D03*
X009973Y036567D03*
X010957Y036567D03*
X010465Y035583D03*
X012926Y035583D03*
X013910Y035583D03*
X013910Y034599D03*
X014894Y034599D03*
X012926Y034599D03*
X012926Y036567D03*
X013418Y036567D03*
X012926Y037552D03*
X012926Y038536D03*
X018072Y034950D03*
X016371Y033122D03*
X016863Y032138D03*
X017355Y029678D03*
X017847Y028693D03*
X017355Y028201D03*
X016863Y028693D03*
X018339Y028201D03*
X018339Y026725D03*
X017847Y026233D03*
X017355Y026725D03*
X016863Y026233D03*
X016371Y026725D03*
X016371Y025741D03*
X017355Y025741D03*
X020308Y025741D03*
X021292Y025741D03*
X022092Y025950D03*
X020800Y027709D03*
X020308Y030170D03*
X019932Y030510D03*
X019932Y031950D03*
X021784Y031646D03*
X022768Y031646D03*
X023753Y031646D03*
X024893Y030986D03*
X026213Y030662D03*
X026213Y031646D03*
X026213Y032630D03*
X026213Y033615D03*
X027690Y032630D03*
X028758Y032570D03*
X029658Y030662D03*
X028674Y029678D03*
X028182Y030170D03*
X027570Y030782D03*
X026213Y029678D03*
X025448Y029318D03*
X025812Y028470D03*
X025932Y027870D03*
X026705Y027709D03*
X027690Y027709D03*
X027690Y026725D03*
X028182Y025741D03*
X027690Y024756D03*
X028182Y023772D03*
X027690Y022788D03*
X028182Y021804D03*
X027690Y020819D03*
X026532Y021690D03*
X023712Y021690D03*
X021052Y020641D03*
X021352Y019981D03*
X021292Y019201D03*
X019552Y021181D03*
X018672Y021210D03*
X019152Y022170D03*
X018352Y019861D03*
X017288Y017678D03*
X016371Y015406D03*
X016371Y014914D03*
X016371Y014422D03*
X016863Y014422D03*
X016371Y013930D03*
X016692Y013590D03*
X015879Y013437D03*
X014292Y011790D03*
X013932Y010590D03*
X011892Y010710D03*
X009973Y010977D03*
X008989Y010977D03*
X008005Y010977D03*
X007812Y008790D03*
X008426Y007724D03*
X009554Y008504D03*
X010706Y007844D03*
X010932Y007470D03*
X011942Y006548D03*
X012926Y007532D03*
X013418Y007040D03*
X012926Y008024D03*
X012434Y008024D03*
X012434Y008516D03*
X011148Y008543D03*
X010934Y008804D03*
X012926Y005071D03*
X013910Y005071D03*
X014894Y005071D03*
X015879Y005071D03*
X016863Y002119D03*
X017847Y002119D03*
X019323Y003103D03*
X020308Y003103D03*
X021784Y005071D03*
X022768Y005071D03*
X023753Y005563D03*
X024737Y005563D03*
X025721Y005563D03*
X026705Y005563D03*
X027690Y005563D03*
X028674Y005563D03*
X028674Y006548D03*
X027690Y006548D03*
X026705Y006548D03*
X025721Y006548D03*
X024737Y007532D03*
X024245Y007040D03*
X023753Y007040D03*
X023260Y007040D03*
X022276Y007040D03*
X021612Y006500D03*
X021612Y006040D03*
X020608Y005360D03*
X024257Y001987D03*
X025032Y001410D03*
X027197Y003595D03*
X027197Y004087D03*
X026705Y004087D03*
X030012Y001350D03*
X031932Y003810D03*
X031632Y004650D03*
X030728Y005438D03*
X031632Y006330D03*
X031932Y006450D03*
X032052Y006750D03*
X033612Y007110D03*
X033972Y007350D03*
X033852Y007950D03*
X034328Y008300D03*
X036012Y009270D03*
X036452Y010113D03*
X036012Y010830D03*
X036548Y011961D03*
X037532Y012453D03*
X038024Y012453D03*
X036548Y012945D03*
X036548Y013930D03*
X037532Y013930D03*
X038516Y013930D03*
X039612Y013830D03*
X039501Y014914D03*
X040485Y014914D03*
X040485Y015898D03*
X041469Y015898D03*
X041469Y016882D03*
X040485Y016882D03*
X040485Y017867D03*
X039501Y017867D03*
X038516Y018851D03*
X038024Y019343D03*
X037532Y019835D03*
X037040Y020327D03*
X036548Y020819D03*
X036056Y021311D03*
X035564Y021311D03*
X035564Y022296D03*
X036056Y022296D03*
X035071Y022296D03*
X034087Y022296D03*
X033331Y022860D03*
X033103Y022296D03*
X032119Y022296D03*
X031134Y022296D03*
X030150Y022296D03*
X030642Y021311D03*
X031627Y021311D03*
X032611Y021311D03*
X033595Y021311D03*
X034579Y021311D03*
X034579Y019835D03*
X034087Y018851D03*
X033103Y019835D03*
X032532Y018630D03*
X032412Y017790D03*
X032292Y017190D03*
X032172Y016590D03*
X033612Y016110D03*
X031812Y015630D03*
X032172Y014070D03*
X032932Y013981D03*
X034087Y014422D03*
X034579Y014422D03*
X035071Y014422D03*
X036056Y014914D03*
X036548Y014914D03*
X036548Y015898D03*
X037532Y014914D03*
X038516Y015898D03*
X038024Y016390D03*
X037040Y016882D03*
X036548Y017374D03*
X035071Y017374D03*
X034579Y017867D03*
X033595Y017867D03*
X030132Y017910D03*
X029790Y018203D03*
X029412Y018510D03*
X029052Y018990D03*
X028740Y019013D03*
X028812Y019470D03*
X030150Y019343D03*
X030150Y020327D03*
X029712Y017670D03*
X029712Y017250D03*
X029052Y017550D03*
X028732Y018001D03*
X027952Y017881D03*
X027972Y016590D03*
X027372Y016590D03*
X025572Y014670D03*
X025721Y013930D03*
X025229Y013930D03*
X024245Y013437D03*
X023260Y015406D03*
X022768Y015406D03*
X028152Y011430D03*
X028692Y011430D03*
X027690Y010485D03*
X028158Y010044D03*
X028506Y009696D03*
X028212Y008550D03*
X027690Y008024D03*
X027197Y008024D03*
X026213Y009008D03*
X025721Y009008D03*
X025721Y009500D03*
X026213Y010977D03*
X029412Y007950D03*
X032052Y008550D03*
X032048Y009038D03*
X032052Y009450D03*
X033728Y010118D03*
X034812Y010110D03*
X037532Y008516D03*
X038024Y009008D03*
X039008Y009008D03*
X039993Y009008D03*
X040977Y009008D03*
X040977Y008024D03*
X039993Y008024D03*
X039656Y006560D03*
X039501Y005563D03*
X038516Y005563D03*
X037532Y005563D03*
X036548Y005563D03*
X035564Y005563D03*
X035071Y006056D03*
X035412Y006390D03*
X034579Y005563D03*
X036548Y007040D03*
X037532Y007040D03*
X037332Y007950D03*
X040485Y010485D03*
X040485Y011469D03*
X041469Y010485D03*
X042453Y011961D03*
X041961Y012453D03*
X042488Y013478D03*
X042728Y014318D03*
X042968Y015278D03*
X042848Y016838D03*
X042453Y019343D03*
X041469Y019343D03*
X040485Y019835D03*
X040485Y020819D03*
X041469Y020819D03*
X042453Y020819D03*
X043438Y020819D03*
X043438Y019835D03*
X043438Y021804D03*
X043438Y022296D03*
X042453Y022788D03*
X041469Y022788D03*
X040485Y023772D03*
X040485Y024756D03*
X041469Y024756D03*
X042453Y025741D03*
X043438Y024756D03*
X043438Y023772D03*
X043438Y027217D03*
X043438Y028693D03*
X042453Y028693D03*
X042453Y029678D03*
X042945Y030662D03*
X042945Y031646D03*
X043438Y032138D03*
X043438Y033122D03*
X043930Y034107D03*
X043930Y035091D03*
X043930Y036075D03*
X043930Y037059D03*
X043930Y038044D03*
X043930Y039028D03*
X042945Y039028D03*
X039788Y037035D03*
X040317Y036267D03*
X040977Y034107D03*
X041469Y034107D03*
X041469Y033122D03*
X040977Y033122D03*
X039501Y032630D03*
X039008Y032630D03*
X039008Y033615D03*
X035564Y034599D03*
X035564Y035583D03*
X034579Y035583D03*
X033595Y035583D03*
X032611Y035583D03*
X033103Y034599D03*
X033595Y033615D03*
X032611Y033615D03*
X031627Y033615D03*
X031627Y032570D03*
X032611Y032570D03*
X033595Y032570D03*
X034579Y033615D03*
X032611Y031646D03*
X031627Y031646D03*
X031627Y030662D03*
X032892Y030270D03*
X033548Y030278D03*
X034579Y030662D03*
X035564Y030662D03*
X036548Y029678D03*
X039008Y029185D03*
X039501Y028693D03*
X039993Y029185D03*
X040977Y029185D03*
X039993Y030170D03*
X036128Y027518D03*
X035292Y027870D03*
X035292Y026850D03*
X033552Y027510D03*
X032528Y028298D03*
X032228Y026858D03*
X032292Y026430D03*
X032708Y026318D03*
X033492Y024690D03*
X034332Y024690D03*
X036056Y023772D03*
X036548Y024756D03*
X037532Y024756D03*
X038516Y024756D03*
X038516Y023772D03*
X039501Y023772D03*
X039501Y024756D03*
X039501Y025741D03*
X039501Y026725D03*
X038516Y025741D03*
X038516Y022296D03*
X038516Y021804D03*
X037532Y021804D03*
X038516Y020819D03*
X039501Y020819D03*
X039501Y019835D03*
X039501Y015898D03*
X043930Y009993D03*
X041961Y009008D03*
X040785Y005563D03*
X041469Y005071D03*
X041469Y004087D03*
X040977Y003595D03*
X041049Y002431D03*
X041469Y001626D03*
X041961Y001626D03*
X041892Y001950D03*
X042453Y002119D03*
X042453Y001626D03*
X041961Y001134D03*
X041469Y001134D03*
X040977Y001134D03*
X040485Y001134D03*
X043438Y001134D03*
X043930Y001134D03*
X040485Y004579D03*
X038352Y004770D03*
X036732Y004110D03*
X035264Y002983D03*
X030852Y010840D03*
X030852Y011300D03*
X031212Y013950D03*
X030150Y023772D03*
X030150Y024264D03*
X030642Y024264D03*
X031134Y024264D03*
X031627Y024264D03*
X030132Y025350D03*
X030788Y028538D03*
X029166Y029185D03*
X024737Y027709D03*
X023753Y027709D03*
X023753Y030170D03*
X022932Y030270D03*
X022768Y032630D03*
X021784Y032630D03*
X021784Y033615D03*
X022768Y033615D03*
X023753Y033615D03*
X023753Y032630D03*
X023753Y034599D03*
X023753Y035583D03*
X022768Y035583D03*
X021784Y035583D03*
X021252Y035670D03*
X021784Y034599D03*
X025812Y034950D03*
X026705Y037552D03*
X027690Y037552D03*
X027690Y038536D03*
X028674Y038536D03*
X029658Y037552D03*
X030642Y037552D03*
X031627Y036567D03*
X032119Y037059D03*
X033595Y036567D03*
X034579Y036567D03*
X035564Y036567D03*
X035564Y037552D03*
X036056Y038536D03*
X035564Y039028D03*
X034579Y039028D03*
X033103Y038536D03*
X031627Y039028D03*
X030132Y036448D03*
X029658Y036075D03*
X026705Y038536D03*
X019816Y039028D03*
X019323Y039028D03*
X018831Y039028D03*
X018339Y039028D03*
X037040Y038536D03*
X037532Y039028D03*
X013812Y015570D03*
X012926Y013930D03*
X006528Y014914D03*
X005652Y015870D03*
X008292Y003390D03*
X008497Y001626D03*
X009481Y001626D03*
X009481Y000642D03*
X008497Y000642D03*
X006528Y000642D03*
X005544Y000642D03*
X010957Y001134D03*
X011942Y001134D03*
X011352Y002250D03*
X014894Y001674D03*
X015879Y001674D03*
X014894Y000642D03*
D18*
X005220Y000318D02*
X005220Y039352D01*
X020482Y039352D01*
X020482Y036249D01*
X020511Y036220D01*
X025232Y036220D01*
X025262Y036249D01*
X025262Y039352D01*
X025442Y039352D01*
X025442Y035856D01*
X025802Y035496D01*
X025802Y035178D01*
X025717Y035178D01*
X025648Y035109D01*
X018235Y035109D01*
X018166Y035178D01*
X017977Y035178D01*
X017844Y035044D01*
X017844Y034856D01*
X017977Y034722D01*
X018166Y034722D01*
X018235Y034791D01*
X025648Y034791D01*
X025717Y034722D01*
X025802Y034722D01*
X025802Y034416D01*
X026522Y033696D01*
X026522Y030216D01*
X026878Y029860D01*
X026197Y029179D01*
X019307Y029179D01*
X016621Y031865D01*
X016487Y031999D01*
X007177Y031999D01*
X006557Y031379D01*
X006423Y031245D01*
X006423Y030868D01*
X006323Y030768D01*
X006264Y030626D01*
X006264Y029914D01*
X006323Y029772D01*
X006432Y029663D01*
X006575Y029603D01*
X006729Y029603D01*
X006871Y029663D01*
X006981Y029772D01*
X007040Y029914D01*
X007040Y030626D01*
X006981Y030768D01*
X006881Y030868D01*
X006881Y031055D01*
X007367Y031541D01*
X016297Y031541D01*
X018983Y028855D01*
X019117Y028721D01*
X026387Y028721D01*
X027202Y029536D01*
X028322Y028416D01*
X028322Y023256D01*
X029762Y021816D01*
X029838Y021740D01*
X036078Y021740D01*
X039002Y018816D01*
X039078Y018740D01*
X044254Y018740D01*
X044254Y018115D01*
X044239Y018150D01*
X044130Y018259D01*
X043988Y018318D01*
X043276Y018318D01*
X043133Y018259D01*
X043024Y018150D01*
X042965Y018007D01*
X042965Y017853D01*
X043024Y017710D01*
X043133Y017601D01*
X043276Y017542D01*
X043988Y017542D01*
X044130Y017601D01*
X044239Y017710D01*
X044254Y017745D01*
X044254Y017115D01*
X044239Y017150D01*
X044130Y017259D01*
X043988Y017318D01*
X043276Y017318D01*
X043133Y017259D01*
X043024Y017150D01*
X042965Y017007D01*
X042965Y016853D01*
X043024Y016710D01*
X043133Y016601D01*
X043276Y016542D01*
X043988Y016542D01*
X044130Y016601D01*
X044239Y016710D01*
X044254Y016745D01*
X044254Y016115D01*
X044239Y016150D01*
X044130Y016259D01*
X043988Y016318D01*
X043276Y016318D01*
X043133Y016259D01*
X043024Y016150D01*
X042965Y016007D01*
X042965Y015853D01*
X043024Y015710D01*
X043133Y015601D01*
X043276Y015542D01*
X043988Y015542D01*
X044130Y015601D01*
X044239Y015710D01*
X044254Y015745D01*
X044254Y015115D01*
X044239Y015150D01*
X044130Y015259D01*
X043988Y015318D01*
X043276Y015318D01*
X043133Y015259D01*
X043024Y015150D01*
X042965Y015007D01*
X042965Y014853D01*
X043024Y014710D01*
X043133Y014601D01*
X043276Y014542D01*
X043988Y014542D01*
X044130Y014601D01*
X044239Y014710D01*
X044254Y014745D01*
X044254Y014115D01*
X044239Y014150D01*
X044130Y014259D01*
X043988Y014318D01*
X043276Y014318D01*
X043133Y014259D01*
X043024Y014150D01*
X042965Y014007D01*
X042965Y013853D01*
X043024Y013710D01*
X043133Y013601D01*
X043276Y013542D01*
X043988Y013542D01*
X044130Y013601D01*
X044239Y013710D01*
X044254Y013745D01*
X044254Y013115D01*
X044239Y013150D01*
X044130Y013259D01*
X043988Y013318D01*
X043276Y013318D01*
X043133Y013259D01*
X043024Y013150D01*
X042965Y013007D01*
X042965Y012853D01*
X043024Y012710D01*
X043133Y012601D01*
X043276Y012542D01*
X043988Y012542D01*
X044130Y012601D01*
X044239Y012710D01*
X044254Y012745D01*
X044254Y012151D01*
X044221Y012195D01*
X044176Y012241D01*
X044124Y012279D01*
X044067Y012308D01*
X044006Y012327D01*
X043943Y012337D01*
X043682Y012337D01*
X043682Y011980D01*
X043582Y011980D01*
X043582Y012337D01*
X043321Y012337D01*
X043258Y012327D01*
X043197Y012308D01*
X043139Y012279D01*
X043088Y012241D01*
X043042Y012195D01*
X043005Y012144D01*
X042975Y012086D01*
X042956Y012025D01*
X042948Y011980D01*
X043582Y011980D01*
X043582Y011880D01*
X043682Y011880D01*
X043682Y011523D01*
X043943Y011523D01*
X044006Y011533D01*
X044067Y011552D01*
X044124Y011581D01*
X044176Y011619D01*
X044221Y011665D01*
X044254Y011709D01*
X044254Y011115D01*
X044239Y011150D01*
X044130Y011259D01*
X043988Y011318D01*
X043276Y011318D01*
X043133Y011259D01*
X043024Y011150D01*
X042965Y011007D01*
X042965Y010853D01*
X043024Y010710D01*
X043133Y010601D01*
X043276Y010542D01*
X043988Y010542D01*
X044130Y010601D01*
X044239Y010710D01*
X044254Y010745D01*
X044254Y009235D01*
X044239Y009270D01*
X044130Y009379D01*
X043988Y009438D01*
X043276Y009438D01*
X043133Y009379D01*
X043024Y009270D01*
X042965Y009127D01*
X042965Y008973D01*
X043024Y008830D01*
X043106Y008749D01*
X035866Y001509D01*
X031386Y001509D01*
X031293Y001416D01*
X030906Y001029D01*
X029358Y001029D01*
X028818Y001569D01*
X025195Y001569D01*
X025126Y001638D01*
X024937Y001638D01*
X024804Y001504D01*
X024804Y001316D01*
X024937Y001182D01*
X025126Y001182D01*
X025195Y001251D01*
X028686Y001251D01*
X029133Y000804D01*
X029226Y000711D01*
X031038Y000711D01*
X031518Y001191D01*
X035998Y001191D01*
X036091Y001284D01*
X042987Y008181D01*
X042965Y008127D01*
X042965Y007973D01*
X043024Y007830D01*
X043106Y007749D01*
X041733Y006376D01*
X041733Y002114D01*
X041664Y002044D01*
X041664Y001856D01*
X041797Y001722D01*
X041986Y001722D01*
X042120Y001856D01*
X042120Y002044D01*
X042051Y002114D01*
X042051Y006244D01*
X042987Y007181D01*
X042965Y007127D01*
X042965Y006973D01*
X043024Y006830D01*
X043133Y006721D01*
X043276Y006662D01*
X043988Y006662D01*
X044130Y006721D01*
X044239Y006830D01*
X044254Y006865D01*
X044254Y006235D01*
X044239Y006270D01*
X044130Y006379D01*
X043988Y006438D01*
X043276Y006438D01*
X043133Y006379D01*
X043024Y006270D01*
X042965Y006127D01*
X042965Y005973D01*
X043024Y005830D01*
X043133Y005721D01*
X043276Y005662D01*
X043988Y005662D01*
X044130Y005721D01*
X044239Y005830D01*
X044254Y005865D01*
X044254Y005271D01*
X044221Y005315D01*
X044176Y005361D01*
X044124Y005399D01*
X044067Y005428D01*
X044006Y005447D01*
X043943Y005457D01*
X043682Y005457D01*
X043682Y005100D01*
X043582Y005100D01*
X043582Y005457D01*
X043321Y005457D01*
X043258Y005447D01*
X043197Y005428D01*
X043139Y005399D01*
X043088Y005361D01*
X043042Y005315D01*
X043005Y005264D01*
X042975Y005206D01*
X042956Y005145D01*
X042948Y005100D01*
X043582Y005100D01*
X043582Y005000D01*
X043682Y005000D01*
X043682Y004643D01*
X043943Y004643D01*
X044006Y004653D01*
X044067Y004672D01*
X044124Y004701D01*
X044176Y004739D01*
X044221Y004785D01*
X044254Y004829D01*
X044254Y000318D01*
X005220Y000318D01*
X005220Y000347D02*
X044254Y000347D01*
X044254Y000446D02*
X005220Y000446D01*
X005220Y000544D02*
X044254Y000544D01*
X044254Y000643D02*
X005220Y000643D01*
X005220Y000741D02*
X029196Y000741D01*
X029097Y000840D02*
X005220Y000840D01*
X005220Y000938D02*
X028999Y000938D01*
X028900Y001037D02*
X005220Y001037D01*
X005220Y001135D02*
X028802Y001135D01*
X028703Y001234D02*
X025178Y001234D01*
X025032Y001410D02*
X028752Y001410D01*
X029292Y000870D01*
X030972Y000870D01*
X031452Y001350D01*
X035932Y001350D01*
X043632Y009050D01*
X043698Y009531D02*
X043791Y009624D01*
X043791Y009756D01*
X040285Y013262D01*
X040285Y013382D01*
X040192Y013475D01*
X039840Y013827D01*
X039840Y013924D01*
X039706Y014058D01*
X039517Y014058D01*
X039384Y013924D01*
X039384Y013736D01*
X039517Y013602D01*
X039615Y013602D01*
X039967Y013250D01*
X039967Y013130D01*
X040060Y013037D01*
X043566Y009531D01*
X043698Y009531D01*
X043773Y009606D02*
X044254Y009606D01*
X044254Y009508D02*
X035034Y009508D01*
X035133Y009606D02*
X043491Y009606D01*
X043392Y009705D02*
X035231Y009705D01*
X035330Y009803D02*
X043294Y009803D01*
X043195Y009902D02*
X035428Y009902D01*
X035527Y010000D02*
X043097Y010000D01*
X042998Y010099D02*
X035625Y010099D01*
X035724Y010197D02*
X042900Y010197D01*
X042801Y010296D02*
X035822Y010296D01*
X035921Y010394D02*
X042703Y010394D01*
X042604Y010493D02*
X036019Y010493D01*
X036078Y010551D02*
X036171Y010644D01*
X036171Y010666D01*
X036240Y010736D01*
X036240Y010924D01*
X036106Y011058D01*
X035917Y011058D01*
X035784Y010924D01*
X035784Y010736D01*
X035798Y010721D01*
X034971Y009894D01*
X034971Y009946D01*
X035040Y010016D01*
X035040Y010204D01*
X034906Y010338D01*
X034717Y010338D01*
X034584Y010204D01*
X034584Y010016D01*
X034653Y009946D01*
X034653Y009936D01*
X032826Y008109D01*
X029575Y008109D01*
X029506Y008178D01*
X029317Y008178D01*
X029184Y008044D01*
X029184Y007856D01*
X029290Y007749D01*
X028638Y007749D01*
X023211Y013176D01*
X023118Y013269D01*
X016986Y013269D01*
X014946Y011229D01*
X012186Y011229D01*
X011895Y010938D01*
X011797Y010938D01*
X011664Y010804D01*
X011664Y010616D01*
X011797Y010482D01*
X011986Y010482D01*
X012120Y010616D01*
X012120Y010713D01*
X012318Y010911D01*
X015078Y010911D01*
X015171Y011004D01*
X017118Y012951D01*
X022986Y012951D01*
X028413Y007524D01*
X028428Y007509D01*
X026718Y007509D01*
X024771Y009456D01*
X024678Y009549D01*
X015198Y009549D01*
X014160Y010587D01*
X014160Y010684D01*
X014026Y010818D01*
X013837Y010818D01*
X013704Y010684D01*
X013704Y010496D01*
X013837Y010362D01*
X013935Y010362D01*
X015066Y009231D01*
X024546Y009231D01*
X024588Y009189D01*
X012438Y009189D01*
X011451Y010176D01*
X011451Y011004D01*
X014091Y013644D01*
X014091Y014964D01*
X014313Y015186D01*
X014313Y015156D01*
X014226Y015069D01*
X014226Y015069D01*
X014133Y014976D01*
X014133Y011954D01*
X014064Y011884D01*
X014064Y011696D01*
X014197Y011562D01*
X014386Y011562D01*
X014520Y011696D01*
X014520Y011884D01*
X014451Y011954D01*
X014451Y014844D01*
X014631Y015024D01*
X014631Y015996D01*
X012198Y018429D01*
X011815Y018429D01*
X011760Y018484D01*
X011571Y018484D01*
X011438Y018350D01*
X011438Y018161D01*
X011470Y018129D01*
X010238Y018129D01*
X010335Y018227D01*
X010401Y018385D01*
X010401Y018555D01*
X010335Y018713D01*
X010215Y018834D01*
X010057Y018899D01*
X009246Y018899D01*
X009089Y018834D01*
X008968Y018713D01*
X008903Y018555D01*
X008903Y018385D01*
X008968Y018227D01*
X009066Y018129D01*
X008898Y018129D01*
X008318Y018709D01*
X008335Y018727D01*
X008401Y018885D01*
X008401Y019055D01*
X008335Y019213D01*
X008215Y019334D01*
X008057Y019399D01*
X007246Y019399D01*
X007089Y019334D01*
X006968Y019213D01*
X006903Y019055D01*
X006903Y018885D01*
X006968Y018727D01*
X007089Y018606D01*
X007246Y018541D01*
X008036Y018541D01*
X008673Y017904D01*
X008766Y017811D01*
X009066Y017811D01*
X008968Y017713D01*
X008903Y017555D01*
X008903Y017385D01*
X008968Y017227D01*
X009089Y017106D01*
X009246Y017041D01*
X010057Y017041D01*
X010215Y017106D01*
X010335Y017227D01*
X010401Y017385D01*
X010401Y017555D01*
X010335Y017713D01*
X010238Y017811D01*
X012006Y017811D01*
X014073Y015744D01*
X014073Y015396D01*
X013773Y015096D01*
X013773Y013776D01*
X011226Y011229D01*
X011133Y011136D01*
X011133Y010044D01*
X012213Y008964D01*
X012306Y008871D01*
X024546Y008871D01*
X026373Y007044D01*
X026466Y006951D01*
X031930Y006951D01*
X031824Y006844D01*
X031824Y006664D01*
X031717Y006558D01*
X031537Y006558D01*
X031404Y006424D01*
X031404Y006236D01*
X031473Y006166D01*
X031473Y004814D01*
X031404Y004744D01*
X031404Y004556D01*
X031537Y004422D01*
X031726Y004422D01*
X031773Y004468D01*
X031773Y003974D01*
X031704Y003904D01*
X031704Y003716D01*
X031837Y003582D01*
X032026Y003582D01*
X032073Y003628D01*
X032073Y003516D01*
X030624Y002068D01*
X030037Y001578D01*
X029917Y001578D01*
X029784Y001444D01*
X029784Y001256D01*
X029917Y001122D01*
X030106Y001122D01*
X030240Y001256D01*
X030240Y001333D01*
X030789Y001791D01*
X030798Y001791D01*
X030839Y001832D01*
X030884Y001870D01*
X030885Y001878D01*
X032298Y003291D01*
X032391Y003384D01*
X032391Y006636D01*
X032298Y006729D01*
X032298Y006729D01*
X032280Y006747D01*
X032280Y006844D01*
X032173Y006951D01*
X033448Y006951D01*
X033517Y006882D01*
X033706Y006882D01*
X033840Y007016D01*
X033840Y007159D01*
X033877Y007122D01*
X034066Y007122D01*
X034200Y007256D01*
X034200Y007377D01*
X035133Y006444D01*
X035184Y006393D01*
X035184Y006296D01*
X035317Y006162D01*
X035506Y006162D01*
X035640Y006296D01*
X035640Y006484D01*
X035506Y006618D01*
X035409Y006618D01*
X035358Y006669D01*
X034080Y007947D01*
X034080Y008044D01*
X033946Y008178D01*
X033757Y008178D01*
X033624Y008044D01*
X033624Y007856D01*
X033757Y007722D01*
X033855Y007722D01*
X033999Y007578D01*
X033877Y007578D01*
X033808Y007509D01*
X033036Y007509D01*
X036078Y010551D01*
X036118Y010591D02*
X042506Y010591D01*
X042407Y010690D02*
X036194Y010690D01*
X036240Y010788D02*
X042309Y010788D01*
X042210Y010887D02*
X036240Y010887D01*
X036179Y010985D02*
X042112Y010985D01*
X042013Y011084D02*
X031011Y011084D01*
X031011Y011136D01*
X031080Y011205D01*
X031080Y011394D01*
X030946Y011528D01*
X030757Y011528D01*
X030624Y011394D01*
X030624Y011309D01*
X029433Y011309D01*
X028324Y010200D01*
X028252Y010272D01*
X028063Y010272D01*
X027930Y010138D01*
X027930Y009949D01*
X028063Y009816D01*
X028161Y009816D01*
X028210Y009767D01*
X028229Y009767D01*
X028229Y009748D01*
X028278Y009699D01*
X028278Y009602D01*
X028411Y009468D01*
X028600Y009468D01*
X028734Y009602D01*
X028734Y009791D01*
X028662Y009863D01*
X029631Y010831D01*
X030624Y010831D01*
X030624Y010746D01*
X030757Y010612D01*
X030946Y010612D01*
X031080Y010746D01*
X031080Y010935D01*
X031011Y011004D01*
X031011Y011056D01*
X030997Y011070D01*
X031011Y011084D01*
X031030Y010985D02*
X035844Y010985D01*
X035784Y010887D02*
X031080Y010887D01*
X031080Y010788D02*
X035784Y010788D01*
X035766Y010690D02*
X031023Y010690D01*
X030852Y010840D02*
X030852Y010990D01*
X029565Y010990D01*
X028388Y009814D01*
X028506Y009696D01*
X028734Y009705D02*
X034421Y009705D01*
X034520Y009803D02*
X028721Y009803D01*
X028701Y009902D02*
X034618Y009902D01*
X034599Y010000D02*
X028799Y010000D01*
X028898Y010099D02*
X034584Y010099D01*
X034584Y010197D02*
X028996Y010197D01*
X029095Y010296D02*
X034675Y010296D01*
X034812Y010110D02*
X034812Y009870D01*
X032892Y007950D01*
X029412Y007950D01*
X029184Y007932D02*
X028455Y007932D01*
X028357Y008030D02*
X029184Y008030D01*
X029268Y008129D02*
X028258Y008129D01*
X028160Y008227D02*
X032944Y008227D01*
X033042Y008326D02*
X032150Y008326D01*
X032146Y008322D02*
X032280Y008456D01*
X032280Y008644D01*
X032146Y008778D01*
X031957Y008778D01*
X031888Y008709D01*
X031536Y008709D01*
X032049Y009222D01*
X032146Y009222D01*
X032280Y009356D01*
X032280Y009544D01*
X032146Y009678D01*
X031957Y009678D01*
X031824Y009544D01*
X031824Y009447D01*
X031326Y008949D01*
X028758Y008949D01*
X027291Y010416D01*
X027291Y011286D01*
X027933Y010644D01*
X028026Y010551D01*
X028518Y010551D01*
X028851Y010884D01*
X028851Y011266D01*
X028920Y011336D01*
X028920Y011524D01*
X028786Y011658D01*
X028597Y011658D01*
X028491Y011552D01*
X028491Y016536D01*
X028371Y016656D01*
X028278Y016749D01*
X028135Y016749D01*
X028066Y016818D01*
X027877Y016818D01*
X027744Y016684D01*
X027744Y016496D01*
X027877Y016362D01*
X028066Y016362D01*
X028135Y016431D01*
X028146Y016431D01*
X028173Y016404D01*
X028173Y011676D01*
X028155Y011658D01*
X028057Y011658D01*
X027924Y011524D01*
X027924Y011336D01*
X028057Y011202D01*
X028246Y011202D01*
X028380Y011336D01*
X028380Y011433D01*
X028398Y011451D01*
X028464Y011517D01*
X028464Y011336D01*
X028533Y011266D01*
X028533Y011016D01*
X028386Y010869D01*
X028158Y010869D01*
X027531Y011496D01*
X027531Y016426D01*
X027600Y016496D01*
X027600Y016593D01*
X028491Y017484D01*
X028491Y018924D01*
X028809Y019242D01*
X028906Y019242D01*
X029040Y019376D01*
X029040Y019564D01*
X028906Y019698D01*
X028717Y019698D01*
X028584Y019564D01*
X028584Y019467D01*
X028266Y019149D01*
X028173Y019056D01*
X028173Y017616D01*
X027375Y016818D01*
X027291Y016818D01*
X027291Y022296D01*
X027198Y022389D01*
X026811Y022776D01*
X026811Y026016D01*
X026718Y026109D01*
X026091Y026736D01*
X026091Y027706D01*
X026160Y027776D01*
X026160Y027964D01*
X026026Y028098D01*
X025837Y028098D01*
X025731Y027992D01*
X025731Y028164D01*
X025809Y028242D01*
X025906Y028242D01*
X026040Y028376D01*
X026040Y028564D01*
X025906Y028698D01*
X025717Y028698D01*
X025584Y028564D01*
X025584Y028467D01*
X025413Y028296D01*
X025413Y026604D01*
X025506Y026511D01*
X026253Y025764D01*
X026253Y022524D01*
X026346Y022431D01*
X026733Y022044D01*
X026733Y021812D01*
X026626Y021918D01*
X026437Y021918D01*
X026368Y021849D01*
X023875Y021849D01*
X023806Y021918D01*
X023617Y021918D01*
X023484Y021784D01*
X023484Y021596D01*
X023617Y021462D01*
X023806Y021462D01*
X023875Y021531D01*
X026368Y021531D01*
X026437Y021462D01*
X026626Y021462D01*
X026733Y021568D01*
X026733Y010254D01*
X023238Y013749D01*
X016855Y013749D01*
X016786Y013818D01*
X016597Y013818D01*
X016464Y013684D01*
X016464Y013496D01*
X016597Y013362D01*
X016786Y013362D01*
X016855Y013431D01*
X023106Y013431D01*
X027984Y008553D01*
X027984Y008456D01*
X028117Y008322D01*
X028306Y008322D01*
X028440Y008456D01*
X028440Y008457D01*
X028506Y008391D01*
X031888Y008391D01*
X031957Y008322D01*
X032146Y008322D01*
X032248Y008424D02*
X033141Y008424D01*
X033239Y008523D02*
X032280Y008523D01*
X032280Y008621D02*
X033338Y008621D01*
X033436Y008720D02*
X032205Y008720D01*
X032052Y008550D02*
X028572Y008550D01*
X026892Y010230D01*
X026892Y022110D01*
X026412Y022590D01*
X026412Y025830D01*
X025572Y026670D01*
X025572Y028230D01*
X025812Y028470D01*
X025985Y028321D02*
X028322Y028321D01*
X028322Y028223D02*
X025789Y028223D01*
X025731Y028124D02*
X028322Y028124D01*
X028322Y028026D02*
X026099Y028026D01*
X026160Y027927D02*
X028322Y027927D01*
X028322Y027829D02*
X026160Y027829D01*
X026114Y027730D02*
X028322Y027730D01*
X028322Y027632D02*
X026091Y027632D01*
X026091Y027533D02*
X028322Y027533D01*
X028322Y027435D02*
X026091Y027435D01*
X026091Y027336D02*
X028322Y027336D01*
X028322Y027238D02*
X026091Y027238D01*
X026091Y027139D02*
X028322Y027139D01*
X028322Y027041D02*
X026091Y027041D01*
X026091Y026942D02*
X028322Y026942D01*
X028322Y026844D02*
X026091Y026844D01*
X026091Y026745D02*
X028322Y026745D01*
X028322Y026647D02*
X026180Y026647D01*
X026279Y026548D02*
X028322Y026548D01*
X028322Y026450D02*
X026377Y026450D01*
X026476Y026351D02*
X028322Y026351D01*
X028322Y026253D02*
X026574Y026253D01*
X026673Y026154D02*
X028322Y026154D01*
X028322Y026056D02*
X026771Y026056D01*
X026811Y025957D02*
X028322Y025957D01*
X028322Y025859D02*
X026811Y025859D01*
X026811Y025760D02*
X028322Y025760D01*
X028322Y025662D02*
X026811Y025662D01*
X026811Y025563D02*
X028322Y025563D01*
X028322Y025465D02*
X026811Y025465D01*
X026811Y025366D02*
X028322Y025366D01*
X028322Y025268D02*
X026811Y025268D01*
X026811Y025169D02*
X028322Y025169D01*
X028322Y025071D02*
X026811Y025071D01*
X026811Y024972D02*
X028322Y024972D01*
X028322Y024874D02*
X026811Y024874D01*
X026811Y024775D02*
X028322Y024775D01*
X028322Y024677D02*
X026811Y024677D01*
X026811Y024578D02*
X028322Y024578D01*
X028322Y024480D02*
X026811Y024480D01*
X026811Y024381D02*
X028322Y024381D01*
X028322Y024283D02*
X026811Y024283D01*
X026811Y024184D02*
X028322Y024184D01*
X028322Y024086D02*
X026811Y024086D01*
X026811Y023987D02*
X028322Y023987D01*
X028322Y023889D02*
X026811Y023889D01*
X026811Y023790D02*
X028322Y023790D01*
X028322Y023692D02*
X026811Y023692D01*
X026811Y023593D02*
X028322Y023593D01*
X028322Y023495D02*
X026811Y023495D01*
X026811Y023396D02*
X028322Y023396D01*
X028322Y023298D02*
X026811Y023298D01*
X026811Y023199D02*
X028379Y023199D01*
X028477Y023101D02*
X026811Y023101D01*
X026811Y023002D02*
X028576Y023002D01*
X028674Y022904D02*
X026811Y022904D01*
X026811Y022805D02*
X028773Y022805D01*
X028871Y022707D02*
X026880Y022707D01*
X026979Y022608D02*
X028970Y022608D01*
X029068Y022510D02*
X027077Y022510D01*
X027176Y022411D02*
X029167Y022411D01*
X029265Y022313D02*
X027274Y022313D01*
X027291Y022214D02*
X029364Y022214D01*
X029462Y022116D02*
X027291Y022116D01*
X027291Y022017D02*
X029561Y022017D01*
X029659Y021919D02*
X027291Y021919D01*
X027291Y021820D02*
X029758Y021820D01*
X029946Y022000D02*
X028582Y023364D01*
X028582Y028524D01*
X028506Y028600D01*
X027386Y029720D01*
X030227Y032561D01*
X030361Y032695D01*
X030361Y036543D01*
X030227Y036677D01*
X030037Y036677D01*
X029903Y036543D01*
X029903Y032885D01*
X027062Y030044D01*
X026782Y030324D01*
X026782Y033804D01*
X026706Y033880D01*
X026062Y034524D01*
X026062Y035604D01*
X025986Y035680D01*
X025702Y035964D01*
X025702Y039352D01*
X044254Y039352D01*
X044254Y019000D01*
X039186Y019000D01*
X036186Y022000D01*
X029946Y022000D01*
X029929Y022017D02*
X039520Y022017D01*
X039510Y022041D02*
X039563Y021914D01*
X039660Y021817D01*
X039787Y021765D01*
X040397Y021765D01*
X040524Y021817D01*
X040621Y021914D01*
X040673Y022041D01*
X040673Y022179D01*
X040621Y022306D01*
X040524Y022403D01*
X040397Y022455D01*
X039787Y022455D01*
X039660Y022403D01*
X039563Y022306D01*
X039510Y022179D01*
X039510Y022041D01*
X039510Y022116D02*
X029830Y022116D01*
X029732Y022214D02*
X039525Y022214D01*
X039570Y022313D02*
X029633Y022313D01*
X029535Y022411D02*
X039680Y022411D01*
X039749Y022759D02*
X039820Y022745D01*
X040063Y022745D01*
X040063Y023081D01*
X040120Y023081D01*
X040120Y022745D01*
X040364Y022745D01*
X040434Y022759D01*
X040501Y022787D01*
X040561Y022827D01*
X040611Y022877D01*
X040651Y022937D01*
X040679Y023004D01*
X040693Y023074D01*
X040693Y023081D01*
X040121Y023081D01*
X040121Y023139D01*
X040693Y023139D01*
X040693Y023146D01*
X040679Y023216D01*
X040651Y023283D01*
X040611Y023343D01*
X040561Y023393D01*
X040501Y023433D01*
X040434Y023461D01*
X040364Y023475D01*
X040120Y023475D01*
X040120Y023139D01*
X040063Y023139D01*
X040063Y023475D01*
X039820Y023475D01*
X039749Y023461D01*
X039683Y023433D01*
X039623Y023393D01*
X039572Y023343D01*
X039532Y023283D01*
X039505Y023216D01*
X039491Y023146D01*
X039491Y023139D01*
X040063Y023139D01*
X040063Y023081D01*
X039491Y023081D01*
X039491Y023074D01*
X039505Y023004D01*
X039532Y022937D01*
X039572Y022877D01*
X039623Y022827D01*
X039683Y022787D01*
X039749Y022759D01*
X039655Y022805D02*
X029141Y022805D01*
X029239Y022707D02*
X044254Y022707D01*
X044254Y022805D02*
X040529Y022805D01*
X040629Y022904D02*
X044254Y022904D01*
X044254Y023002D02*
X040678Y023002D01*
X040682Y023199D02*
X044254Y023199D01*
X044254Y023101D02*
X040121Y023101D01*
X040063Y023101D02*
X028845Y023101D01*
X028747Y023199D02*
X039501Y023199D01*
X039542Y023298D02*
X028648Y023298D01*
X028582Y023396D02*
X039627Y023396D01*
X039505Y023002D02*
X028944Y023002D01*
X029042Y022904D02*
X039555Y022904D01*
X040063Y022904D02*
X040120Y022904D01*
X040120Y023002D02*
X040063Y023002D01*
X040063Y022805D02*
X040120Y022805D01*
X040120Y023199D02*
X040063Y023199D01*
X040063Y023298D02*
X040120Y023298D01*
X040120Y023396D02*
X040063Y023396D01*
X040557Y023396D02*
X044254Y023396D01*
X044254Y023298D02*
X040642Y023298D01*
X041565Y023758D02*
X041740Y023584D01*
X041968Y023489D01*
X042215Y023489D01*
X042443Y023584D01*
X042618Y023758D01*
X042713Y023987D01*
X044254Y023987D01*
X044254Y023889D02*
X042672Y023889D01*
X042713Y023987D02*
X042713Y024233D01*
X042618Y024462D01*
X042443Y024636D01*
X042215Y024731D01*
X041968Y024731D01*
X041740Y024636D01*
X041565Y024462D01*
X041471Y024233D01*
X041471Y023987D01*
X028582Y023987D01*
X028582Y023889D02*
X041511Y023889D01*
X041471Y023987D02*
X041565Y023758D01*
X041552Y023790D02*
X028582Y023790D01*
X028582Y023692D02*
X041632Y023692D01*
X041731Y023593D02*
X028582Y023593D01*
X028582Y023495D02*
X041955Y023495D01*
X042228Y023495D02*
X044254Y023495D01*
X044254Y023593D02*
X042453Y023593D01*
X042551Y023692D02*
X044254Y023692D01*
X044254Y023790D02*
X042631Y023790D01*
X042713Y024086D02*
X044254Y024086D01*
X044254Y024184D02*
X042713Y024184D01*
X042692Y024283D02*
X044254Y024283D01*
X044254Y024381D02*
X042651Y024381D01*
X042600Y024480D02*
X044254Y024480D01*
X044254Y024578D02*
X042502Y024578D01*
X042346Y024677D02*
X044254Y024677D01*
X044254Y024775D02*
X028582Y024775D01*
X028582Y024677D02*
X041837Y024677D01*
X041682Y024578D02*
X028582Y024578D01*
X028582Y024480D02*
X041583Y024480D01*
X041532Y024381D02*
X028582Y024381D01*
X028582Y024283D02*
X041491Y024283D01*
X041471Y024184D02*
X028582Y024184D01*
X028582Y024086D02*
X041471Y024086D01*
X040503Y022411D02*
X044254Y022411D01*
X044254Y022313D02*
X040614Y022313D01*
X040659Y022214D02*
X044254Y022214D01*
X044254Y022116D02*
X040673Y022116D01*
X040663Y022017D02*
X044254Y022017D01*
X044254Y021919D02*
X040622Y021919D01*
X040526Y021820D02*
X044254Y021820D01*
X044254Y021722D02*
X036464Y021722D01*
X036366Y021820D02*
X039657Y021820D01*
X039561Y021919D02*
X036267Y021919D01*
X036096Y021722D02*
X027291Y021722D01*
X027291Y021623D02*
X036195Y021623D01*
X036293Y021525D02*
X027291Y021525D01*
X027291Y021426D02*
X036392Y021426D01*
X036490Y021328D02*
X027291Y021328D01*
X027291Y021229D02*
X036589Y021229D01*
X036687Y021131D02*
X027291Y021131D01*
X027291Y021032D02*
X036786Y021032D01*
X036884Y020934D02*
X027291Y020934D01*
X027291Y020835D02*
X036983Y020835D01*
X037081Y020737D02*
X027291Y020737D01*
X027291Y020638D02*
X037180Y020638D01*
X037278Y020540D02*
X027291Y020540D01*
X027291Y020441D02*
X037377Y020441D01*
X037475Y020343D02*
X027291Y020343D01*
X027291Y020244D02*
X037574Y020244D01*
X037672Y020146D02*
X027291Y020146D01*
X027291Y020047D02*
X037771Y020047D01*
X037869Y019949D02*
X027291Y019949D01*
X027291Y019850D02*
X037968Y019850D01*
X038066Y019752D02*
X027291Y019752D01*
X027291Y019653D02*
X028672Y019653D01*
X028584Y019555D02*
X027291Y019555D01*
X027291Y019456D02*
X028573Y019456D01*
X028474Y019358D02*
X027291Y019358D01*
X027291Y019259D02*
X028376Y019259D01*
X028277Y019161D02*
X027291Y019161D01*
X027291Y019062D02*
X028179Y019062D01*
X028173Y018964D02*
X027291Y018964D01*
X027291Y018865D02*
X028173Y018865D01*
X028173Y018767D02*
X027291Y018767D01*
X027291Y018668D02*
X028173Y018668D01*
X028173Y018570D02*
X027291Y018570D01*
X027291Y018471D02*
X028173Y018471D01*
X028173Y018373D02*
X027291Y018373D01*
X027291Y018274D02*
X028173Y018274D01*
X028173Y018176D02*
X027291Y018176D01*
X027291Y018077D02*
X028173Y018077D01*
X028173Y017979D02*
X027291Y017979D01*
X027291Y017880D02*
X028173Y017880D01*
X028173Y017782D02*
X027291Y017782D01*
X027291Y017683D02*
X028173Y017683D01*
X028141Y017585D02*
X027291Y017585D01*
X027291Y017486D02*
X028043Y017486D01*
X027944Y017388D02*
X027291Y017388D01*
X027291Y017289D02*
X027846Y017289D01*
X027747Y017191D02*
X027291Y017191D01*
X027291Y017092D02*
X027649Y017092D01*
X027550Y016994D02*
X027291Y016994D01*
X027291Y016895D02*
X027452Y016895D01*
X027372Y016590D02*
X028332Y017550D01*
X028332Y018990D01*
X028812Y019470D01*
X029040Y019456D02*
X038362Y019456D01*
X038460Y019358D02*
X029022Y019358D01*
X028923Y019259D02*
X038559Y019259D01*
X038657Y019161D02*
X029204Y019161D01*
X029146Y019218D02*
X028957Y019218D01*
X028824Y019084D01*
X028824Y018896D01*
X028893Y018826D01*
X028893Y017714D01*
X028824Y017644D01*
X028824Y017456D01*
X028893Y017386D01*
X028893Y017244D01*
X028986Y017151D01*
X030573Y015564D01*
X030666Y015471D01*
X031648Y015471D01*
X031717Y015402D01*
X031906Y015402D01*
X032040Y015536D01*
X032040Y015724D01*
X031906Y015858D01*
X031717Y015858D01*
X031648Y015789D01*
X030798Y015789D01*
X029211Y017376D01*
X029211Y017386D01*
X029280Y017456D01*
X029280Y017457D01*
X029484Y017253D01*
X029484Y017156D01*
X029617Y017022D01*
X029715Y017022D01*
X030093Y016644D01*
X030186Y016551D01*
X031944Y016551D01*
X031944Y016496D01*
X032077Y016362D01*
X032266Y016362D01*
X032400Y016496D01*
X032400Y016684D01*
X032266Y016818D01*
X032169Y016818D01*
X032118Y016869D01*
X030318Y016869D01*
X029940Y017247D01*
X029940Y017277D01*
X030186Y017031D01*
X032128Y017031D01*
X032197Y016962D01*
X032386Y016962D01*
X032520Y017096D01*
X032520Y017284D01*
X032386Y017418D01*
X032197Y017418D01*
X032128Y017349D01*
X030318Y017349D01*
X029940Y017727D01*
X029940Y017764D01*
X029806Y017898D01*
X029617Y017898D01*
X029571Y017852D01*
X029571Y018346D01*
X029640Y018416D01*
X029640Y018604D01*
X029506Y018738D01*
X029317Y018738D01*
X029211Y018632D01*
X029211Y018826D01*
X029280Y018896D01*
X029280Y019084D01*
X029146Y019218D01*
X029280Y019062D02*
X038756Y019062D01*
X038854Y018964D02*
X029280Y018964D01*
X029249Y018865D02*
X038953Y018865D01*
X039051Y018767D02*
X029211Y018767D01*
X029211Y018668D02*
X029247Y018668D01*
X029412Y018510D02*
X029412Y017550D01*
X029712Y017250D01*
X030252Y016710D01*
X032052Y016710D01*
X032172Y016590D01*
X032400Y016600D02*
X043137Y016600D01*
X043037Y016698D02*
X032386Y016698D01*
X032288Y016797D02*
X042989Y016797D01*
X042965Y016895D02*
X030292Y016895D01*
X030193Y016994D02*
X032166Y016994D01*
X032292Y017190D02*
X030252Y017190D01*
X029772Y017670D01*
X029712Y017670D01*
X029824Y017880D02*
X029904Y017880D01*
X029904Y017816D02*
X030037Y017682D01*
X030226Y017682D01*
X030295Y017751D01*
X032184Y017751D01*
X032184Y017696D01*
X032317Y017562D01*
X032506Y017562D01*
X032640Y017696D01*
X032640Y017884D01*
X032506Y018018D01*
X032409Y018018D01*
X032358Y018069D01*
X030295Y018069D01*
X030226Y018138D01*
X030037Y018138D01*
X029904Y018004D01*
X029904Y017816D01*
X029923Y017782D02*
X029938Y017782D01*
X029984Y017683D02*
X030036Y017683D01*
X030082Y017585D02*
X032295Y017585D01*
X032196Y017683D02*
X030227Y017683D01*
X030181Y017486D02*
X044254Y017486D01*
X044254Y017388D02*
X032417Y017388D01*
X032515Y017289D02*
X043206Y017289D01*
X043065Y017191D02*
X032520Y017191D01*
X032516Y017092D02*
X043000Y017092D01*
X042965Y016994D02*
X032418Y016994D01*
X032167Y017388D02*
X030279Y017388D01*
X030026Y017191D02*
X029996Y017191D01*
X030095Y017092D02*
X030125Y017092D01*
X029842Y016895D02*
X029692Y016895D01*
X029743Y016994D02*
X029593Y016994D01*
X029547Y017092D02*
X029495Y017092D01*
X029484Y017191D02*
X029396Y017191D01*
X029448Y017289D02*
X029298Y017289D01*
X029349Y017388D02*
X029212Y017388D01*
X029052Y017310D02*
X029052Y017550D01*
X029052Y018990D01*
X028900Y019161D02*
X028727Y019161D01*
X028824Y019062D02*
X028629Y019062D01*
X028530Y018964D02*
X028824Y018964D01*
X028854Y018865D02*
X028491Y018865D01*
X028491Y018767D02*
X028893Y018767D01*
X028893Y018668D02*
X028491Y018668D01*
X028491Y018570D02*
X028893Y018570D01*
X028893Y018471D02*
X028491Y018471D01*
X028491Y018373D02*
X028893Y018373D01*
X028893Y018274D02*
X028491Y018274D01*
X028491Y018176D02*
X028893Y018176D01*
X028893Y018077D02*
X028491Y018077D01*
X028491Y017979D02*
X028893Y017979D01*
X028893Y017880D02*
X028491Y017880D01*
X028491Y017782D02*
X028893Y017782D01*
X028862Y017683D02*
X028491Y017683D01*
X028491Y017585D02*
X028824Y017585D01*
X028824Y017486D02*
X028491Y017486D01*
X028394Y017388D02*
X028892Y017388D01*
X028893Y017289D02*
X028296Y017289D01*
X028197Y017191D02*
X028946Y017191D01*
X028986Y017151D02*
X028986Y017151D01*
X029045Y017092D02*
X028099Y017092D01*
X028000Y016994D02*
X029143Y016994D01*
X029242Y016895D02*
X027902Y016895D01*
X027856Y016797D02*
X027803Y016797D01*
X027757Y016698D02*
X027705Y016698D01*
X027744Y016600D02*
X027606Y016600D01*
X027600Y016501D02*
X027744Y016501D01*
X027837Y016403D02*
X027531Y016403D01*
X027531Y016304D02*
X028173Y016304D01*
X028173Y016206D02*
X027531Y016206D01*
X027531Y016107D02*
X028173Y016107D01*
X028173Y016009D02*
X027531Y016009D01*
X027531Y015910D02*
X028173Y015910D01*
X028173Y015812D02*
X027531Y015812D01*
X027531Y015713D02*
X028173Y015713D01*
X028173Y015615D02*
X027531Y015615D01*
X027531Y015516D02*
X028173Y015516D01*
X028173Y015418D02*
X027531Y015418D01*
X027531Y015319D02*
X028173Y015319D01*
X028173Y015221D02*
X027531Y015221D01*
X027531Y015122D02*
X028173Y015122D01*
X028173Y015024D02*
X027531Y015024D01*
X027531Y014925D02*
X028173Y014925D01*
X028173Y014827D02*
X027531Y014827D01*
X027531Y014728D02*
X028173Y014728D01*
X028173Y014630D02*
X027531Y014630D01*
X027531Y014531D02*
X028173Y014531D01*
X028173Y014433D02*
X027531Y014433D01*
X027531Y014334D02*
X028173Y014334D01*
X028173Y014236D02*
X027531Y014236D01*
X027531Y014137D02*
X028173Y014137D01*
X028173Y014039D02*
X027531Y014039D01*
X027531Y013940D02*
X028173Y013940D01*
X028173Y013842D02*
X027531Y013842D01*
X027531Y013743D02*
X028173Y013743D01*
X028173Y013645D02*
X027531Y013645D01*
X027531Y013546D02*
X028173Y013546D01*
X028173Y013448D02*
X027531Y013448D01*
X027531Y013349D02*
X028173Y013349D01*
X028173Y013251D02*
X027531Y013251D01*
X027531Y013152D02*
X028173Y013152D01*
X028173Y013054D02*
X027531Y013054D01*
X027531Y012955D02*
X028173Y012955D01*
X028173Y012857D02*
X027531Y012857D01*
X027531Y012758D02*
X028173Y012758D01*
X028173Y012660D02*
X027531Y012660D01*
X027531Y012561D02*
X028173Y012561D01*
X028173Y012463D02*
X027531Y012463D01*
X027531Y012364D02*
X028173Y012364D01*
X028173Y012266D02*
X027531Y012266D01*
X027531Y012167D02*
X028173Y012167D01*
X028173Y012069D02*
X027531Y012069D01*
X027531Y011970D02*
X028173Y011970D01*
X028173Y011872D02*
X027531Y011872D01*
X027531Y011773D02*
X028173Y011773D01*
X028171Y011675D02*
X027531Y011675D01*
X027531Y011576D02*
X027975Y011576D01*
X027924Y011478D02*
X027549Y011478D01*
X027648Y011379D02*
X027924Y011379D01*
X027979Y011281D02*
X027746Y011281D01*
X027845Y011182D02*
X028533Y011182D01*
X028533Y011084D02*
X027943Y011084D01*
X028042Y010985D02*
X028502Y010985D01*
X028403Y010887D02*
X028140Y010887D01*
X028092Y010710D02*
X027372Y011430D01*
X027372Y016590D01*
X027972Y016590D02*
X028212Y016590D01*
X028332Y016470D01*
X028332Y011610D01*
X028152Y011430D01*
X028325Y011281D02*
X028519Y011281D01*
X028464Y011379D02*
X028380Y011379D01*
X028424Y011478D02*
X028464Y011478D01*
X028491Y011576D02*
X028515Y011576D01*
X028491Y011675D02*
X041422Y011675D01*
X041324Y011773D02*
X028491Y011773D01*
X028491Y011872D02*
X041225Y011872D01*
X041127Y011970D02*
X028491Y011970D01*
X028491Y012069D02*
X041028Y012069D01*
X040930Y012167D02*
X028491Y012167D01*
X028491Y012266D02*
X040831Y012266D01*
X040733Y012364D02*
X028491Y012364D01*
X028491Y012463D02*
X040634Y012463D01*
X040536Y012561D02*
X028491Y012561D01*
X028491Y012660D02*
X040437Y012660D01*
X040339Y012758D02*
X028491Y012758D01*
X028491Y012857D02*
X040240Y012857D01*
X040142Y012955D02*
X028491Y012955D01*
X028491Y013054D02*
X040043Y013054D01*
X039967Y013152D02*
X028491Y013152D01*
X028491Y013251D02*
X039966Y013251D01*
X039868Y013349D02*
X028491Y013349D01*
X028491Y013448D02*
X031617Y013448D01*
X031649Y013423D02*
X031779Y013442D01*
X031859Y013547D01*
X031840Y013678D01*
X031440Y013978D01*
X031440Y014044D01*
X031306Y014178D01*
X031117Y014178D01*
X030984Y014044D01*
X030984Y013856D01*
X031117Y013722D01*
X031251Y013722D01*
X031649Y013423D01*
X031784Y013448D02*
X039769Y013448D01*
X039671Y013546D02*
X031858Y013546D01*
X031845Y013645D02*
X039475Y013645D01*
X039384Y013743D02*
X031753Y013743D01*
X031621Y013842D02*
X039384Y013842D01*
X039399Y013940D02*
X032364Y013940D01*
X032400Y013976D02*
X032266Y013842D01*
X032077Y013842D01*
X031944Y013976D01*
X031944Y014164D01*
X032077Y014298D01*
X032175Y014298D01*
X033453Y015576D01*
X033453Y015946D01*
X033384Y016016D01*
X033384Y016204D01*
X033517Y016338D01*
X033706Y016338D01*
X033840Y016204D01*
X033840Y016016D01*
X033771Y015946D01*
X033771Y015444D01*
X033678Y015351D01*
X032400Y014073D01*
X032400Y013976D01*
X032400Y014039D02*
X039498Y014039D01*
X039726Y014039D02*
X042978Y014039D01*
X042965Y013940D02*
X039824Y013940D01*
X039840Y013842D02*
X042970Y013842D01*
X043011Y013743D02*
X039924Y013743D01*
X040022Y013645D02*
X043090Y013645D01*
X043267Y013546D02*
X040121Y013546D01*
X040219Y013448D02*
X044254Y013448D01*
X044254Y013546D02*
X043997Y013546D01*
X044173Y013645D02*
X044254Y013645D01*
X044253Y013743D02*
X044254Y013743D01*
X044254Y013349D02*
X040285Y013349D01*
X040296Y013251D02*
X043125Y013251D01*
X043027Y013152D02*
X040395Y013152D01*
X040493Y013054D02*
X042984Y013054D01*
X042965Y012955D02*
X040592Y012955D01*
X040690Y012857D02*
X042965Y012857D01*
X043004Y012758D02*
X040789Y012758D01*
X040887Y012660D02*
X043075Y012660D01*
X043230Y012561D02*
X040986Y012561D01*
X041084Y012463D02*
X044254Y012463D01*
X044254Y012561D02*
X044033Y012561D01*
X044188Y012660D02*
X044254Y012660D01*
X044254Y012364D02*
X041183Y012364D01*
X041281Y012266D02*
X043122Y012266D01*
X043022Y012167D02*
X041380Y012167D01*
X041478Y012069D02*
X042970Y012069D01*
X042948Y011880D02*
X042956Y011835D01*
X042975Y011774D01*
X043005Y011716D01*
X043042Y011665D01*
X043088Y011619D01*
X043139Y011581D01*
X043197Y011552D01*
X043258Y011533D01*
X043321Y011523D01*
X043582Y011523D01*
X043582Y011880D01*
X042948Y011880D01*
X042950Y011872D02*
X041675Y011872D01*
X041577Y011970D02*
X043582Y011970D01*
X043582Y011872D02*
X043682Y011872D01*
X043682Y011773D02*
X043582Y011773D01*
X043582Y011675D02*
X043682Y011675D01*
X043682Y011576D02*
X043582Y011576D01*
X043150Y011576D02*
X041971Y011576D01*
X042069Y011478D02*
X044254Y011478D01*
X044254Y011576D02*
X044113Y011576D01*
X044229Y011675D02*
X044254Y011675D01*
X044254Y011379D02*
X042168Y011379D01*
X042266Y011281D02*
X043186Y011281D01*
X043057Y011182D02*
X042365Y011182D01*
X042463Y011084D02*
X042997Y011084D01*
X042965Y010985D02*
X042562Y010985D01*
X042660Y010887D02*
X042965Y010887D01*
X042992Y010788D02*
X042759Y010788D01*
X042857Y010690D02*
X043045Y010690D01*
X042956Y010591D02*
X043158Y010591D01*
X043054Y010493D02*
X044254Y010493D01*
X044254Y010591D02*
X044105Y010591D01*
X044218Y010690D02*
X044254Y010690D01*
X044254Y010394D02*
X043153Y010394D01*
X043251Y010296D02*
X044254Y010296D01*
X044254Y010197D02*
X043350Y010197D01*
X043448Y010099D02*
X044254Y010099D01*
X044254Y010000D02*
X043547Y010000D01*
X043645Y009902D02*
X044254Y009902D01*
X044254Y009803D02*
X043744Y009803D01*
X043791Y009705D02*
X044254Y009705D01*
X044254Y009409D02*
X044057Y009409D01*
X044198Y009311D02*
X044254Y009311D01*
X043632Y009690D02*
X040126Y013196D01*
X040126Y013316D01*
X039612Y013830D01*
X041774Y011773D02*
X042976Y011773D01*
X043035Y011675D02*
X041872Y011675D01*
X041619Y011478D02*
X030996Y011478D01*
X031080Y011379D02*
X041718Y011379D01*
X041816Y011281D02*
X031080Y011281D01*
X031057Y011182D02*
X041915Y011182D01*
X041521Y011576D02*
X028868Y011576D01*
X028920Y011478D02*
X030707Y011478D01*
X030624Y011379D02*
X028920Y011379D01*
X028865Y011281D02*
X029405Y011281D01*
X029306Y011182D02*
X028851Y011182D01*
X028851Y011084D02*
X029208Y011084D01*
X029109Y010985D02*
X028851Y010985D01*
X028851Y010887D02*
X029011Y010887D01*
X028912Y010788D02*
X028755Y010788D01*
X028814Y010690D02*
X028656Y010690D01*
X028715Y010591D02*
X028558Y010591D01*
X028617Y010493D02*
X027291Y010493D01*
X027291Y010591D02*
X027986Y010591D01*
X027887Y010690D02*
X027291Y010690D01*
X027291Y010788D02*
X027789Y010788D01*
X027690Y010887D02*
X027291Y010887D01*
X027291Y010985D02*
X027592Y010985D01*
X027493Y011084D02*
X027291Y011084D01*
X027291Y011182D02*
X027395Y011182D01*
X027296Y011281D02*
X027291Y011281D01*
X026733Y011281D02*
X025706Y011281D01*
X025608Y011379D02*
X026733Y011379D01*
X026733Y011478D02*
X025509Y011478D01*
X025411Y011576D02*
X026733Y011576D01*
X026733Y011675D02*
X025312Y011675D01*
X025214Y011773D02*
X026733Y011773D01*
X026733Y011872D02*
X025115Y011872D01*
X025017Y011970D02*
X026733Y011970D01*
X026733Y012069D02*
X024918Y012069D01*
X024820Y012167D02*
X026733Y012167D01*
X026733Y012266D02*
X024721Y012266D01*
X024623Y012364D02*
X026733Y012364D01*
X026733Y012463D02*
X024524Y012463D01*
X024426Y012561D02*
X026733Y012561D01*
X026733Y012660D02*
X024327Y012660D01*
X024229Y012758D02*
X026733Y012758D01*
X026733Y012857D02*
X024130Y012857D01*
X024032Y012955D02*
X026733Y012955D01*
X026733Y013054D02*
X023933Y013054D01*
X023835Y013152D02*
X026733Y013152D01*
X026733Y013251D02*
X023736Y013251D01*
X023638Y013349D02*
X026733Y013349D01*
X026733Y013448D02*
X023539Y013448D01*
X023441Y013546D02*
X026733Y013546D01*
X026733Y013645D02*
X023342Y013645D01*
X023244Y013743D02*
X026733Y013743D01*
X026733Y013842D02*
X014451Y013842D01*
X014451Y013940D02*
X026733Y013940D01*
X026733Y014039D02*
X014451Y014039D01*
X014451Y014137D02*
X026733Y014137D01*
X026733Y014236D02*
X014451Y014236D01*
X014451Y014334D02*
X026733Y014334D01*
X026733Y014433D02*
X014451Y014433D01*
X014451Y014531D02*
X017566Y014531D01*
X017586Y014511D02*
X025408Y014511D01*
X025477Y014442D01*
X025666Y014442D01*
X025800Y014576D01*
X025800Y014764D01*
X025666Y014898D01*
X025477Y014898D01*
X025408Y014829D01*
X017718Y014829D01*
X016131Y016416D01*
X016131Y020976D01*
X016038Y021069D01*
X007878Y029229D01*
X006295Y029229D01*
X006226Y029298D01*
X006037Y029298D01*
X005904Y029164D01*
X005904Y028976D01*
X006037Y028842D01*
X006226Y028842D01*
X006295Y028911D01*
X007746Y028911D01*
X015813Y020844D01*
X015813Y016284D01*
X017493Y014604D01*
X017586Y014511D01*
X017467Y014630D02*
X014451Y014630D01*
X014451Y014728D02*
X017369Y014728D01*
X017270Y014827D02*
X014451Y014827D01*
X014532Y014925D02*
X017172Y014925D01*
X017073Y015024D02*
X014630Y015024D01*
X014631Y015122D02*
X016975Y015122D01*
X016876Y015221D02*
X014631Y015221D01*
X014631Y015319D02*
X016778Y015319D01*
X016679Y015418D02*
X014631Y015418D01*
X014631Y015516D02*
X016581Y015516D01*
X016482Y015615D02*
X014631Y015615D01*
X014631Y015713D02*
X016384Y015713D01*
X016285Y015812D02*
X014631Y015812D01*
X014631Y015910D02*
X016187Y015910D01*
X016088Y016009D02*
X014618Y016009D01*
X014520Y016107D02*
X015990Y016107D01*
X015891Y016206D02*
X014421Y016206D01*
X014323Y016304D02*
X015813Y016304D01*
X015813Y016403D02*
X014224Y016403D01*
X014126Y016501D02*
X015813Y016501D01*
X015813Y016600D02*
X014027Y016600D01*
X013929Y016698D02*
X015813Y016698D01*
X015813Y016797D02*
X013830Y016797D01*
X013732Y016895D02*
X015813Y016895D01*
X015813Y016994D02*
X013633Y016994D01*
X013535Y017092D02*
X015813Y017092D01*
X015813Y017191D02*
X013436Y017191D01*
X013338Y017289D02*
X015813Y017289D01*
X015813Y017388D02*
X013239Y017388D01*
X013141Y017486D02*
X015813Y017486D01*
X015813Y017585D02*
X013042Y017585D01*
X012944Y017683D02*
X015813Y017683D01*
X015813Y017782D02*
X012845Y017782D01*
X012747Y017880D02*
X015813Y017880D01*
X015813Y017979D02*
X012648Y017979D01*
X012550Y018077D02*
X015813Y018077D01*
X015813Y018176D02*
X012451Y018176D01*
X012353Y018274D02*
X015813Y018274D01*
X015813Y018373D02*
X012254Y018373D01*
X012132Y018270D02*
X014472Y015930D01*
X014472Y015090D01*
X014292Y014910D01*
X014292Y011790D01*
X014520Y011773D02*
X015490Y011773D01*
X015588Y011872D02*
X014520Y011872D01*
X014451Y011970D02*
X015687Y011970D01*
X015785Y012069D02*
X014451Y012069D01*
X014451Y012167D02*
X015884Y012167D01*
X015982Y012266D02*
X014451Y012266D01*
X014451Y012364D02*
X016081Y012364D01*
X016179Y012463D02*
X014451Y012463D01*
X014451Y012561D02*
X016278Y012561D01*
X016376Y012660D02*
X014451Y012660D01*
X014451Y012758D02*
X016475Y012758D01*
X016573Y012857D02*
X014451Y012857D01*
X014451Y012955D02*
X016672Y012955D01*
X016770Y013054D02*
X014451Y013054D01*
X014451Y013152D02*
X016869Y013152D01*
X016967Y013251D02*
X014451Y013251D01*
X014451Y013349D02*
X023188Y013349D01*
X023136Y013251D02*
X023286Y013251D01*
X023235Y013152D02*
X023385Y013152D01*
X023333Y013054D02*
X023483Y013054D01*
X023432Y012955D02*
X023582Y012955D01*
X023530Y012857D02*
X023680Y012857D01*
X023629Y012758D02*
X023779Y012758D01*
X023727Y012660D02*
X023877Y012660D01*
X023826Y012561D02*
X023976Y012561D01*
X023924Y012463D02*
X024074Y012463D01*
X024023Y012364D02*
X024173Y012364D01*
X024121Y012266D02*
X024271Y012266D01*
X024220Y012167D02*
X024370Y012167D01*
X024318Y012069D02*
X024468Y012069D01*
X024417Y011970D02*
X024567Y011970D01*
X024515Y011872D02*
X024665Y011872D01*
X024614Y011773D02*
X024764Y011773D01*
X024712Y011675D02*
X024862Y011675D01*
X024811Y011576D02*
X024961Y011576D01*
X024909Y011478D02*
X025059Y011478D01*
X025008Y011379D02*
X025158Y011379D01*
X025106Y011281D02*
X025256Y011281D01*
X025205Y011182D02*
X025355Y011182D01*
X025303Y011084D02*
X025453Y011084D01*
X025402Y010985D02*
X025552Y010985D01*
X025500Y010887D02*
X025650Y010887D01*
X025599Y010788D02*
X025749Y010788D01*
X025697Y010690D02*
X025847Y010690D01*
X025796Y010591D02*
X025946Y010591D01*
X025894Y010493D02*
X026044Y010493D01*
X025993Y010394D02*
X026143Y010394D01*
X026091Y010296D02*
X026241Y010296D01*
X026190Y010197D02*
X026340Y010197D01*
X026288Y010099D02*
X026438Y010099D01*
X026387Y010000D02*
X026537Y010000D01*
X026485Y009902D02*
X026635Y009902D01*
X026584Y009803D02*
X026734Y009803D01*
X026682Y009705D02*
X026832Y009705D01*
X026781Y009606D02*
X026931Y009606D01*
X026879Y009508D02*
X027029Y009508D01*
X026978Y009409D02*
X027128Y009409D01*
X027076Y009311D02*
X027226Y009311D01*
X027175Y009212D02*
X027325Y009212D01*
X027273Y009114D02*
X027423Y009114D01*
X027372Y009015D02*
X027522Y009015D01*
X027470Y008917D02*
X027620Y008917D01*
X027569Y008818D02*
X027719Y008818D01*
X027667Y008720D02*
X027817Y008720D01*
X027766Y008621D02*
X027916Y008621D01*
X027864Y008523D02*
X027984Y008523D01*
X027963Y008424D02*
X028015Y008424D01*
X028061Y008326D02*
X028114Y008326D01*
X028310Y008326D02*
X031954Y008326D01*
X031899Y008720D02*
X031546Y008720D01*
X031645Y008818D02*
X033535Y008818D01*
X033633Y008917D02*
X031743Y008917D01*
X031842Y009015D02*
X033732Y009015D01*
X033830Y009114D02*
X031940Y009114D01*
X032039Y009212D02*
X033929Y009212D01*
X034027Y009311D02*
X032235Y009311D01*
X032280Y009409D02*
X034126Y009409D01*
X034224Y009508D02*
X032280Y009508D01*
X032218Y009606D02*
X034323Y009606D01*
X034739Y009212D02*
X035784Y009212D01*
X035784Y009176D02*
X035917Y009042D01*
X036015Y009042D01*
X037104Y007953D01*
X037104Y007856D01*
X037237Y007722D01*
X037426Y007722D01*
X037560Y007856D01*
X037560Y008044D01*
X037426Y008178D01*
X037329Y008178D01*
X036240Y009267D01*
X036240Y009364D01*
X036106Y009498D01*
X035917Y009498D01*
X035784Y009364D01*
X035784Y009176D01*
X035846Y009114D02*
X034640Y009114D01*
X034542Y009015D02*
X036042Y009015D01*
X036140Y008917D02*
X034443Y008917D01*
X034345Y008818D02*
X036239Y008818D01*
X036337Y008720D02*
X034246Y008720D01*
X034148Y008621D02*
X036436Y008621D01*
X036534Y008523D02*
X034049Y008523D01*
X033951Y008424D02*
X036633Y008424D01*
X036731Y008326D02*
X033852Y008326D01*
X033754Y008227D02*
X036830Y008227D01*
X036928Y008129D02*
X033996Y008129D01*
X034080Y008030D02*
X037027Y008030D01*
X037104Y007932D02*
X034095Y007932D01*
X034194Y007833D02*
X037126Y007833D01*
X037225Y007735D02*
X034292Y007735D01*
X034391Y007636D02*
X041993Y007636D01*
X042091Y007735D02*
X037439Y007735D01*
X037537Y007833D02*
X042190Y007833D01*
X042288Y007932D02*
X037560Y007932D01*
X037560Y008030D02*
X042387Y008030D01*
X042485Y008129D02*
X037476Y008129D01*
X037280Y008227D02*
X042584Y008227D01*
X042682Y008326D02*
X037181Y008326D01*
X037083Y008424D02*
X042781Y008424D01*
X042879Y008523D02*
X036984Y008523D01*
X036886Y008621D02*
X042978Y008621D01*
X043076Y008720D02*
X036787Y008720D01*
X036689Y008818D02*
X043037Y008818D01*
X042989Y008917D02*
X036590Y008917D01*
X036492Y009015D02*
X042965Y009015D01*
X042965Y009114D02*
X036393Y009114D01*
X036295Y009212D02*
X043000Y009212D01*
X043065Y009311D02*
X036240Y009311D01*
X036195Y009409D02*
X043206Y009409D01*
X042966Y008129D02*
X042935Y008129D01*
X042965Y008030D02*
X042837Y008030D01*
X042738Y007932D02*
X042982Y007932D01*
X043023Y007833D02*
X042640Y007833D01*
X042541Y007735D02*
X043091Y007735D01*
X042993Y007636D02*
X042443Y007636D01*
X042344Y007538D02*
X042894Y007538D01*
X042796Y007439D02*
X042246Y007439D01*
X042147Y007341D02*
X042697Y007341D01*
X042599Y007242D02*
X042049Y007242D01*
X041950Y007144D02*
X042500Y007144D01*
X042402Y007045D02*
X041852Y007045D01*
X041753Y006947D02*
X042303Y006947D01*
X042205Y006848D02*
X041655Y006848D01*
X041556Y006750D02*
X042106Y006750D01*
X042008Y006651D02*
X041458Y006651D01*
X041359Y006553D02*
X041909Y006553D01*
X041811Y006454D02*
X041261Y006454D01*
X041162Y006356D02*
X041733Y006356D01*
X041733Y006257D02*
X041064Y006257D01*
X040965Y006159D02*
X041733Y006159D01*
X041733Y006060D02*
X040867Y006060D01*
X040768Y005962D02*
X041733Y005962D01*
X041733Y005863D02*
X040670Y005863D01*
X040571Y005765D02*
X041733Y005765D01*
X041733Y005666D02*
X040473Y005666D01*
X040374Y005568D02*
X041733Y005568D01*
X041733Y005469D02*
X040276Y005469D01*
X040177Y005371D02*
X041733Y005371D01*
X041733Y005272D02*
X040079Y005272D01*
X039980Y005174D02*
X041733Y005174D01*
X041733Y005075D02*
X039882Y005075D01*
X039783Y004977D02*
X041733Y004977D01*
X041733Y004878D02*
X039685Y004878D01*
X039586Y004780D02*
X041733Y004780D01*
X041733Y004681D02*
X039488Y004681D01*
X039389Y004583D02*
X041733Y004583D01*
X041733Y004484D02*
X039291Y004484D01*
X039192Y004386D02*
X041733Y004386D01*
X041733Y004287D02*
X039094Y004287D01*
X038995Y004189D02*
X041733Y004189D01*
X041733Y004090D02*
X038897Y004090D01*
X038798Y003992D02*
X041733Y003992D01*
X041733Y003893D02*
X038700Y003893D01*
X038601Y003795D02*
X041733Y003795D01*
X041733Y003696D02*
X038503Y003696D01*
X038404Y003598D02*
X041733Y003598D01*
X041733Y003499D02*
X038306Y003499D01*
X038207Y003401D02*
X041733Y003401D01*
X041733Y003302D02*
X038109Y003302D01*
X038010Y003204D02*
X041733Y003204D01*
X041733Y003105D02*
X037912Y003105D01*
X037813Y003007D02*
X041733Y003007D01*
X041733Y002908D02*
X037715Y002908D01*
X037616Y002810D02*
X041733Y002810D01*
X041733Y002711D02*
X037518Y002711D01*
X037419Y002613D02*
X041733Y002613D01*
X041733Y002514D02*
X037321Y002514D01*
X037222Y002416D02*
X041733Y002416D01*
X041733Y002317D02*
X037124Y002317D01*
X037025Y002219D02*
X041733Y002219D01*
X041733Y002120D02*
X036927Y002120D01*
X036828Y002022D02*
X041664Y002022D01*
X041664Y001923D02*
X036730Y001923D01*
X036631Y001825D02*
X041695Y001825D01*
X041793Y001726D02*
X036533Y001726D01*
X036434Y001628D02*
X044254Y001628D01*
X044254Y001726D02*
X041990Y001726D01*
X042089Y001825D02*
X044254Y001825D01*
X044254Y001923D02*
X042120Y001923D01*
X042120Y002022D02*
X044254Y002022D01*
X044254Y002120D02*
X042051Y002120D01*
X042051Y002219D02*
X044254Y002219D01*
X044254Y002317D02*
X042051Y002317D01*
X042051Y002416D02*
X044254Y002416D01*
X044254Y002514D02*
X042051Y002514D01*
X042051Y002613D02*
X044254Y002613D01*
X044254Y002711D02*
X042051Y002711D01*
X042051Y002810D02*
X044254Y002810D01*
X044254Y002908D02*
X042051Y002908D01*
X042051Y003007D02*
X044254Y003007D01*
X044254Y003105D02*
X042051Y003105D01*
X042051Y003204D02*
X044254Y003204D01*
X044254Y003302D02*
X042051Y003302D01*
X042051Y003401D02*
X044254Y003401D01*
X044254Y003499D02*
X042051Y003499D01*
X042051Y003598D02*
X044254Y003598D01*
X044254Y003696D02*
X042051Y003696D01*
X042051Y003795D02*
X044254Y003795D01*
X044254Y003893D02*
X042051Y003893D01*
X042051Y003992D02*
X044254Y003992D01*
X044254Y004090D02*
X042051Y004090D01*
X042051Y004189D02*
X044254Y004189D01*
X044254Y004287D02*
X042051Y004287D01*
X042051Y004386D02*
X044254Y004386D01*
X044254Y004484D02*
X042051Y004484D01*
X042051Y004583D02*
X044254Y004583D01*
X044254Y004681D02*
X044084Y004681D01*
X044216Y004780D02*
X044254Y004780D01*
X043682Y004780D02*
X043582Y004780D01*
X043582Y004878D02*
X043682Y004878D01*
X043682Y004977D02*
X043582Y004977D01*
X043582Y005000D02*
X043582Y004643D01*
X043321Y004643D01*
X043258Y004653D01*
X043197Y004672D01*
X043139Y004701D01*
X043088Y004739D01*
X043042Y004785D01*
X043005Y004836D01*
X042975Y004894D01*
X042956Y004955D01*
X042948Y005000D01*
X043582Y005000D01*
X043582Y005075D02*
X042051Y005075D01*
X042051Y004977D02*
X042952Y004977D01*
X042983Y004878D02*
X042051Y004878D01*
X042051Y004780D02*
X043047Y004780D01*
X043180Y004681D02*
X042051Y004681D01*
X042051Y005174D02*
X042965Y005174D01*
X043011Y005272D02*
X042051Y005272D01*
X042051Y005371D02*
X043101Y005371D01*
X043267Y005666D02*
X042051Y005666D01*
X042051Y005568D02*
X044254Y005568D01*
X044254Y005666D02*
X043997Y005666D01*
X044173Y005765D02*
X044254Y005765D01*
X044253Y005863D02*
X044254Y005863D01*
X044254Y005469D02*
X042051Y005469D01*
X042051Y005765D02*
X043090Y005765D01*
X043011Y005863D02*
X042051Y005863D01*
X042051Y005962D02*
X042970Y005962D01*
X042965Y006060D02*
X042051Y006060D01*
X042051Y006159D02*
X042978Y006159D01*
X043019Y006257D02*
X042064Y006257D01*
X042162Y006356D02*
X043110Y006356D01*
X043105Y006750D02*
X042556Y006750D01*
X042655Y006848D02*
X043017Y006848D01*
X042976Y006947D02*
X042753Y006947D01*
X042852Y007045D02*
X042965Y007045D01*
X042972Y007144D02*
X042950Y007144D01*
X042458Y006651D02*
X044254Y006651D01*
X044254Y006553D02*
X042359Y006553D01*
X042261Y006454D02*
X044254Y006454D01*
X044254Y006356D02*
X044153Y006356D01*
X044244Y006257D02*
X044254Y006257D01*
X044254Y006750D02*
X044158Y006750D01*
X044247Y006848D02*
X044254Y006848D01*
X043632Y008050D02*
X041892Y006310D01*
X041892Y001950D01*
X044254Y001529D02*
X036336Y001529D01*
X036237Y001431D02*
X044254Y001431D01*
X044254Y001332D02*
X036139Y001332D01*
X036040Y001234D02*
X044254Y001234D01*
X044254Y001135D02*
X031462Y001135D01*
X031363Y001037D02*
X044254Y001037D01*
X044254Y000938D02*
X031265Y000938D01*
X031166Y000840D02*
X044254Y000840D01*
X044254Y000741D02*
X031068Y000741D01*
X030913Y001037D02*
X029350Y001037D01*
X029252Y001135D02*
X029904Y001135D01*
X029806Y001234D02*
X029153Y001234D01*
X029055Y001332D02*
X029784Y001332D01*
X029784Y001431D02*
X028956Y001431D01*
X028858Y001529D02*
X029868Y001529D01*
X030012Y001350D02*
X030732Y001950D01*
X032232Y003450D01*
X032232Y006570D01*
X032052Y006750D01*
X032280Y006750D02*
X034827Y006750D01*
X034729Y006848D02*
X032276Y006848D01*
X032178Y006947D02*
X033453Y006947D01*
X033612Y007110D02*
X026532Y007110D01*
X024612Y009030D01*
X012372Y009030D01*
X011292Y010110D01*
X011292Y011070D01*
X013932Y013710D01*
X013932Y015030D01*
X014232Y015330D01*
X014232Y015810D01*
X012072Y017970D01*
X008832Y017970D01*
X007832Y018970D01*
X007652Y018970D01*
X007177Y018570D02*
X005220Y018570D01*
X005220Y018668D02*
X007027Y018668D01*
X006952Y018767D02*
X005220Y018767D01*
X005220Y018865D02*
X006911Y018865D01*
X006903Y018964D02*
X005220Y018964D01*
X005220Y019062D02*
X006905Y019062D01*
X006946Y019161D02*
X005220Y019161D01*
X005220Y019259D02*
X007014Y019259D01*
X007146Y019358D02*
X005220Y019358D01*
X005220Y019456D02*
X008903Y019456D01*
X008903Y019385D02*
X008968Y019227D01*
X009089Y019106D01*
X009246Y019041D01*
X010057Y019041D01*
X010215Y019106D01*
X010335Y019227D01*
X010401Y019385D01*
X010401Y019555D01*
X010335Y019713D01*
X010215Y019834D01*
X010057Y019899D01*
X009246Y019899D01*
X009089Y019834D01*
X008968Y019713D01*
X008903Y019555D01*
X008903Y019385D01*
X008914Y019358D02*
X008157Y019358D01*
X008289Y019259D02*
X008955Y019259D01*
X009034Y019161D02*
X008357Y019161D01*
X008398Y019062D02*
X009195Y019062D01*
X009164Y018865D02*
X008393Y018865D01*
X008401Y018964D02*
X015813Y018964D01*
X015813Y019062D02*
X010108Y019062D01*
X010269Y019161D02*
X015813Y019161D01*
X015813Y019259D02*
X010349Y019259D01*
X010390Y019358D02*
X015813Y019358D01*
X015813Y019456D02*
X010401Y019456D01*
X010401Y019555D02*
X015813Y019555D01*
X015813Y019653D02*
X010360Y019653D01*
X010297Y019752D02*
X015813Y019752D01*
X015813Y019850D02*
X010175Y019850D01*
X010139Y018865D02*
X015813Y018865D01*
X015813Y018767D02*
X010282Y018767D01*
X010354Y018668D02*
X015813Y018668D01*
X015813Y018570D02*
X010395Y018570D01*
X010401Y018471D02*
X011558Y018471D01*
X011460Y018373D02*
X010396Y018373D01*
X010355Y018274D02*
X011438Y018274D01*
X011438Y018176D02*
X010284Y018176D01*
X010267Y017782D02*
X012035Y017782D01*
X012134Y017683D02*
X010348Y017683D01*
X010389Y017585D02*
X012232Y017585D01*
X012331Y017486D02*
X010401Y017486D01*
X010401Y017388D02*
X012429Y017388D01*
X012528Y017289D02*
X010361Y017289D01*
X010299Y017191D02*
X012626Y017191D01*
X012725Y017092D02*
X010180Y017092D01*
X010067Y016895D02*
X012922Y016895D01*
X013020Y016797D02*
X010252Y016797D01*
X010215Y016834D02*
X010335Y016713D01*
X010401Y016555D01*
X010401Y016385D01*
X010335Y016227D01*
X010215Y016106D01*
X010057Y016041D01*
X009246Y016041D01*
X009089Y016106D01*
X008968Y016227D01*
X008903Y016385D01*
X008903Y016555D01*
X008968Y016713D01*
X009089Y016834D01*
X009246Y016899D01*
X010057Y016899D01*
X010215Y016834D01*
X010342Y016698D02*
X013119Y016698D01*
X013217Y016600D02*
X010383Y016600D01*
X010401Y016501D02*
X013316Y016501D01*
X013414Y016403D02*
X010401Y016403D01*
X010367Y016304D02*
X013513Y016304D01*
X013611Y016206D02*
X010314Y016206D01*
X010216Y016107D02*
X013710Y016107D01*
X013808Y016009D02*
X008881Y016009D01*
X008782Y016107D02*
X009088Y016107D01*
X008989Y016206D02*
X008684Y016206D01*
X008585Y016304D02*
X008936Y016304D01*
X008903Y016403D02*
X008487Y016403D01*
X008388Y016501D02*
X008903Y016501D01*
X008921Y016600D02*
X008290Y016600D01*
X008249Y016640D02*
X008335Y016727D01*
X008401Y016885D01*
X008401Y017055D01*
X008335Y017213D01*
X008215Y017334D01*
X008057Y017399D01*
X007246Y017399D01*
X007089Y017334D01*
X006968Y017213D01*
X006946Y017159D01*
X006673Y017159D01*
X005613Y016098D01*
X005557Y016098D01*
X005424Y015964D01*
X005424Y015776D01*
X005557Y015642D01*
X005746Y015642D01*
X005880Y015776D01*
X005880Y015831D01*
X006830Y016781D01*
X006946Y016781D01*
X006968Y016727D01*
X007089Y016606D01*
X007246Y016541D01*
X007813Y016541D01*
X008973Y015381D01*
X013678Y015381D01*
X013717Y015342D01*
X013906Y015342D01*
X014040Y015476D01*
X014040Y015664D01*
X013906Y015798D01*
X013717Y015798D01*
X013678Y015759D01*
X009130Y015759D01*
X008249Y016640D01*
X008307Y016698D02*
X008962Y016698D01*
X009052Y016797D02*
X008364Y016797D01*
X008401Y016895D02*
X009237Y016895D01*
X009123Y017092D02*
X008386Y017092D01*
X008401Y016994D02*
X012823Y016994D01*
X012132Y018270D02*
X011680Y018270D01*
X011666Y018256D01*
X011773Y018471D02*
X015813Y018471D01*
X016131Y018471D02*
X016463Y018471D01*
X016463Y018373D02*
X016131Y018373D01*
X016131Y018274D02*
X016463Y018274D01*
X016463Y018176D02*
X016131Y018176D01*
X016131Y018077D02*
X016463Y018077D01*
X016463Y017979D02*
X016131Y017979D01*
X016131Y017880D02*
X016463Y017880D01*
X016463Y017782D02*
X016131Y017782D01*
X016131Y017683D02*
X016463Y017683D01*
X016463Y017585D02*
X016131Y017585D01*
X016131Y017486D02*
X016463Y017486D01*
X016463Y017388D02*
X016131Y017388D01*
X016131Y017289D02*
X016463Y017289D01*
X016463Y017191D02*
X016131Y017191D01*
X016131Y017092D02*
X016463Y017092D01*
X016463Y016994D02*
X016131Y016994D01*
X016131Y016895D02*
X016463Y016895D01*
X016463Y016835D02*
X016597Y016701D01*
X017544Y015754D01*
X017544Y015334D01*
X017603Y015192D01*
X017712Y015083D01*
X017855Y015023D01*
X018009Y015023D01*
X018151Y015083D01*
X018261Y015192D01*
X018320Y015334D01*
X018320Y016046D01*
X018261Y016188D01*
X018151Y016297D01*
X018009Y016357D01*
X017855Y016357D01*
X017712Y016297D01*
X017680Y016266D01*
X016921Y017025D01*
X016921Y021325D01*
X008040Y030206D01*
X008040Y030626D01*
X007981Y030768D01*
X007871Y030877D01*
X007729Y030937D01*
X007575Y030937D01*
X007432Y030877D01*
X007323Y030768D01*
X007264Y030626D01*
X007264Y029914D01*
X007323Y029772D01*
X007432Y029663D01*
X007575Y029603D01*
X007729Y029603D01*
X007871Y029663D01*
X007903Y029694D01*
X016463Y021135D01*
X016463Y016835D01*
X016501Y016797D02*
X016131Y016797D01*
X016131Y016698D02*
X016600Y016698D01*
X016698Y016600D02*
X016131Y016600D01*
X016131Y016501D02*
X016797Y016501D01*
X016895Y016403D02*
X016144Y016403D01*
X016243Y016304D02*
X016994Y016304D01*
X017092Y016206D02*
X016341Y016206D01*
X016440Y016107D02*
X017191Y016107D01*
X017289Y016009D02*
X016538Y016009D01*
X016637Y015910D02*
X017388Y015910D01*
X017486Y015812D02*
X016735Y015812D01*
X016834Y015713D02*
X017544Y015713D01*
X017544Y015615D02*
X016932Y015615D01*
X017031Y015516D02*
X017544Y015516D01*
X017544Y015418D02*
X017129Y015418D01*
X017228Y015319D02*
X017550Y015319D01*
X017591Y015221D02*
X017326Y015221D01*
X017425Y015122D02*
X017673Y015122D01*
X017523Y015024D02*
X017854Y015024D01*
X018009Y015024D02*
X018854Y015024D01*
X018855Y015023D02*
X019009Y015023D01*
X019151Y015083D01*
X019261Y015192D01*
X019320Y015334D01*
X019320Y016046D01*
X019261Y016188D01*
X019151Y016297D01*
X019009Y016357D01*
X018855Y016357D01*
X018712Y016297D01*
X018603Y016188D01*
X018544Y016046D01*
X018544Y015334D01*
X018603Y015192D01*
X018712Y015083D01*
X018855Y015023D01*
X019009Y015024D02*
X019854Y015024D01*
X019855Y015023D02*
X020009Y015023D01*
X020151Y015083D01*
X020261Y015192D01*
X020320Y015334D01*
X020320Y016046D01*
X020261Y016188D01*
X020151Y016297D01*
X020009Y016357D01*
X019855Y016357D01*
X019712Y016297D01*
X019603Y016188D01*
X019544Y016046D01*
X019544Y015334D01*
X019603Y015192D01*
X019712Y015083D01*
X019855Y015023D01*
X020009Y015024D02*
X020854Y015024D01*
X020855Y015023D02*
X021009Y015023D01*
X021151Y015083D01*
X021261Y015192D01*
X021320Y015334D01*
X021320Y016046D01*
X021261Y016188D01*
X021151Y016297D01*
X021009Y016357D01*
X020855Y016357D01*
X020712Y016297D01*
X020603Y016188D01*
X020544Y016046D01*
X020544Y015334D01*
X020603Y015192D01*
X020712Y015083D01*
X020855Y015023D01*
X021009Y015024D02*
X021854Y015024D01*
X021855Y015023D02*
X022009Y015023D01*
X022151Y015083D01*
X022261Y015192D01*
X022320Y015334D01*
X022320Y016046D01*
X022261Y016188D01*
X022151Y016297D01*
X022009Y016357D01*
X021855Y016357D01*
X021712Y016297D01*
X021603Y016188D01*
X021544Y016046D01*
X021544Y015334D01*
X021603Y015192D01*
X021712Y015083D01*
X021855Y015023D01*
X022009Y015024D02*
X026733Y015024D01*
X026733Y015122D02*
X022191Y015122D01*
X022273Y015221D02*
X026733Y015221D01*
X026733Y015319D02*
X022313Y015319D01*
X022320Y015418D02*
X026733Y015418D01*
X026733Y015516D02*
X022320Y015516D01*
X022320Y015615D02*
X026733Y015615D01*
X026733Y015713D02*
X022320Y015713D01*
X022320Y015812D02*
X026733Y015812D01*
X026733Y015910D02*
X022320Y015910D01*
X022320Y016009D02*
X026733Y016009D01*
X026733Y016107D02*
X022294Y016107D01*
X022243Y016206D02*
X026733Y016206D01*
X026733Y016304D02*
X022136Y016304D01*
X021728Y016304D02*
X021136Y016304D01*
X021243Y016206D02*
X021620Y016206D01*
X021569Y016107D02*
X021294Y016107D01*
X021320Y016009D02*
X021544Y016009D01*
X021544Y015910D02*
X021320Y015910D01*
X021320Y015812D02*
X021544Y015812D01*
X021544Y015713D02*
X021320Y015713D01*
X021320Y015615D02*
X021544Y015615D01*
X021544Y015516D02*
X021320Y015516D01*
X021320Y015418D02*
X021544Y015418D01*
X021550Y015319D02*
X021313Y015319D01*
X021273Y015221D02*
X021591Y015221D01*
X021673Y015122D02*
X021191Y015122D01*
X020673Y015122D02*
X020191Y015122D01*
X020273Y015221D02*
X020591Y015221D01*
X020550Y015319D02*
X020313Y015319D01*
X020320Y015418D02*
X020544Y015418D01*
X020544Y015516D02*
X020320Y015516D01*
X020320Y015615D02*
X020544Y015615D01*
X020544Y015713D02*
X020320Y015713D01*
X020320Y015812D02*
X020544Y015812D01*
X020544Y015910D02*
X020320Y015910D01*
X020320Y016009D02*
X020544Y016009D01*
X020569Y016107D02*
X020294Y016107D01*
X020243Y016206D02*
X020620Y016206D01*
X020728Y016304D02*
X020136Y016304D01*
X019728Y016304D02*
X019136Y016304D01*
X019243Y016206D02*
X019620Y016206D01*
X019569Y016107D02*
X019294Y016107D01*
X019320Y016009D02*
X019544Y016009D01*
X019544Y015910D02*
X019320Y015910D01*
X019320Y015812D02*
X019544Y015812D01*
X019544Y015713D02*
X019320Y015713D01*
X019320Y015615D02*
X019544Y015615D01*
X019544Y015516D02*
X019320Y015516D01*
X019320Y015418D02*
X019544Y015418D01*
X019550Y015319D02*
X019313Y015319D01*
X019273Y015221D02*
X019591Y015221D01*
X019673Y015122D02*
X019191Y015122D01*
X018673Y015122D02*
X018191Y015122D01*
X018273Y015221D02*
X018591Y015221D01*
X018550Y015319D02*
X018313Y015319D01*
X018320Y015418D02*
X018544Y015418D01*
X018544Y015516D02*
X018320Y015516D01*
X018320Y015615D02*
X018544Y015615D01*
X018544Y015713D02*
X018320Y015713D01*
X018320Y015812D02*
X018544Y015812D01*
X018544Y015910D02*
X018320Y015910D01*
X018320Y016009D02*
X018544Y016009D01*
X018569Y016107D02*
X018294Y016107D01*
X018243Y016206D02*
X018620Y016206D01*
X018728Y016304D02*
X018136Y016304D01*
X017728Y016304D02*
X017642Y016304D01*
X017543Y016403D02*
X026733Y016403D01*
X026733Y016501D02*
X017445Y016501D01*
X017346Y016600D02*
X026733Y016600D01*
X026733Y016698D02*
X017248Y016698D01*
X017149Y016797D02*
X026733Y016797D01*
X026733Y016895D02*
X017051Y016895D01*
X016952Y016994D02*
X026733Y016994D01*
X026733Y017092D02*
X016921Y017092D01*
X016921Y017191D02*
X026733Y017191D01*
X026733Y017289D02*
X016921Y017289D01*
X016921Y017388D02*
X026733Y017388D01*
X026733Y017486D02*
X016921Y017486D01*
X016921Y017585D02*
X026733Y017585D01*
X026733Y017683D02*
X016921Y017683D01*
X016921Y017782D02*
X026733Y017782D01*
X026733Y017880D02*
X016921Y017880D01*
X016921Y017979D02*
X026733Y017979D01*
X026733Y018077D02*
X016921Y018077D01*
X016921Y018176D02*
X026733Y018176D01*
X026733Y018274D02*
X016921Y018274D01*
X016921Y018373D02*
X026733Y018373D01*
X026733Y018471D02*
X016921Y018471D01*
X016921Y018570D02*
X026733Y018570D01*
X026733Y018668D02*
X016921Y018668D01*
X016921Y018767D02*
X026733Y018767D01*
X026733Y018865D02*
X016921Y018865D01*
X016921Y018964D02*
X026733Y018964D01*
X026733Y019062D02*
X016921Y019062D01*
X016921Y019161D02*
X026733Y019161D01*
X026733Y019259D02*
X016921Y019259D01*
X016921Y019358D02*
X026733Y019358D01*
X026733Y019456D02*
X016921Y019456D01*
X016921Y019555D02*
X026733Y019555D01*
X026733Y019653D02*
X016921Y019653D01*
X016921Y019752D02*
X026733Y019752D01*
X026733Y019850D02*
X016921Y019850D01*
X016921Y019949D02*
X026733Y019949D01*
X026733Y020047D02*
X016921Y020047D01*
X016921Y020146D02*
X026733Y020146D01*
X026733Y020244D02*
X016921Y020244D01*
X016921Y020343D02*
X026733Y020343D01*
X026733Y020441D02*
X016921Y020441D01*
X016921Y020540D02*
X026733Y020540D01*
X026733Y020638D02*
X016921Y020638D01*
X016921Y020737D02*
X026733Y020737D01*
X026733Y020835D02*
X016921Y020835D01*
X016921Y020934D02*
X026733Y020934D01*
X026733Y021032D02*
X018816Y021032D01*
X018766Y020982D02*
X018900Y021116D01*
X018900Y021213D01*
X019311Y021624D01*
X019311Y022006D01*
X019380Y022076D01*
X019380Y022264D01*
X019246Y022398D01*
X019057Y022398D01*
X018924Y022264D01*
X018924Y022076D01*
X018993Y022006D01*
X018993Y021756D01*
X018675Y021438D01*
X018577Y021438D01*
X018444Y021304D01*
X018444Y021116D01*
X018577Y020982D01*
X018766Y020982D01*
X018900Y021131D02*
X026733Y021131D01*
X026733Y021229D02*
X018916Y021229D01*
X019014Y021328D02*
X026733Y021328D01*
X026733Y021426D02*
X019113Y021426D01*
X019211Y021525D02*
X023555Y021525D01*
X023484Y021623D02*
X019310Y021623D01*
X019311Y021722D02*
X023484Y021722D01*
X023519Y021820D02*
X019311Y021820D01*
X019311Y021919D02*
X026733Y021919D01*
X026733Y022017D02*
X019321Y022017D01*
X019380Y022116D02*
X026661Y022116D01*
X026563Y022214D02*
X019380Y022214D01*
X019332Y022313D02*
X026464Y022313D01*
X026366Y022411D02*
X015835Y022411D01*
X015933Y022313D02*
X018972Y022313D01*
X018924Y022214D02*
X016032Y022214D01*
X016130Y022116D02*
X018924Y022116D01*
X018982Y022017D02*
X016229Y022017D01*
X016327Y021919D02*
X018993Y021919D01*
X018993Y021820D02*
X016426Y021820D01*
X016524Y021722D02*
X018958Y021722D01*
X018860Y021623D02*
X016623Y021623D01*
X016721Y021525D02*
X018761Y021525D01*
X018565Y021426D02*
X016820Y021426D01*
X016918Y021328D02*
X018467Y021328D01*
X018444Y021229D02*
X016921Y021229D01*
X016921Y021131D02*
X018444Y021131D01*
X018527Y021032D02*
X016921Y021032D01*
X016463Y021032D02*
X016075Y021032D01*
X016131Y020934D02*
X016463Y020934D01*
X016463Y020835D02*
X016131Y020835D01*
X016131Y020737D02*
X016463Y020737D01*
X016463Y020638D02*
X016131Y020638D01*
X016131Y020540D02*
X016463Y020540D01*
X016463Y020441D02*
X016131Y020441D01*
X016131Y020343D02*
X016463Y020343D01*
X016463Y020244D02*
X016131Y020244D01*
X016131Y020146D02*
X016463Y020146D01*
X016463Y020047D02*
X016131Y020047D01*
X016131Y019949D02*
X016463Y019949D01*
X016463Y019850D02*
X016131Y019850D01*
X016131Y019752D02*
X016463Y019752D01*
X016463Y019653D02*
X016131Y019653D01*
X016131Y019555D02*
X016463Y019555D01*
X016463Y019456D02*
X016131Y019456D01*
X016131Y019358D02*
X016463Y019358D01*
X016463Y019259D02*
X016131Y019259D01*
X016131Y019161D02*
X016463Y019161D01*
X016463Y019062D02*
X016131Y019062D01*
X016131Y018964D02*
X016463Y018964D01*
X016463Y018865D02*
X016131Y018865D01*
X016131Y018767D02*
X016463Y018767D01*
X016463Y018668D02*
X016131Y018668D01*
X016131Y018570D02*
X016463Y018570D01*
X015813Y019949D02*
X005220Y019949D01*
X005220Y020047D02*
X015813Y020047D01*
X015813Y020146D02*
X005220Y020146D01*
X005220Y020244D02*
X015813Y020244D01*
X015813Y020343D02*
X005220Y020343D01*
X005220Y020441D02*
X015813Y020441D01*
X015813Y020540D02*
X005220Y020540D01*
X005220Y020638D02*
X015813Y020638D01*
X015813Y020737D02*
X005220Y020737D01*
X005220Y020835D02*
X015813Y020835D01*
X015723Y020934D02*
X005220Y020934D01*
X005220Y021032D02*
X015625Y021032D01*
X015526Y021131D02*
X005220Y021131D01*
X005220Y021229D02*
X015428Y021229D01*
X015329Y021328D02*
X005220Y021328D01*
X005220Y021426D02*
X015231Y021426D01*
X015132Y021525D02*
X005220Y021525D01*
X005220Y021623D02*
X015034Y021623D01*
X014935Y021722D02*
X005220Y021722D01*
X005220Y021820D02*
X014837Y021820D01*
X014738Y021919D02*
X005220Y021919D01*
X005220Y022017D02*
X014640Y022017D01*
X014541Y022116D02*
X005220Y022116D01*
X005220Y022214D02*
X014443Y022214D01*
X014344Y022313D02*
X005220Y022313D01*
X005220Y022411D02*
X014246Y022411D01*
X014147Y022510D02*
X005220Y022510D01*
X005220Y022608D02*
X014049Y022608D01*
X013950Y022707D02*
X005220Y022707D01*
X005220Y022805D02*
X013852Y022805D01*
X013753Y022904D02*
X005220Y022904D01*
X005220Y023002D02*
X013655Y023002D01*
X013556Y023101D02*
X005220Y023101D01*
X005220Y023199D02*
X013458Y023199D01*
X013359Y023298D02*
X005220Y023298D01*
X005220Y023396D02*
X013261Y023396D01*
X013162Y023495D02*
X005220Y023495D01*
X005220Y023593D02*
X013064Y023593D01*
X012965Y023692D02*
X005220Y023692D01*
X005220Y023790D02*
X012867Y023790D01*
X012768Y023889D02*
X005220Y023889D01*
X005220Y023987D02*
X012670Y023987D01*
X012571Y024086D02*
X005220Y024086D01*
X005220Y024184D02*
X012473Y024184D01*
X012374Y024283D02*
X005220Y024283D01*
X005220Y024381D02*
X012276Y024381D01*
X012177Y024480D02*
X005220Y024480D01*
X005220Y024578D02*
X012079Y024578D01*
X011980Y024677D02*
X005220Y024677D01*
X005220Y024775D02*
X011882Y024775D01*
X011783Y024874D02*
X005220Y024874D01*
X005220Y024972D02*
X011685Y024972D01*
X011586Y025071D02*
X005220Y025071D01*
X005220Y025169D02*
X011488Y025169D01*
X011389Y025268D02*
X005220Y025268D01*
X005220Y025366D02*
X011291Y025366D01*
X011192Y025465D02*
X005220Y025465D01*
X005220Y025563D02*
X011094Y025563D01*
X010995Y025662D02*
X005220Y025662D01*
X005220Y025760D02*
X010897Y025760D01*
X010798Y025859D02*
X005220Y025859D01*
X005220Y025957D02*
X010700Y025957D01*
X010601Y026056D02*
X005220Y026056D01*
X005220Y026154D02*
X010503Y026154D01*
X010404Y026253D02*
X005220Y026253D01*
X005220Y026351D02*
X010306Y026351D01*
X010207Y026450D02*
X005220Y026450D01*
X005220Y026548D02*
X010109Y026548D01*
X010010Y026647D02*
X005220Y026647D01*
X005220Y026745D02*
X009912Y026745D01*
X009813Y026844D02*
X005220Y026844D01*
X005220Y026942D02*
X009715Y026942D01*
X009616Y027041D02*
X005220Y027041D01*
X005220Y027139D02*
X009518Y027139D01*
X009419Y027238D02*
X005220Y027238D01*
X005220Y027336D02*
X009321Y027336D01*
X009222Y027435D02*
X005220Y027435D01*
X005220Y027533D02*
X009124Y027533D01*
X009025Y027632D02*
X005220Y027632D01*
X005220Y027730D02*
X008927Y027730D01*
X008828Y027829D02*
X005220Y027829D01*
X005220Y027927D02*
X008730Y027927D01*
X008631Y028026D02*
X005220Y028026D01*
X005220Y028124D02*
X008533Y028124D01*
X008434Y028223D02*
X005220Y028223D01*
X005220Y028321D02*
X008336Y028321D01*
X008237Y028420D02*
X005220Y028420D01*
X005220Y028518D02*
X008139Y028518D01*
X008040Y028617D02*
X005220Y028617D01*
X005220Y028715D02*
X007942Y028715D01*
X007843Y028814D02*
X005220Y028814D01*
X005220Y028912D02*
X005967Y028912D01*
X005904Y029011D02*
X005220Y029011D01*
X005220Y029109D02*
X005904Y029109D01*
X005947Y029208D02*
X005220Y029208D01*
X005220Y029306D02*
X008292Y029306D01*
X008390Y029208D02*
X007899Y029208D01*
X007998Y029109D02*
X008489Y029109D01*
X008587Y029011D02*
X008096Y029011D01*
X008195Y028912D02*
X008686Y028912D01*
X008784Y028814D02*
X008293Y028814D01*
X008392Y028715D02*
X008883Y028715D01*
X008981Y028617D02*
X008490Y028617D01*
X008589Y028518D02*
X009080Y028518D01*
X009178Y028420D02*
X008687Y028420D01*
X008786Y028321D02*
X009277Y028321D01*
X009375Y028223D02*
X008884Y028223D01*
X008983Y028124D02*
X009474Y028124D01*
X009572Y028026D02*
X009081Y028026D01*
X009180Y027927D02*
X009671Y027927D01*
X009769Y027829D02*
X009278Y027829D01*
X009377Y027730D02*
X009868Y027730D01*
X009966Y027632D02*
X009475Y027632D01*
X009574Y027533D02*
X010065Y027533D01*
X010163Y027435D02*
X009672Y027435D01*
X009771Y027336D02*
X010262Y027336D01*
X010360Y027238D02*
X009869Y027238D01*
X009968Y027139D02*
X010459Y027139D01*
X010557Y027041D02*
X010066Y027041D01*
X010165Y026942D02*
X010656Y026942D01*
X010754Y026844D02*
X010263Y026844D01*
X010362Y026745D02*
X010853Y026745D01*
X010951Y026647D02*
X010460Y026647D01*
X010559Y026548D02*
X011050Y026548D01*
X011148Y026450D02*
X010657Y026450D01*
X010756Y026351D02*
X011247Y026351D01*
X011345Y026253D02*
X010854Y026253D01*
X010953Y026154D02*
X011444Y026154D01*
X011542Y026056D02*
X011051Y026056D01*
X011150Y025957D02*
X011641Y025957D01*
X011739Y025859D02*
X011248Y025859D01*
X011347Y025760D02*
X011838Y025760D01*
X011936Y025662D02*
X011445Y025662D01*
X011544Y025563D02*
X012035Y025563D01*
X012133Y025465D02*
X011642Y025465D01*
X011741Y025366D02*
X012232Y025366D01*
X012330Y025268D02*
X011839Y025268D01*
X011938Y025169D02*
X012429Y025169D01*
X012527Y025071D02*
X012036Y025071D01*
X012135Y024972D02*
X012626Y024972D01*
X012724Y024874D02*
X012233Y024874D01*
X012332Y024775D02*
X012823Y024775D01*
X012921Y024677D02*
X012430Y024677D01*
X012529Y024578D02*
X013020Y024578D01*
X013118Y024480D02*
X012627Y024480D01*
X012726Y024381D02*
X013217Y024381D01*
X013315Y024283D02*
X012824Y024283D01*
X012923Y024184D02*
X013414Y024184D01*
X013512Y024086D02*
X013021Y024086D01*
X013120Y023987D02*
X013611Y023987D01*
X013709Y023889D02*
X013218Y023889D01*
X013317Y023790D02*
X013808Y023790D01*
X013906Y023692D02*
X013415Y023692D01*
X013514Y023593D02*
X014005Y023593D01*
X014103Y023495D02*
X013612Y023495D01*
X013711Y023396D02*
X014202Y023396D01*
X014300Y023298D02*
X013809Y023298D01*
X013908Y023199D02*
X014399Y023199D01*
X014497Y023101D02*
X014006Y023101D01*
X014105Y023002D02*
X014596Y023002D01*
X014694Y022904D02*
X014203Y022904D01*
X014302Y022805D02*
X014793Y022805D01*
X014891Y022707D02*
X014400Y022707D01*
X014499Y022608D02*
X014990Y022608D01*
X015088Y022510D02*
X014597Y022510D01*
X014696Y022411D02*
X015187Y022411D01*
X015285Y022313D02*
X014794Y022313D01*
X014893Y022214D02*
X015384Y022214D01*
X015482Y022116D02*
X014991Y022116D01*
X015090Y022017D02*
X015581Y022017D01*
X015679Y021919D02*
X015188Y021919D01*
X015287Y021820D02*
X015778Y021820D01*
X015876Y021722D02*
X015385Y021722D01*
X015484Y021623D02*
X015975Y021623D01*
X016073Y021525D02*
X015582Y021525D01*
X015681Y021426D02*
X016172Y021426D01*
X016270Y021328D02*
X015779Y021328D01*
X015878Y021229D02*
X016369Y021229D01*
X016463Y021131D02*
X015976Y021131D01*
X015972Y020910D02*
X015972Y016350D01*
X017652Y014670D01*
X025572Y014670D01*
X025738Y014827D02*
X026733Y014827D01*
X026733Y014925D02*
X017622Y014925D01*
X016522Y013743D02*
X014451Y013743D01*
X014451Y013645D02*
X016464Y013645D01*
X016464Y013546D02*
X014451Y013546D01*
X014451Y013448D02*
X016512Y013448D01*
X016692Y013590D02*
X023172Y013590D01*
X028212Y008550D01*
X028408Y008424D02*
X028473Y008424D01*
X028692Y008790D02*
X027132Y010350D01*
X027132Y022230D01*
X026652Y022710D01*
X026652Y025950D01*
X025932Y026670D01*
X025932Y027870D01*
X025765Y028026D02*
X025731Y028026D01*
X025413Y028026D02*
X010220Y028026D01*
X010122Y028124D02*
X025413Y028124D01*
X025413Y028223D02*
X010023Y028223D01*
X009925Y028321D02*
X025438Y028321D01*
X025536Y028420D02*
X009826Y028420D01*
X009728Y028518D02*
X025584Y028518D01*
X025636Y028617D02*
X009629Y028617D01*
X009531Y028715D02*
X028023Y028715D01*
X028121Y028617D02*
X025988Y028617D01*
X026040Y028518D02*
X028220Y028518D01*
X028318Y028420D02*
X026040Y028420D01*
X026479Y028814D02*
X027924Y028814D01*
X027826Y028912D02*
X026578Y028912D01*
X026676Y029011D02*
X027727Y029011D01*
X027629Y029109D02*
X026775Y029109D01*
X026873Y029208D02*
X027530Y029208D01*
X027432Y029306D02*
X026972Y029306D01*
X027070Y029405D02*
X027333Y029405D01*
X027235Y029503D02*
X027169Y029503D01*
X027406Y029700D02*
X033213Y029700D01*
X033213Y029724D02*
X033213Y028656D01*
X030135Y025578D01*
X030037Y025578D01*
X029904Y025444D01*
X029904Y025256D01*
X030037Y025122D01*
X030226Y025122D01*
X030360Y025256D01*
X030360Y025353D01*
X033438Y028431D01*
X033531Y028524D01*
X033531Y029856D01*
X033120Y030267D01*
X033120Y030364D01*
X032986Y030498D01*
X032797Y030498D01*
X032664Y030364D01*
X032664Y030176D01*
X032797Y030042D01*
X032895Y030042D01*
X033213Y029724D01*
X033138Y029799D02*
X027464Y029799D01*
X027563Y029897D02*
X033040Y029897D01*
X032941Y029996D02*
X027661Y029996D01*
X027760Y030094D02*
X032745Y030094D01*
X032664Y030193D02*
X027858Y030193D01*
X027957Y030291D02*
X032664Y030291D01*
X032689Y030390D02*
X028055Y030390D01*
X028154Y030488D02*
X032787Y030488D01*
X032996Y030488D02*
X040759Y030488D01*
X040661Y030390D02*
X033095Y030390D01*
X033120Y030291D02*
X040652Y030291D01*
X040652Y030381D02*
X040652Y029876D01*
X041008Y029519D01*
X041513Y029519D01*
X041870Y029876D01*
X041870Y030381D01*
X041513Y030737D01*
X041008Y030737D01*
X040652Y030381D01*
X040652Y030193D02*
X033194Y030193D01*
X033293Y030094D02*
X040652Y030094D01*
X040652Y029996D02*
X033391Y029996D01*
X033490Y029897D02*
X040652Y029897D01*
X040729Y029799D02*
X033531Y029799D01*
X033531Y029700D02*
X040828Y029700D01*
X040926Y029602D02*
X033531Y029602D01*
X033531Y029503D02*
X044254Y029503D01*
X044254Y029405D02*
X033531Y029405D01*
X033531Y029306D02*
X044254Y029306D01*
X044254Y029208D02*
X033531Y029208D01*
X033531Y029109D02*
X044254Y029109D01*
X044254Y029011D02*
X033531Y029011D01*
X033531Y028912D02*
X044254Y028912D01*
X044254Y028814D02*
X033531Y028814D01*
X033531Y028715D02*
X040994Y028715D01*
X041008Y028730D02*
X040652Y028373D01*
X040652Y027868D01*
X041008Y027511D01*
X041513Y027511D01*
X041870Y027868D01*
X041870Y028373D01*
X041513Y028730D01*
X041008Y028730D01*
X040895Y028617D02*
X033531Y028617D01*
X033525Y028518D02*
X040797Y028518D01*
X040698Y028420D02*
X033426Y028420D01*
X033328Y028321D02*
X040652Y028321D01*
X040652Y028223D02*
X033229Y028223D01*
X033131Y028124D02*
X040652Y028124D01*
X040652Y028026D02*
X035459Y028026D01*
X035520Y027964D02*
X035386Y028098D01*
X035197Y028098D01*
X035064Y027964D01*
X035064Y027776D01*
X035133Y027706D01*
X035133Y027014D01*
X035064Y026944D01*
X035064Y026847D01*
X034986Y026769D01*
X032406Y026769D01*
X032313Y026676D01*
X032295Y026658D01*
X032197Y026658D01*
X032064Y026524D01*
X032064Y026336D01*
X032197Y026202D01*
X032386Y026202D01*
X032520Y026336D01*
X032520Y026433D01*
X032538Y026451D01*
X035118Y026451D01*
X035289Y026622D01*
X035386Y026622D01*
X035520Y026756D01*
X035520Y026944D01*
X035451Y027014D01*
X035451Y027706D01*
X035520Y027776D01*
X035520Y027964D01*
X035520Y027927D02*
X040652Y027927D01*
X040691Y027829D02*
X035520Y027829D01*
X035474Y027730D02*
X040790Y027730D01*
X040888Y027632D02*
X035451Y027632D01*
X035451Y027533D02*
X040987Y027533D01*
X041535Y027533D02*
X044254Y027533D01*
X044254Y027435D02*
X035451Y027435D01*
X035451Y027336D02*
X044254Y027336D01*
X044254Y027238D02*
X035451Y027238D01*
X035451Y027139D02*
X044254Y027139D01*
X044254Y027041D02*
X035451Y027041D01*
X035520Y026942D02*
X044254Y026942D01*
X044254Y026844D02*
X035520Y026844D01*
X035509Y026745D02*
X044254Y026745D01*
X044254Y026647D02*
X035411Y026647D01*
X035215Y026548D02*
X044254Y026548D01*
X044254Y026450D02*
X032536Y026450D01*
X032520Y026351D02*
X044254Y026351D01*
X044254Y026253D02*
X032437Y026253D01*
X032292Y026430D02*
X032472Y026610D01*
X035052Y026610D01*
X035292Y026850D01*
X035292Y027870D01*
X035125Y028026D02*
X033032Y028026D01*
X032934Y027927D02*
X035064Y027927D01*
X035064Y027829D02*
X032835Y027829D01*
X032737Y027730D02*
X035109Y027730D01*
X035133Y027632D02*
X032638Y027632D01*
X032540Y027533D02*
X035133Y027533D01*
X035133Y027435D02*
X032441Y027435D01*
X032343Y027336D02*
X035133Y027336D01*
X035133Y027238D02*
X032244Y027238D01*
X032146Y027139D02*
X035133Y027139D01*
X035133Y027041D02*
X032047Y027041D01*
X031949Y026942D02*
X035064Y026942D01*
X035060Y026844D02*
X031850Y026844D01*
X031752Y026745D02*
X032382Y026745D01*
X032186Y026647D02*
X031653Y026647D01*
X031555Y026548D02*
X032087Y026548D01*
X032064Y026450D02*
X031456Y026450D01*
X031358Y026351D02*
X032064Y026351D01*
X032147Y026253D02*
X031259Y026253D01*
X031161Y026154D02*
X044254Y026154D01*
X044254Y026056D02*
X031062Y026056D01*
X030964Y025957D02*
X044254Y025957D01*
X044254Y025859D02*
X030865Y025859D01*
X030767Y025760D02*
X044254Y025760D01*
X044254Y025662D02*
X030668Y025662D01*
X030570Y025563D02*
X044254Y025563D01*
X044254Y025465D02*
X030471Y025465D01*
X030373Y025366D02*
X044254Y025366D01*
X044254Y025268D02*
X030360Y025268D01*
X030273Y025169D02*
X044254Y025169D01*
X044254Y025071D02*
X028582Y025071D01*
X028582Y025169D02*
X029990Y025169D01*
X029904Y025268D02*
X028582Y025268D01*
X028582Y025366D02*
X029904Y025366D01*
X029924Y025465D02*
X028582Y025465D01*
X028582Y025563D02*
X030022Y025563D01*
X030218Y025662D02*
X028582Y025662D01*
X028582Y025760D02*
X030317Y025760D01*
X030415Y025859D02*
X028582Y025859D01*
X028582Y025957D02*
X030514Y025957D01*
X030612Y026056D02*
X028582Y026056D01*
X028582Y026154D02*
X030711Y026154D01*
X030809Y026253D02*
X028582Y026253D01*
X028582Y026351D02*
X030908Y026351D01*
X031006Y026450D02*
X028582Y026450D01*
X028582Y026548D02*
X031105Y026548D01*
X031203Y026647D02*
X028582Y026647D01*
X028582Y026745D02*
X031302Y026745D01*
X031400Y026844D02*
X028582Y026844D01*
X028582Y026942D02*
X031499Y026942D01*
X031597Y027041D02*
X028582Y027041D01*
X028582Y027139D02*
X031696Y027139D01*
X031794Y027238D02*
X028582Y027238D01*
X028582Y027336D02*
X031893Y027336D01*
X031991Y027435D02*
X028582Y027435D01*
X028582Y027533D02*
X032090Y027533D01*
X032188Y027632D02*
X028582Y027632D01*
X028582Y027730D02*
X032287Y027730D01*
X032385Y027829D02*
X028582Y027829D01*
X028582Y027927D02*
X032484Y027927D01*
X032582Y028026D02*
X028582Y028026D01*
X028582Y028124D02*
X032681Y028124D01*
X032779Y028223D02*
X028582Y028223D01*
X028582Y028321D02*
X032878Y028321D01*
X032976Y028420D02*
X028582Y028420D01*
X028582Y028518D02*
X033075Y028518D01*
X033173Y028617D02*
X028489Y028617D01*
X028391Y028715D02*
X033213Y028715D01*
X033213Y028814D02*
X028292Y028814D01*
X028194Y028912D02*
X033213Y028912D01*
X033213Y029011D02*
X028095Y029011D01*
X027997Y029109D02*
X033213Y029109D01*
X033213Y029208D02*
X027898Y029208D01*
X027800Y029306D02*
X033213Y029306D01*
X033213Y029405D02*
X027701Y029405D01*
X027603Y029503D02*
X033213Y029503D01*
X033213Y029602D02*
X027504Y029602D01*
X026816Y029799D02*
X021245Y029799D01*
X021344Y029897D02*
X026841Y029897D01*
X026742Y029996D02*
X022882Y029996D01*
X022878Y029991D02*
X022929Y030042D01*
X023026Y030042D01*
X023160Y030176D01*
X023160Y030364D01*
X023026Y030498D01*
X022837Y030498D01*
X022704Y030364D01*
X022704Y030309D01*
X021306Y030309D01*
X020946Y029949D01*
X019518Y029949D01*
X019158Y030309D01*
X017811Y031656D01*
X017811Y038376D01*
X017718Y038469D01*
X017338Y038849D01*
X017144Y038849D01*
X017119Y038910D01*
X017010Y039019D01*
X016868Y039078D01*
X016156Y039078D01*
X016013Y039019D01*
X015904Y038910D01*
X015845Y038767D01*
X015845Y038613D01*
X015904Y038470D01*
X016013Y038361D01*
X016156Y038302D01*
X016868Y038302D01*
X017010Y038361D01*
X017119Y038470D01*
X017144Y038531D01*
X017206Y038531D01*
X017493Y038244D01*
X017493Y031524D01*
X017586Y031431D01*
X018933Y030084D01*
X019293Y029724D01*
X019386Y029631D01*
X021078Y029631D01*
X021438Y029991D01*
X022746Y029991D01*
X022878Y029991D01*
X022812Y030150D02*
X022932Y030270D01*
X022812Y030150D02*
X021372Y030150D01*
X021012Y029790D01*
X019452Y029790D01*
X019092Y030150D01*
X017652Y031590D01*
X017652Y033870D01*
X017652Y038310D01*
X017272Y038690D01*
X016512Y038690D01*
X016916Y039058D02*
X020482Y039058D01*
X020482Y039156D02*
X005220Y039156D01*
X005220Y039058D02*
X016107Y039058D01*
X015954Y038959D02*
X005220Y038959D01*
X005220Y038861D02*
X015884Y038861D01*
X015845Y038762D02*
X005220Y038762D01*
X005220Y038664D02*
X015845Y038664D01*
X015865Y038565D02*
X005220Y038565D01*
X005220Y038467D02*
X015908Y038467D01*
X016006Y038368D02*
X005220Y038368D01*
X005220Y038270D02*
X017467Y038270D01*
X017493Y038171D02*
X005220Y038171D01*
X005220Y038073D02*
X016143Y038073D01*
X016156Y038078D02*
X016013Y038019D01*
X015904Y037910D01*
X015845Y037767D01*
X015845Y037613D01*
X015904Y037470D01*
X016013Y037361D01*
X016156Y037302D01*
X016868Y037302D01*
X017010Y037361D01*
X017119Y037470D01*
X017178Y037613D01*
X017178Y037767D01*
X017119Y037910D01*
X017010Y038019D01*
X016868Y038078D01*
X016156Y038078D01*
X015969Y037974D02*
X005220Y037974D01*
X005220Y037876D02*
X015890Y037876D01*
X015849Y037777D02*
X005220Y037777D01*
X005220Y037679D02*
X015845Y037679D01*
X015859Y037580D02*
X005220Y037580D01*
X005220Y037482D02*
X015900Y037482D01*
X015991Y037383D02*
X005220Y037383D01*
X005220Y037285D02*
X017493Y037285D01*
X017493Y037383D02*
X017032Y037383D01*
X017124Y037482D02*
X017493Y037482D01*
X017493Y037580D02*
X017165Y037580D01*
X017178Y037679D02*
X017493Y037679D01*
X017493Y037777D02*
X017174Y037777D01*
X017133Y037876D02*
X017493Y037876D01*
X017493Y037974D02*
X017055Y037974D01*
X016880Y038073D02*
X017493Y038073D01*
X017811Y038073D02*
X018447Y038073D01*
X018439Y038087D02*
X018469Y038028D01*
X018509Y037974D01*
X018556Y037927D01*
X018610Y037888D01*
X018669Y037857D01*
X018733Y037837D01*
X018784Y037829D01*
X018784Y038202D01*
X018879Y038202D01*
X018879Y037829D01*
X018931Y037837D01*
X018994Y037857D01*
X019054Y037888D01*
X019108Y037927D01*
X019155Y037974D01*
X019194Y038028D01*
X019224Y038087D01*
X019245Y038151D01*
X019253Y038202D01*
X018879Y038202D01*
X018879Y038298D01*
X018784Y038298D01*
X018784Y038671D01*
X018733Y038663D01*
X018669Y038643D01*
X018610Y038612D01*
X018556Y038573D01*
X018509Y038526D01*
X018469Y038472D01*
X018439Y038413D01*
X018418Y038349D01*
X018410Y038298D01*
X018784Y038298D01*
X018784Y038202D01*
X018410Y038202D01*
X018418Y038151D01*
X018439Y038087D01*
X018415Y038171D02*
X017811Y038171D01*
X017811Y038270D02*
X018784Y038270D01*
X018879Y038270D02*
X020482Y038270D01*
X020482Y038368D02*
X019239Y038368D01*
X019245Y038349D02*
X019224Y038413D01*
X019194Y038472D01*
X019155Y038526D01*
X019108Y038573D01*
X019054Y038612D01*
X018994Y038643D01*
X018931Y038663D01*
X018879Y038671D01*
X018879Y038298D01*
X019253Y038298D01*
X019245Y038349D01*
X019197Y038467D02*
X020482Y038467D01*
X020482Y038565D02*
X019116Y038565D01*
X018929Y038664D02*
X020482Y038664D01*
X020482Y038762D02*
X017425Y038762D01*
X017523Y038664D02*
X018734Y038664D01*
X018784Y038664D02*
X018879Y038664D01*
X018879Y038565D02*
X018784Y038565D01*
X018784Y038467D02*
X018879Y038467D01*
X018879Y038368D02*
X018784Y038368D01*
X018784Y038171D02*
X018879Y038171D01*
X018879Y038073D02*
X018784Y038073D01*
X018784Y037974D02*
X018879Y037974D01*
X018879Y037876D02*
X018784Y037876D01*
X018633Y037876D02*
X017811Y037876D01*
X017811Y037974D02*
X018508Y037974D01*
X018672Y037654D02*
X017992Y037654D01*
X017928Y037590D01*
X017928Y036910D01*
X017992Y036846D01*
X018511Y036846D01*
X019846Y035511D01*
X021088Y035511D01*
X021157Y035442D01*
X021346Y035442D01*
X021480Y035576D01*
X021480Y035764D01*
X021346Y035898D01*
X021157Y035898D01*
X021088Y035829D01*
X019978Y035829D01*
X018736Y037071D01*
X018736Y037590D01*
X018672Y037654D01*
X018736Y037580D02*
X019090Y037580D01*
X019103Y037593D02*
X018989Y037479D01*
X018928Y037330D01*
X018928Y037170D01*
X018989Y037021D01*
X019103Y036907D01*
X019251Y036846D01*
X019412Y036846D01*
X019561Y036907D01*
X019674Y037021D01*
X019736Y037170D01*
X019736Y037330D01*
X019674Y037479D01*
X019561Y037593D01*
X019412Y037654D01*
X019251Y037654D01*
X019103Y037593D01*
X018992Y037482D02*
X018736Y037482D01*
X018736Y037383D02*
X018950Y037383D01*
X018928Y037285D02*
X018736Y037285D01*
X018736Y037186D02*
X018928Y037186D01*
X018962Y037088D02*
X018736Y037088D01*
X018818Y036989D02*
X019021Y036989D01*
X018916Y036891D02*
X019144Y036891D01*
X019015Y036792D02*
X020482Y036792D01*
X020482Y036694D02*
X019113Y036694D01*
X019212Y036595D02*
X020482Y036595D01*
X020482Y036497D02*
X019310Y036497D01*
X019409Y036398D02*
X020482Y036398D01*
X020482Y036300D02*
X019507Y036300D01*
X019606Y036201D02*
X025442Y036201D01*
X025442Y036103D02*
X019704Y036103D01*
X019803Y036004D02*
X025442Y036004D01*
X025442Y035906D02*
X019901Y035906D01*
X019912Y035670D02*
X018332Y037250D01*
X017928Y037285D02*
X017811Y037285D01*
X017811Y037383D02*
X017928Y037383D01*
X017928Y037482D02*
X017811Y037482D01*
X017811Y037580D02*
X017928Y037580D01*
X017811Y037679D02*
X020482Y037679D01*
X020482Y037777D02*
X017811Y037777D01*
X017811Y038368D02*
X018425Y038368D01*
X018467Y038467D02*
X017720Y038467D01*
X017622Y038565D02*
X018548Y038565D01*
X019248Y038171D02*
X020482Y038171D01*
X020482Y038073D02*
X019217Y038073D01*
X019155Y037974D02*
X020482Y037974D01*
X020482Y037876D02*
X019030Y037876D01*
X019573Y037580D02*
X020482Y037580D01*
X020482Y037482D02*
X019672Y037482D01*
X019714Y037383D02*
X020482Y037383D01*
X020482Y037285D02*
X019736Y037285D01*
X019736Y037186D02*
X020482Y037186D01*
X020482Y037088D02*
X019702Y037088D01*
X019642Y036989D02*
X020482Y036989D01*
X020482Y036891D02*
X019520Y036891D01*
X018860Y036497D02*
X017811Y036497D01*
X017811Y036595D02*
X018762Y036595D01*
X018663Y036694D02*
X017811Y036694D01*
X017811Y036792D02*
X018565Y036792D01*
X018959Y036398D02*
X017811Y036398D01*
X017811Y036300D02*
X019057Y036300D01*
X019156Y036201D02*
X017811Y036201D01*
X017811Y036103D02*
X019254Y036103D01*
X019353Y036004D02*
X017811Y036004D01*
X017811Y035906D02*
X019451Y035906D01*
X019550Y035807D02*
X017811Y035807D01*
X017811Y035709D02*
X019648Y035709D01*
X019747Y035610D02*
X017811Y035610D01*
X017811Y035512D02*
X019845Y035512D01*
X019912Y035670D02*
X021252Y035670D01*
X021416Y035512D02*
X025786Y035512D01*
X025802Y035413D02*
X017811Y035413D01*
X017811Y035315D02*
X025802Y035315D01*
X025802Y035216D02*
X017811Y035216D01*
X017811Y035118D02*
X017917Y035118D01*
X017844Y035019D02*
X017811Y035019D01*
X017811Y034921D02*
X017844Y034921D01*
X017811Y034822D02*
X017877Y034822D01*
X017811Y034724D02*
X017976Y034724D01*
X018168Y034724D02*
X025716Y034724D01*
X025802Y034625D02*
X017811Y034625D01*
X017811Y034527D02*
X025802Y034527D01*
X025802Y034428D02*
X017811Y034428D01*
X017811Y034330D02*
X025888Y034330D01*
X025987Y034231D02*
X017811Y034231D01*
X017811Y034133D02*
X026085Y034133D01*
X026184Y034034D02*
X017811Y034034D01*
X017811Y033936D02*
X026282Y033936D01*
X026381Y033837D02*
X017811Y033837D01*
X017811Y033739D02*
X026479Y033739D01*
X026522Y033640D02*
X017811Y033640D01*
X017811Y033542D02*
X026522Y033542D01*
X026522Y033443D02*
X017811Y033443D01*
X017811Y033345D02*
X026522Y033345D01*
X026522Y033246D02*
X017811Y033246D01*
X017811Y033148D02*
X026522Y033148D01*
X026522Y033049D02*
X017811Y033049D01*
X017811Y032951D02*
X026522Y032951D01*
X026522Y032852D02*
X017811Y032852D01*
X017811Y032754D02*
X026522Y032754D01*
X026522Y032655D02*
X017811Y032655D01*
X017811Y032557D02*
X026522Y032557D01*
X026522Y032458D02*
X017811Y032458D01*
X017811Y032360D02*
X026522Y032360D01*
X026522Y032261D02*
X017811Y032261D01*
X017811Y032163D02*
X019822Y032163D01*
X019837Y032178D02*
X019704Y032044D01*
X019704Y031856D01*
X019773Y031786D01*
X019773Y030674D01*
X019704Y030604D01*
X019704Y030416D01*
X019837Y030282D01*
X020026Y030282D01*
X020160Y030416D01*
X020160Y030604D01*
X020091Y030674D01*
X020091Y031786D01*
X020160Y031856D01*
X020160Y032044D01*
X020026Y032178D01*
X019837Y032178D01*
X019723Y032064D02*
X017811Y032064D01*
X017811Y031966D02*
X019704Y031966D01*
X019704Y031867D02*
X017811Y031867D01*
X017811Y031769D02*
X019773Y031769D01*
X019773Y031670D02*
X017811Y031670D01*
X017895Y031572D02*
X019773Y031572D01*
X019773Y031473D02*
X017994Y031473D01*
X018092Y031375D02*
X019773Y031375D01*
X019773Y031276D02*
X018191Y031276D01*
X018289Y031178D02*
X019773Y031178D01*
X019773Y031079D02*
X018388Y031079D01*
X018486Y030981D02*
X019773Y030981D01*
X019773Y030882D02*
X018585Y030882D01*
X018683Y030784D02*
X019773Y030784D01*
X019773Y030685D02*
X018782Y030685D01*
X018880Y030587D02*
X019704Y030587D01*
X019704Y030488D02*
X018979Y030488D01*
X019077Y030390D02*
X019730Y030390D01*
X019828Y030291D02*
X019176Y030291D01*
X019274Y030193D02*
X021189Y030193D01*
X021288Y030291D02*
X020035Y030291D01*
X020134Y030390D02*
X022729Y030390D01*
X022827Y030488D02*
X020160Y030488D01*
X020160Y030587D02*
X026522Y030587D01*
X026522Y030685D02*
X020091Y030685D01*
X020091Y030784D02*
X026522Y030784D01*
X026522Y030882D02*
X020091Y030882D01*
X020091Y030981D02*
X026522Y030981D01*
X026522Y031079D02*
X020091Y031079D01*
X020091Y031178D02*
X026522Y031178D01*
X026522Y031276D02*
X020091Y031276D01*
X020091Y031375D02*
X026522Y031375D01*
X026522Y031473D02*
X020091Y031473D01*
X020091Y031572D02*
X026522Y031572D01*
X026522Y031670D02*
X020091Y031670D01*
X020091Y031769D02*
X026522Y031769D01*
X026522Y031867D02*
X020160Y031867D01*
X020160Y031966D02*
X026522Y031966D01*
X026522Y032064D02*
X020140Y032064D01*
X020042Y032163D02*
X026522Y032163D01*
X026782Y032163D02*
X029180Y032163D01*
X029279Y032261D02*
X026782Y032261D01*
X026782Y032360D02*
X029377Y032360D01*
X029476Y032458D02*
X026782Y032458D01*
X026782Y032557D02*
X029574Y032557D01*
X029673Y032655D02*
X026782Y032655D01*
X026782Y032754D02*
X029771Y032754D01*
X029870Y032852D02*
X026782Y032852D01*
X026782Y032951D02*
X029903Y032951D01*
X029903Y033049D02*
X026782Y033049D01*
X026782Y033148D02*
X029903Y033148D01*
X029903Y033246D02*
X026782Y033246D01*
X026782Y033345D02*
X029903Y033345D01*
X029903Y033443D02*
X026782Y033443D01*
X026782Y033542D02*
X029903Y033542D01*
X029903Y033640D02*
X026782Y033640D01*
X026782Y033739D02*
X029903Y033739D01*
X029903Y033837D02*
X026749Y033837D01*
X026650Y033936D02*
X029903Y033936D01*
X029903Y034034D02*
X026552Y034034D01*
X026453Y034133D02*
X029903Y034133D01*
X029903Y034231D02*
X026355Y034231D01*
X026256Y034330D02*
X029903Y034330D01*
X029903Y034428D02*
X026158Y034428D01*
X026062Y034527D02*
X029903Y034527D01*
X029903Y034625D02*
X026062Y034625D01*
X026062Y034724D02*
X029903Y034724D01*
X029903Y034822D02*
X026062Y034822D01*
X026062Y034921D02*
X029903Y034921D01*
X029903Y035019D02*
X026062Y035019D01*
X026062Y035118D02*
X029903Y035118D01*
X029903Y035216D02*
X026062Y035216D01*
X026062Y035315D02*
X029903Y035315D01*
X029903Y035413D02*
X026062Y035413D01*
X026062Y035512D02*
X029903Y035512D01*
X029903Y035610D02*
X026056Y035610D01*
X025957Y035709D02*
X029903Y035709D01*
X029903Y035807D02*
X025859Y035807D01*
X025760Y035906D02*
X029903Y035906D01*
X029903Y036004D02*
X025702Y036004D01*
X025702Y036103D02*
X029903Y036103D01*
X029903Y036201D02*
X025702Y036201D01*
X025702Y036300D02*
X029903Y036300D01*
X029903Y036398D02*
X025702Y036398D01*
X025702Y036497D02*
X029903Y036497D01*
X029955Y036595D02*
X025702Y036595D01*
X025702Y036694D02*
X044254Y036694D01*
X044254Y036792D02*
X025702Y036792D01*
X025702Y036891D02*
X044254Y036891D01*
X044254Y036989D02*
X025702Y036989D01*
X025702Y037088D02*
X044254Y037088D01*
X044254Y037186D02*
X025702Y037186D01*
X025702Y037285D02*
X044254Y037285D01*
X044254Y037383D02*
X025702Y037383D01*
X025702Y037482D02*
X044254Y037482D01*
X044254Y037580D02*
X025702Y037580D01*
X025702Y037679D02*
X044254Y037679D01*
X044254Y037777D02*
X025702Y037777D01*
X025702Y037876D02*
X044254Y037876D01*
X044254Y037974D02*
X025702Y037974D01*
X025702Y038073D02*
X044254Y038073D01*
X044254Y038171D02*
X025702Y038171D01*
X025702Y038270D02*
X044254Y038270D01*
X044254Y038368D02*
X025702Y038368D01*
X025702Y038467D02*
X044254Y038467D01*
X044254Y038565D02*
X025702Y038565D01*
X025702Y038664D02*
X044254Y038664D01*
X044254Y038762D02*
X025702Y038762D01*
X025702Y038861D02*
X044254Y038861D01*
X044254Y038959D02*
X025702Y038959D01*
X025702Y039058D02*
X044254Y039058D01*
X044254Y039156D02*
X025702Y039156D01*
X025702Y039255D02*
X044254Y039255D01*
X044254Y036595D02*
X030308Y036595D01*
X030361Y036497D02*
X044254Y036497D01*
X044254Y036398D02*
X030361Y036398D01*
X030361Y036300D02*
X044254Y036300D01*
X044254Y036201D02*
X030361Y036201D01*
X030361Y036103D02*
X044254Y036103D01*
X044254Y036004D02*
X030361Y036004D01*
X030361Y035906D02*
X044254Y035906D01*
X044254Y035807D02*
X030361Y035807D01*
X030361Y035709D02*
X040980Y035709D01*
X041008Y035737D02*
X040652Y035381D01*
X040652Y034876D01*
X041008Y034519D01*
X041513Y034519D01*
X041870Y034876D01*
X041870Y035381D01*
X041513Y035737D01*
X041008Y035737D01*
X040881Y035610D02*
X030361Y035610D01*
X030361Y035512D02*
X040783Y035512D01*
X040684Y035413D02*
X030361Y035413D01*
X030361Y035315D02*
X040652Y035315D01*
X040652Y035216D02*
X030361Y035216D01*
X030361Y035118D02*
X040652Y035118D01*
X040652Y035019D02*
X030361Y035019D01*
X030361Y034921D02*
X040652Y034921D01*
X040706Y034822D02*
X030361Y034822D01*
X030361Y034724D02*
X040804Y034724D01*
X040903Y034625D02*
X030361Y034625D01*
X030361Y034527D02*
X041001Y034527D01*
X041520Y034527D02*
X044254Y034527D01*
X044254Y034625D02*
X041619Y034625D01*
X041717Y034724D02*
X044254Y034724D01*
X044254Y034822D02*
X041816Y034822D01*
X041870Y034921D02*
X044254Y034921D01*
X044254Y035019D02*
X041870Y035019D01*
X041870Y035118D02*
X044254Y035118D01*
X044254Y035216D02*
X041870Y035216D01*
X041870Y035315D02*
X044254Y035315D01*
X044254Y035413D02*
X041837Y035413D01*
X041739Y035512D02*
X044254Y035512D01*
X044254Y035610D02*
X041640Y035610D01*
X041542Y035709D02*
X044254Y035709D01*
X044254Y034428D02*
X030361Y034428D01*
X030361Y034330D02*
X044254Y034330D01*
X044254Y034231D02*
X030361Y034231D01*
X030361Y034133D02*
X044254Y034133D01*
X044254Y034034D02*
X030361Y034034D01*
X030361Y033936D02*
X044254Y033936D01*
X044254Y033837D02*
X030361Y033837D01*
X030361Y033739D02*
X044254Y033739D01*
X044254Y033640D02*
X030361Y033640D01*
X030361Y033542D02*
X044254Y033542D01*
X044254Y033443D02*
X030361Y033443D01*
X030361Y033345D02*
X044254Y033345D01*
X044254Y033246D02*
X030361Y033246D01*
X030361Y033148D02*
X044254Y033148D01*
X044254Y033049D02*
X030361Y033049D01*
X030361Y032951D02*
X044254Y032951D01*
X044254Y032852D02*
X030361Y032852D01*
X030361Y032754D02*
X044254Y032754D01*
X044254Y032655D02*
X041603Y032655D01*
X041513Y032745D02*
X041008Y032745D01*
X040652Y032389D01*
X040652Y031884D01*
X041008Y031527D01*
X041513Y031527D01*
X041870Y031884D01*
X041870Y032389D01*
X041513Y032745D01*
X041702Y032557D02*
X044254Y032557D01*
X044254Y032458D02*
X041800Y032458D01*
X041870Y032360D02*
X044254Y032360D01*
X044254Y032261D02*
X041870Y032261D01*
X041870Y032163D02*
X044254Y032163D01*
X044254Y032064D02*
X041870Y032064D01*
X041870Y031966D02*
X044254Y031966D01*
X044254Y031867D02*
X041853Y031867D01*
X041754Y031769D02*
X044254Y031769D01*
X044254Y031670D02*
X041656Y031670D01*
X041557Y031572D02*
X044254Y031572D01*
X044254Y031473D02*
X029139Y031473D01*
X029237Y031572D02*
X040964Y031572D01*
X040866Y031670D02*
X029336Y031670D01*
X029434Y031769D02*
X040767Y031769D01*
X040669Y031867D02*
X029533Y031867D01*
X029631Y031966D02*
X040652Y031966D01*
X040652Y032064D02*
X029730Y032064D01*
X029828Y032163D02*
X040652Y032163D01*
X040652Y032261D02*
X029927Y032261D01*
X030025Y032360D02*
X040652Y032360D01*
X040721Y032458D02*
X030124Y032458D01*
X030222Y032557D02*
X040820Y032557D01*
X040918Y032655D02*
X030321Y032655D01*
X029082Y032064D02*
X026782Y032064D01*
X026782Y031966D02*
X028983Y031966D01*
X028885Y031867D02*
X026782Y031867D01*
X026782Y031769D02*
X028786Y031769D01*
X028688Y031670D02*
X026782Y031670D01*
X026782Y031572D02*
X028589Y031572D01*
X028491Y031473D02*
X026782Y031473D01*
X026782Y031375D02*
X028392Y031375D01*
X028294Y031276D02*
X026782Y031276D01*
X026782Y031178D02*
X028195Y031178D01*
X028097Y031079D02*
X026782Y031079D01*
X026782Y030981D02*
X027998Y030981D01*
X027900Y030882D02*
X026782Y030882D01*
X026782Y030784D02*
X027801Y030784D01*
X027703Y030685D02*
X026782Y030685D01*
X026782Y030587D02*
X027604Y030587D01*
X027506Y030488D02*
X026782Y030488D01*
X026782Y030390D02*
X027407Y030390D01*
X027309Y030291D02*
X026815Y030291D01*
X026913Y030193D02*
X027210Y030193D01*
X027112Y030094D02*
X027012Y030094D01*
X026644Y030094D02*
X023078Y030094D01*
X023160Y030193D02*
X026545Y030193D01*
X026522Y030291D02*
X023160Y030291D01*
X023135Y030390D02*
X026522Y030390D01*
X026522Y030488D02*
X023036Y030488D01*
X021091Y030094D02*
X019373Y030094D01*
X019471Y029996D02*
X020992Y029996D01*
X021147Y029700D02*
X026718Y029700D01*
X026619Y029602D02*
X018884Y029602D01*
X018786Y029700D02*
X019317Y029700D01*
X019218Y029799D02*
X018687Y029799D01*
X018589Y029897D02*
X019120Y029897D01*
X019021Y029996D02*
X018490Y029996D01*
X018392Y030094D02*
X018923Y030094D01*
X018824Y030193D02*
X018293Y030193D01*
X018195Y030291D02*
X018726Y030291D01*
X018627Y030390D02*
X018096Y030390D01*
X017998Y030488D02*
X018529Y030488D01*
X018430Y030587D02*
X017899Y030587D01*
X017801Y030685D02*
X018332Y030685D01*
X018233Y030784D02*
X017702Y030784D01*
X017604Y030882D02*
X018135Y030882D01*
X018036Y030981D02*
X017505Y030981D01*
X017407Y031079D02*
X017938Y031079D01*
X017839Y031178D02*
X017308Y031178D01*
X017210Y031276D02*
X017741Y031276D01*
X017642Y031375D02*
X017111Y031375D01*
X017013Y031473D02*
X017544Y031473D01*
X017493Y031572D02*
X016914Y031572D01*
X016816Y031670D02*
X017493Y031670D01*
X017493Y031769D02*
X016717Y031769D01*
X016619Y031867D02*
X017493Y031867D01*
X017493Y031966D02*
X016520Y031966D01*
X016365Y031473D02*
X007299Y031473D01*
X007200Y031375D02*
X016463Y031375D01*
X016562Y031276D02*
X007102Y031276D01*
X007003Y031178D02*
X016660Y031178D01*
X016759Y031079D02*
X006905Y031079D01*
X006881Y030981D02*
X016857Y030981D01*
X016956Y030882D02*
X007860Y030882D01*
X007965Y030784D02*
X017054Y030784D01*
X017153Y030685D02*
X008015Y030685D01*
X008040Y030587D02*
X017251Y030587D01*
X017350Y030488D02*
X008040Y030488D01*
X008040Y030390D02*
X017448Y030390D01*
X017547Y030291D02*
X008040Y030291D01*
X008053Y030193D02*
X017645Y030193D01*
X017744Y030094D02*
X008152Y030094D01*
X008250Y029996D02*
X017842Y029996D01*
X017941Y029897D02*
X008349Y029897D01*
X008447Y029799D02*
X018039Y029799D01*
X018138Y029700D02*
X008546Y029700D01*
X008644Y029602D02*
X018236Y029602D01*
X018335Y029503D02*
X008743Y029503D01*
X008841Y029405D02*
X018433Y029405D01*
X018532Y029306D02*
X008940Y029306D01*
X009038Y029208D02*
X018630Y029208D01*
X018729Y029109D02*
X009137Y029109D01*
X009235Y029011D02*
X018827Y029011D01*
X018926Y028912D02*
X009334Y028912D01*
X009432Y028814D02*
X019024Y028814D01*
X018983Y028855D02*
X018983Y028855D01*
X019278Y029208D02*
X026225Y029208D01*
X026324Y029306D02*
X019180Y029306D01*
X019081Y029405D02*
X026422Y029405D01*
X026521Y029503D02*
X018983Y029503D01*
X019932Y030510D02*
X019932Y031950D01*
X017493Y032064D02*
X005220Y032064D01*
X005220Y031966D02*
X007143Y031966D01*
X007045Y031867D02*
X005220Y031867D01*
X005220Y031769D02*
X006946Y031769D01*
X006848Y031670D02*
X005220Y031670D01*
X005220Y031572D02*
X006749Y031572D01*
X006651Y031473D02*
X005220Y031473D01*
X005220Y031375D02*
X006552Y031375D01*
X006454Y031276D02*
X005220Y031276D01*
X005220Y031178D02*
X006423Y031178D01*
X006423Y031079D02*
X005220Y031079D01*
X005220Y030981D02*
X006423Y030981D01*
X006423Y030882D02*
X005220Y030882D01*
X005220Y030784D02*
X006338Y030784D01*
X006288Y030685D02*
X005220Y030685D01*
X005220Y030587D02*
X006264Y030587D01*
X006264Y030488D02*
X005220Y030488D01*
X005220Y030390D02*
X006264Y030390D01*
X006264Y030291D02*
X005220Y030291D01*
X005220Y030193D02*
X006264Y030193D01*
X006264Y030094D02*
X005220Y030094D01*
X005220Y029996D02*
X006264Y029996D01*
X006271Y029897D02*
X005220Y029897D01*
X005220Y029799D02*
X006312Y029799D01*
X006395Y029700D02*
X005220Y029700D01*
X005220Y029602D02*
X007996Y029602D01*
X008095Y029503D02*
X005220Y029503D01*
X005220Y029405D02*
X008193Y029405D01*
X007812Y029070D02*
X015972Y020910D01*
X015736Y022510D02*
X026267Y022510D01*
X026253Y022608D02*
X015638Y022608D01*
X015539Y022707D02*
X026253Y022707D01*
X026253Y022805D02*
X015441Y022805D01*
X015342Y022904D02*
X026253Y022904D01*
X026253Y023002D02*
X015244Y023002D01*
X015145Y023101D02*
X026253Y023101D01*
X026253Y023199D02*
X015047Y023199D01*
X014948Y023298D02*
X026253Y023298D01*
X026253Y023396D02*
X014850Y023396D01*
X014751Y023495D02*
X026253Y023495D01*
X026253Y023593D02*
X014653Y023593D01*
X014554Y023692D02*
X026253Y023692D01*
X026253Y023790D02*
X014456Y023790D01*
X014357Y023889D02*
X026253Y023889D01*
X026253Y023987D02*
X014259Y023987D01*
X014160Y024086D02*
X026253Y024086D01*
X026253Y024184D02*
X014062Y024184D01*
X013963Y024283D02*
X026253Y024283D01*
X026253Y024381D02*
X013865Y024381D01*
X013766Y024480D02*
X026253Y024480D01*
X026253Y024578D02*
X013668Y024578D01*
X013569Y024677D02*
X026253Y024677D01*
X026253Y024775D02*
X013471Y024775D01*
X013372Y024874D02*
X026253Y024874D01*
X026253Y024972D02*
X013274Y024972D01*
X013175Y025071D02*
X026253Y025071D01*
X026253Y025169D02*
X013077Y025169D01*
X012978Y025268D02*
X026253Y025268D01*
X026253Y025366D02*
X012880Y025366D01*
X012781Y025465D02*
X026253Y025465D01*
X026253Y025563D02*
X012683Y025563D01*
X012584Y025662D02*
X026253Y025662D01*
X026253Y025760D02*
X012486Y025760D01*
X012387Y025859D02*
X026158Y025859D01*
X026060Y025957D02*
X012289Y025957D01*
X012190Y026056D02*
X025961Y026056D01*
X025863Y026154D02*
X012092Y026154D01*
X011993Y026253D02*
X025764Y026253D01*
X025666Y026351D02*
X011895Y026351D01*
X011796Y026450D02*
X025567Y026450D01*
X025469Y026548D02*
X011698Y026548D01*
X011599Y026647D02*
X025413Y026647D01*
X025413Y026745D02*
X011501Y026745D01*
X011402Y026844D02*
X025413Y026844D01*
X025413Y026942D02*
X011304Y026942D01*
X011205Y027041D02*
X025413Y027041D01*
X025413Y027139D02*
X011107Y027139D01*
X011008Y027238D02*
X025413Y027238D01*
X025413Y027336D02*
X010910Y027336D01*
X010811Y027435D02*
X025413Y027435D01*
X025413Y027533D02*
X010713Y027533D01*
X010614Y027632D02*
X025413Y027632D01*
X025413Y027730D02*
X010516Y027730D01*
X010417Y027829D02*
X025413Y027829D01*
X025413Y027927D02*
X010319Y027927D01*
X007812Y029070D02*
X006132Y029070D01*
X006909Y029700D02*
X007395Y029700D01*
X007312Y029799D02*
X006992Y029799D01*
X007032Y029897D02*
X007271Y029897D01*
X007264Y029996D02*
X007040Y029996D01*
X007040Y030094D02*
X007264Y030094D01*
X007264Y030193D02*
X007040Y030193D01*
X007040Y030291D02*
X007264Y030291D01*
X007264Y030390D02*
X007040Y030390D01*
X007040Y030488D02*
X007264Y030488D01*
X007264Y030587D02*
X007040Y030587D01*
X007015Y030685D02*
X007288Y030685D01*
X007338Y030784D02*
X006965Y030784D01*
X006881Y030882D02*
X007443Y030882D01*
X005220Y032163D02*
X017493Y032163D01*
X017493Y032261D02*
X005220Y032261D01*
X005220Y032360D02*
X017493Y032360D01*
X017493Y032458D02*
X005220Y032458D01*
X005220Y032557D02*
X017493Y032557D01*
X017493Y032655D02*
X005220Y032655D01*
X005220Y032754D02*
X017493Y032754D01*
X017493Y032852D02*
X005220Y032852D01*
X005220Y032951D02*
X017493Y032951D01*
X017493Y033049D02*
X005220Y033049D01*
X005220Y033148D02*
X017493Y033148D01*
X017493Y033246D02*
X005220Y033246D01*
X005220Y033345D02*
X017493Y033345D01*
X017493Y033443D02*
X005220Y033443D01*
X005220Y033542D02*
X017493Y033542D01*
X017493Y033640D02*
X005220Y033640D01*
X005220Y033739D02*
X017493Y033739D01*
X017493Y033837D02*
X005220Y033837D01*
X005220Y033936D02*
X017493Y033936D01*
X017493Y034034D02*
X005220Y034034D01*
X005220Y034133D02*
X017493Y034133D01*
X017493Y034231D02*
X005220Y034231D01*
X005220Y034330D02*
X016043Y034330D01*
X016019Y034341D02*
X016077Y034312D01*
X016138Y034293D01*
X016201Y034283D01*
X016462Y034283D01*
X016462Y034640D01*
X016562Y034640D01*
X016562Y034740D01*
X017195Y034740D01*
X017188Y034785D01*
X017168Y034846D01*
X017139Y034904D01*
X017101Y034955D01*
X017056Y035001D01*
X017004Y035039D01*
X016947Y035068D01*
X016886Y035087D01*
X016823Y035097D01*
X016562Y035097D01*
X016562Y034740D01*
X016462Y034740D01*
X016462Y035097D01*
X016201Y035097D01*
X016138Y035087D01*
X016077Y035068D01*
X016019Y035039D01*
X015968Y035001D01*
X015922Y034955D01*
X015885Y034904D01*
X015855Y034846D01*
X015836Y034785D01*
X015828Y034740D01*
X016462Y034740D01*
X016462Y034640D01*
X015828Y034640D01*
X015836Y034595D01*
X015855Y034534D01*
X015885Y034476D01*
X015922Y034425D01*
X015968Y034379D01*
X016019Y034341D01*
X015920Y034428D02*
X005220Y034428D01*
X005220Y034527D02*
X015859Y034527D01*
X015831Y034625D02*
X005220Y034625D01*
X005220Y034724D02*
X016462Y034724D01*
X016462Y034822D02*
X016562Y034822D01*
X016562Y034724D02*
X017493Y034724D01*
X017493Y034822D02*
X017176Y034822D01*
X017127Y034921D02*
X017493Y034921D01*
X017493Y035019D02*
X017031Y035019D01*
X016898Y035315D02*
X017493Y035315D01*
X017493Y035413D02*
X017062Y035413D01*
X017010Y035361D02*
X017119Y035470D01*
X017178Y035613D01*
X017178Y035767D01*
X017119Y035910D01*
X017010Y036019D01*
X016868Y036078D01*
X016156Y036078D01*
X016013Y036019D01*
X015904Y035910D01*
X015845Y035767D01*
X015845Y035613D01*
X015904Y035470D01*
X016013Y035361D01*
X016156Y035302D01*
X016868Y035302D01*
X017010Y035361D01*
X017136Y035512D02*
X017493Y035512D01*
X017493Y035610D02*
X017177Y035610D01*
X017178Y035709D02*
X017493Y035709D01*
X017493Y035807D02*
X017162Y035807D01*
X017121Y035906D02*
X017493Y035906D01*
X017493Y036004D02*
X017025Y036004D01*
X016868Y036302D02*
X016156Y036302D01*
X016013Y036361D01*
X015904Y036470D01*
X015845Y036613D01*
X015845Y036767D01*
X015904Y036910D01*
X016013Y037019D01*
X016156Y037078D01*
X016868Y037078D01*
X017010Y037019D01*
X017119Y036910D01*
X017178Y036767D01*
X017178Y036613D01*
X017119Y036470D01*
X017010Y036361D01*
X016868Y036302D01*
X017047Y036398D02*
X017493Y036398D01*
X017493Y036300D02*
X005220Y036300D01*
X005220Y036398D02*
X015976Y036398D01*
X015893Y036497D02*
X005220Y036497D01*
X005220Y036595D02*
X015853Y036595D01*
X015845Y036694D02*
X005220Y036694D01*
X005220Y036792D02*
X015856Y036792D01*
X015896Y036891D02*
X005220Y036891D01*
X005220Y036989D02*
X015984Y036989D01*
X017040Y036989D02*
X017493Y036989D01*
X017493Y036891D02*
X017127Y036891D01*
X017168Y036792D02*
X017493Y036792D01*
X017493Y036694D02*
X017178Y036694D01*
X017171Y036595D02*
X017493Y036595D01*
X017493Y036497D02*
X017130Y036497D01*
X017493Y036201D02*
X005220Y036201D01*
X005220Y036103D02*
X017493Y036103D01*
X017811Y036891D02*
X017947Y036891D01*
X017928Y036989D02*
X017811Y036989D01*
X017811Y037088D02*
X017928Y037088D01*
X017928Y037186D02*
X017811Y037186D01*
X017493Y037186D02*
X005220Y037186D01*
X005220Y037088D02*
X017493Y037088D01*
X017369Y038368D02*
X017017Y038368D01*
X017116Y038467D02*
X017270Y038467D01*
X017140Y038861D02*
X020482Y038861D01*
X020482Y038959D02*
X017070Y038959D01*
X020482Y039255D02*
X005220Y039255D01*
X005220Y036004D02*
X015999Y036004D01*
X015903Y035906D02*
X005220Y035906D01*
X005220Y035807D02*
X015862Y035807D01*
X015845Y035709D02*
X005220Y035709D01*
X005220Y035610D02*
X015846Y035610D01*
X015887Y035512D02*
X005220Y035512D01*
X005220Y035413D02*
X015961Y035413D01*
X016126Y035315D02*
X005220Y035315D01*
X005220Y035216D02*
X017493Y035216D01*
X017493Y035118D02*
X005220Y035118D01*
X005220Y035019D02*
X015993Y035019D01*
X015897Y034921D02*
X005220Y034921D01*
X005220Y034822D02*
X015847Y034822D01*
X016462Y034921D02*
X016562Y034921D01*
X016562Y035019D02*
X016462Y035019D01*
X016562Y034640D02*
X017195Y034640D01*
X017188Y034595D01*
X017168Y034534D01*
X017139Y034476D01*
X017101Y034425D01*
X017056Y034379D01*
X017004Y034341D01*
X016947Y034312D01*
X016886Y034293D01*
X016823Y034283D01*
X016562Y034283D01*
X016562Y034640D01*
X016562Y034625D02*
X016462Y034625D01*
X016462Y034527D02*
X016562Y034527D01*
X016562Y034428D02*
X016462Y034428D01*
X016462Y034330D02*
X016562Y034330D01*
X016981Y034330D02*
X017493Y034330D01*
X017493Y034428D02*
X017104Y034428D01*
X017165Y034527D02*
X017493Y034527D01*
X017493Y034625D02*
X017193Y034625D01*
X018072Y034950D02*
X025812Y034950D01*
X025657Y035118D02*
X018227Y035118D01*
X021437Y035807D02*
X025491Y035807D01*
X025589Y035709D02*
X021480Y035709D01*
X021480Y035610D02*
X025688Y035610D01*
X025442Y036300D02*
X025262Y036300D01*
X025262Y036398D02*
X025442Y036398D01*
X025442Y036497D02*
X025262Y036497D01*
X025262Y036595D02*
X025442Y036595D01*
X025442Y036694D02*
X025262Y036694D01*
X025262Y036792D02*
X025442Y036792D01*
X025442Y036891D02*
X025262Y036891D01*
X025262Y036989D02*
X025442Y036989D01*
X025442Y037088D02*
X025262Y037088D01*
X025262Y037186D02*
X025442Y037186D01*
X025442Y037285D02*
X025262Y037285D01*
X025262Y037383D02*
X025442Y037383D01*
X025442Y037482D02*
X025262Y037482D01*
X025262Y037580D02*
X025442Y037580D01*
X025442Y037679D02*
X025262Y037679D01*
X025262Y037777D02*
X025442Y037777D01*
X025442Y037876D02*
X025262Y037876D01*
X025262Y037974D02*
X025442Y037974D01*
X025442Y038073D02*
X025262Y038073D01*
X025262Y038171D02*
X025442Y038171D01*
X025442Y038270D02*
X025262Y038270D01*
X025262Y038368D02*
X025442Y038368D01*
X025442Y038467D02*
X025262Y038467D01*
X025262Y038565D02*
X025442Y038565D01*
X025442Y038664D02*
X025262Y038664D01*
X025262Y038762D02*
X025442Y038762D01*
X025442Y038861D02*
X025262Y038861D01*
X025262Y038959D02*
X025442Y038959D01*
X025442Y039058D02*
X025262Y039058D01*
X025262Y039156D02*
X025442Y039156D01*
X025442Y039255D02*
X025262Y039255D01*
X029040Y031375D02*
X044254Y031375D01*
X044254Y031276D02*
X028942Y031276D01*
X028843Y031178D02*
X044254Y031178D01*
X044254Y031079D02*
X028745Y031079D01*
X028646Y030981D02*
X044254Y030981D01*
X044254Y030882D02*
X028548Y030882D01*
X028449Y030784D02*
X044254Y030784D01*
X044254Y030685D02*
X041565Y030685D01*
X041664Y030587D02*
X044254Y030587D01*
X044254Y030488D02*
X041762Y030488D01*
X041861Y030390D02*
X044254Y030390D01*
X044254Y030291D02*
X041870Y030291D01*
X041870Y030193D02*
X044254Y030193D01*
X044254Y030094D02*
X041870Y030094D01*
X041870Y029996D02*
X044254Y029996D01*
X044254Y029897D02*
X041870Y029897D01*
X041792Y029799D02*
X044254Y029799D01*
X044254Y029700D02*
X041694Y029700D01*
X041595Y029602D02*
X044254Y029602D01*
X044254Y028715D02*
X041528Y028715D01*
X041626Y028617D02*
X044254Y028617D01*
X044254Y028518D02*
X041725Y028518D01*
X041823Y028420D02*
X044254Y028420D01*
X044254Y028321D02*
X041870Y028321D01*
X041870Y028223D02*
X044254Y028223D01*
X044254Y028124D02*
X041870Y028124D01*
X041870Y028026D02*
X044254Y028026D01*
X044254Y027927D02*
X041870Y027927D01*
X041830Y027829D02*
X044254Y027829D01*
X044254Y027730D02*
X041732Y027730D01*
X041633Y027632D02*
X044254Y027632D01*
X044254Y024972D02*
X028582Y024972D01*
X028582Y024874D02*
X044254Y024874D01*
X044254Y022608D02*
X029338Y022608D01*
X029436Y022510D02*
X044254Y022510D01*
X044254Y021623D02*
X036563Y021623D01*
X036661Y021525D02*
X044254Y021525D01*
X044254Y021426D02*
X036760Y021426D01*
X036858Y021328D02*
X044254Y021328D01*
X044254Y021229D02*
X036957Y021229D01*
X037055Y021131D02*
X044254Y021131D01*
X044254Y021032D02*
X037154Y021032D01*
X037252Y020934D02*
X044254Y020934D01*
X044254Y020835D02*
X037351Y020835D01*
X037449Y020737D02*
X044254Y020737D01*
X044254Y020638D02*
X042439Y020638D01*
X042443Y020636D02*
X042215Y020731D01*
X041968Y020731D01*
X041740Y020636D01*
X041565Y020462D01*
X041471Y020233D01*
X041471Y019987D01*
X041565Y019758D01*
X041740Y019584D01*
X041968Y019489D01*
X042215Y019489D01*
X042443Y019584D01*
X042618Y019758D01*
X042713Y019987D01*
X042713Y020233D01*
X042618Y020462D01*
X042443Y020636D01*
X042540Y020540D02*
X044254Y020540D01*
X044254Y020441D02*
X042627Y020441D01*
X042667Y020343D02*
X044254Y020343D01*
X044254Y020244D02*
X042708Y020244D01*
X042713Y020146D02*
X044254Y020146D01*
X044254Y020047D02*
X042713Y020047D01*
X042697Y019949D02*
X044254Y019949D01*
X044254Y019850D02*
X042656Y019850D01*
X042611Y019752D02*
X044254Y019752D01*
X044254Y019653D02*
X042513Y019653D01*
X042373Y019555D02*
X044254Y019555D01*
X044254Y019456D02*
X038730Y019456D01*
X038828Y019358D02*
X044254Y019358D01*
X044254Y019259D02*
X038927Y019259D01*
X039025Y019161D02*
X044254Y019161D01*
X044254Y019062D02*
X039124Y019062D01*
X038631Y019555D02*
X041810Y019555D01*
X041671Y019653D02*
X038533Y019653D01*
X038434Y019752D02*
X041572Y019752D01*
X041527Y019850D02*
X038336Y019850D01*
X038237Y019949D02*
X041487Y019949D01*
X041471Y020047D02*
X038139Y020047D01*
X038040Y020146D02*
X041471Y020146D01*
X041475Y020244D02*
X037942Y020244D01*
X037843Y020343D02*
X041516Y020343D01*
X041557Y020441D02*
X037745Y020441D01*
X037646Y020540D02*
X041643Y020540D01*
X041744Y020638D02*
X037548Y020638D01*
X038165Y019653D02*
X028951Y019653D01*
X029040Y019555D02*
X038263Y019555D01*
X033839Y016206D02*
X043080Y016206D01*
X043007Y016107D02*
X033840Y016107D01*
X033833Y016009D02*
X042966Y016009D01*
X042965Y015910D02*
X033771Y015910D01*
X033771Y015812D02*
X042982Y015812D01*
X043023Y015713D02*
X033771Y015713D01*
X033771Y015615D02*
X043120Y015615D01*
X043095Y015221D02*
X033547Y015221D01*
X033646Y015319D02*
X044254Y015319D01*
X044254Y015221D02*
X044168Y015221D01*
X044251Y015122D02*
X044254Y015122D01*
X044254Y015418D02*
X033744Y015418D01*
X033771Y015516D02*
X044254Y015516D01*
X044254Y015615D02*
X044143Y015615D01*
X044240Y015713D02*
X044254Y015713D01*
X044254Y016206D02*
X044183Y016206D01*
X044254Y016304D02*
X044021Y016304D01*
X044254Y016403D02*
X032307Y016403D01*
X032400Y016501D02*
X044254Y016501D01*
X044254Y016600D02*
X044126Y016600D01*
X044227Y016698D02*
X044254Y016698D01*
X044254Y017191D02*
X044198Y017191D01*
X044254Y017289D02*
X044057Y017289D01*
X044090Y017585D02*
X044254Y017585D01*
X044254Y017683D02*
X044212Y017683D01*
X044213Y018176D02*
X044254Y018176D01*
X044254Y018274D02*
X044093Y018274D01*
X044254Y018373D02*
X029597Y018373D01*
X029571Y018274D02*
X043170Y018274D01*
X043050Y018176D02*
X029571Y018176D01*
X029571Y018077D02*
X029976Y018077D01*
X029904Y017979D02*
X029571Y017979D01*
X029571Y017880D02*
X029599Y017880D01*
X030132Y017910D02*
X032292Y017910D01*
X032412Y017790D01*
X032640Y017782D02*
X042995Y017782D01*
X042965Y017880D02*
X032640Y017880D01*
X032546Y017979D02*
X042965Y017979D01*
X042994Y018077D02*
X030287Y018077D01*
X029640Y018471D02*
X044254Y018471D01*
X044254Y018570D02*
X029640Y018570D01*
X029576Y018668D02*
X044254Y018668D01*
X043052Y017683D02*
X032627Y017683D01*
X032529Y017585D02*
X043174Y017585D01*
X043243Y016304D02*
X033740Y016304D01*
X033612Y016110D02*
X033612Y015510D01*
X032172Y014070D01*
X032015Y014236D02*
X028491Y014236D01*
X028491Y014334D02*
X032211Y014334D01*
X032309Y014433D02*
X028491Y014433D01*
X028491Y014531D02*
X032408Y014531D01*
X032506Y014630D02*
X028491Y014630D01*
X028491Y014728D02*
X032605Y014728D01*
X032703Y014827D02*
X028491Y014827D01*
X028491Y014925D02*
X032802Y014925D01*
X032900Y015024D02*
X028491Y015024D01*
X028491Y015122D02*
X032999Y015122D01*
X033097Y015221D02*
X028491Y015221D01*
X028491Y015319D02*
X033196Y015319D01*
X033294Y015418D02*
X031922Y015418D01*
X032020Y015516D02*
X033393Y015516D01*
X033453Y015615D02*
X032040Y015615D01*
X032040Y015713D02*
X033453Y015713D01*
X033453Y015812D02*
X031953Y015812D01*
X031812Y015630D02*
X030732Y015630D01*
X029052Y017310D01*
X029340Y016797D02*
X028088Y016797D01*
X028329Y016698D02*
X029439Y016698D01*
X029537Y016600D02*
X028427Y016600D01*
X028491Y016501D02*
X029636Y016501D01*
X029734Y016403D02*
X028491Y016403D01*
X028491Y016304D02*
X029833Y016304D01*
X029931Y016206D02*
X028491Y016206D01*
X028491Y016107D02*
X030030Y016107D01*
X030128Y016009D02*
X028491Y016009D01*
X028491Y015910D02*
X030227Y015910D01*
X030325Y015812D02*
X028491Y015812D01*
X028491Y015713D02*
X030424Y015713D01*
X030522Y015615D02*
X028491Y015615D01*
X028491Y015516D02*
X030621Y015516D01*
X030573Y015564D02*
X030573Y015564D01*
X030775Y015812D02*
X031671Y015812D01*
X031702Y015418D02*
X028491Y015418D01*
X028173Y016403D02*
X028107Y016403D01*
X029790Y016797D02*
X029940Y016797D01*
X029889Y016698D02*
X030039Y016698D01*
X029987Y016600D02*
X030137Y016600D01*
X030086Y016501D02*
X031944Y016501D01*
X032037Y016403D02*
X030184Y016403D01*
X030283Y016304D02*
X033483Y016304D01*
X033385Y016206D02*
X030381Y016206D01*
X030480Y016107D02*
X033384Y016107D01*
X033391Y016009D02*
X030578Y016009D01*
X030677Y015910D02*
X033453Y015910D01*
X033449Y015122D02*
X043013Y015122D01*
X042972Y015024D02*
X033350Y015024D01*
X033252Y014925D02*
X042965Y014925D01*
X042976Y014827D02*
X033153Y014827D01*
X033055Y014728D02*
X043017Y014728D01*
X043105Y014630D02*
X032956Y014630D01*
X032858Y014531D02*
X044254Y014531D01*
X044254Y014433D02*
X032759Y014433D01*
X032661Y014334D02*
X044254Y014334D01*
X044254Y014236D02*
X044153Y014236D01*
X044244Y014137D02*
X044254Y014137D01*
X044254Y014630D02*
X044158Y014630D01*
X044247Y014728D02*
X044254Y014728D01*
X043110Y014236D02*
X032562Y014236D01*
X032464Y014137D02*
X043019Y014137D01*
X044138Y013251D02*
X044254Y013251D01*
X044254Y013152D02*
X044237Y013152D01*
X044254Y012266D02*
X044142Y012266D01*
X044242Y012167D02*
X044254Y012167D01*
X043682Y012167D02*
X043582Y012167D01*
X043582Y012069D02*
X043682Y012069D01*
X043682Y012266D02*
X043582Y012266D01*
X044078Y011281D02*
X044254Y011281D01*
X044254Y011182D02*
X044207Y011182D01*
X041894Y007538D02*
X034489Y007538D01*
X034588Y007439D02*
X041796Y007439D01*
X041697Y007341D02*
X034686Y007341D01*
X034785Y007242D02*
X041599Y007242D01*
X041500Y007144D02*
X034883Y007144D01*
X034982Y007045D02*
X041402Y007045D01*
X041303Y006947D02*
X035080Y006947D01*
X035179Y006848D02*
X041205Y006848D01*
X041106Y006750D02*
X035277Y006750D01*
X035376Y006651D02*
X041008Y006651D01*
X040909Y006553D02*
X035572Y006553D01*
X035640Y006454D02*
X040811Y006454D01*
X040712Y006356D02*
X035640Y006356D01*
X035601Y006257D02*
X040614Y006257D01*
X040515Y006159D02*
X032391Y006159D01*
X032391Y006257D02*
X035222Y006257D01*
X035184Y006356D02*
X032391Y006356D01*
X032391Y006454D02*
X035123Y006454D01*
X035024Y006553D02*
X032391Y006553D01*
X032376Y006651D02*
X034926Y006651D01*
X035292Y006510D02*
X035412Y006390D01*
X035292Y006510D02*
X033852Y007950D01*
X033624Y007932D02*
X033458Y007932D01*
X033557Y008030D02*
X033624Y008030D01*
X033655Y008129D02*
X033708Y008129D01*
X033646Y007833D02*
X033360Y007833D01*
X033261Y007735D02*
X033745Y007735D01*
X033837Y007538D02*
X033064Y007538D01*
X033163Y007636D02*
X033941Y007636D01*
X033972Y007350D02*
X026652Y007350D01*
X024612Y009390D01*
X015132Y009390D01*
X013932Y010590D01*
X014160Y010591D02*
X025346Y010591D01*
X025444Y010493D02*
X014254Y010493D01*
X014353Y010394D02*
X025543Y010394D01*
X025641Y010296D02*
X014451Y010296D01*
X014550Y010197D02*
X025740Y010197D01*
X025838Y010099D02*
X014648Y010099D01*
X014747Y010000D02*
X025937Y010000D01*
X026035Y009902D02*
X014845Y009902D01*
X014944Y009803D02*
X026134Y009803D01*
X026232Y009705D02*
X015042Y009705D01*
X015141Y009606D02*
X026331Y009606D01*
X026429Y009508D02*
X024719Y009508D01*
X024818Y009409D02*
X026528Y009409D01*
X026626Y009311D02*
X024916Y009311D01*
X025015Y009212D02*
X026725Y009212D01*
X026823Y009114D02*
X025113Y009114D01*
X025212Y009015D02*
X026922Y009015D01*
X027020Y008917D02*
X025310Y008917D01*
X025409Y008818D02*
X027119Y008818D01*
X027217Y008720D02*
X025507Y008720D01*
X025606Y008621D02*
X027316Y008621D01*
X027414Y008523D02*
X025704Y008523D01*
X025803Y008424D02*
X027513Y008424D01*
X027611Y008326D02*
X025901Y008326D01*
X026000Y008227D02*
X027710Y008227D01*
X027808Y008129D02*
X026098Y008129D01*
X026197Y008030D02*
X027907Y008030D01*
X028005Y007932D02*
X026295Y007932D01*
X026394Y007833D02*
X028104Y007833D01*
X028202Y007735D02*
X026492Y007735D01*
X026591Y007636D02*
X028301Y007636D01*
X028399Y007538D02*
X026689Y007538D01*
X026273Y007144D02*
X012676Y007144D01*
X012577Y007242D02*
X026175Y007242D01*
X026076Y007341D02*
X015007Y007341D01*
X015011Y007343D02*
X015121Y007452D01*
X015180Y007594D01*
X015180Y008306D01*
X015121Y008448D01*
X015011Y008557D01*
X014869Y008617D01*
X014715Y008617D01*
X014572Y008557D01*
X014463Y008448D01*
X014404Y008306D01*
X014404Y007594D01*
X014463Y007452D01*
X014572Y007343D01*
X014715Y007283D01*
X014869Y007283D01*
X015011Y007343D01*
X015108Y007439D02*
X025978Y007439D01*
X025879Y007538D02*
X015156Y007538D01*
X015180Y007636D02*
X025781Y007636D01*
X025682Y007735D02*
X015180Y007735D01*
X015180Y007833D02*
X025584Y007833D01*
X025485Y007932D02*
X015180Y007932D01*
X015180Y008030D02*
X025387Y008030D01*
X025288Y008129D02*
X015180Y008129D01*
X015180Y008227D02*
X025190Y008227D01*
X025091Y008326D02*
X015171Y008326D01*
X015131Y008424D02*
X024993Y008424D01*
X024894Y008523D02*
X015046Y008523D01*
X014537Y008523D02*
X014046Y008523D01*
X014011Y008557D02*
X013869Y008617D01*
X013715Y008617D01*
X013572Y008557D01*
X013463Y008448D01*
X013404Y008306D01*
X013404Y007594D01*
X013463Y007452D01*
X013572Y007343D01*
X013715Y007283D01*
X013869Y007283D01*
X014011Y007343D01*
X014121Y007452D01*
X014180Y007594D01*
X014180Y008306D01*
X014121Y008448D01*
X014011Y008557D01*
X014131Y008424D02*
X014453Y008424D01*
X014412Y008326D02*
X014171Y008326D01*
X014180Y008227D02*
X014404Y008227D01*
X014404Y008129D02*
X014180Y008129D01*
X014180Y008030D02*
X014404Y008030D01*
X014404Y007932D02*
X014180Y007932D01*
X014180Y007833D02*
X014404Y007833D01*
X014404Y007735D02*
X014180Y007735D01*
X014180Y007636D02*
X014404Y007636D01*
X014427Y007538D02*
X014156Y007538D01*
X014108Y007439D02*
X014476Y007439D01*
X014577Y007341D02*
X014007Y007341D01*
X013577Y007341D02*
X012479Y007341D01*
X012380Y007439D02*
X013476Y007439D01*
X013427Y007538D02*
X012282Y007538D01*
X012183Y007636D02*
X013404Y007636D01*
X013404Y007735D02*
X012085Y007735D01*
X011986Y007833D02*
X013404Y007833D01*
X013404Y007932D02*
X011888Y007932D01*
X011789Y008030D02*
X013404Y008030D01*
X013404Y008129D02*
X011691Y008129D01*
X011592Y008227D02*
X013404Y008227D01*
X013412Y008326D02*
X011494Y008326D01*
X011395Y008424D02*
X013453Y008424D01*
X013537Y008523D02*
X011377Y008523D01*
X011377Y008449D02*
X011377Y008638D01*
X011243Y008771D01*
X011054Y008771D01*
X010938Y008656D01*
X010738Y008856D01*
X010645Y008949D01*
X007975Y008949D01*
X007906Y009018D01*
X007717Y009018D01*
X007584Y008884D01*
X007584Y008696D01*
X007717Y008562D01*
X007906Y008562D01*
X007975Y008631D01*
X010513Y008631D01*
X013113Y006031D01*
X021384Y006031D01*
X021384Y005946D01*
X021517Y005812D01*
X021706Y005812D01*
X021840Y005946D01*
X021840Y006135D01*
X021771Y006204D01*
X021771Y006256D01*
X021757Y006270D01*
X021771Y006284D01*
X021771Y006336D01*
X021840Y006405D01*
X021840Y006594D01*
X021706Y006728D01*
X021517Y006728D01*
X021384Y006594D01*
X021384Y006509D01*
X013311Y006509D01*
X011373Y008446D01*
X011377Y008449D01*
X011377Y008621D02*
X024796Y008621D01*
X024697Y008720D02*
X011295Y008720D01*
X011148Y008543D02*
X011085Y008510D01*
X013245Y006350D01*
X021612Y006350D01*
X021612Y006500D01*
X021783Y006651D02*
X031810Y006651D01*
X031824Y006750D02*
X013070Y006750D01*
X012971Y006848D02*
X031827Y006848D01*
X031926Y006947D02*
X012873Y006947D01*
X012774Y007045D02*
X026372Y007045D01*
X028413Y007524D02*
X028413Y007524D01*
X028572Y007590D02*
X032892Y007590D01*
X036012Y010710D01*
X036012Y010830D01*
X035668Y010591D02*
X029390Y010591D01*
X029292Y010493D02*
X035569Y010493D01*
X035471Y010394D02*
X029193Y010394D01*
X029489Y010690D02*
X030680Y010690D01*
X030624Y010788D02*
X029587Y010788D01*
X029499Y011150D02*
X028276Y009926D01*
X028158Y010044D01*
X027988Y010197D02*
X027510Y010197D01*
X027608Y010099D02*
X027930Y010099D01*
X027930Y010000D02*
X027707Y010000D01*
X027805Y009902D02*
X027978Y009902D01*
X027904Y009803D02*
X028174Y009803D01*
X028272Y009705D02*
X028002Y009705D01*
X028101Y009606D02*
X028278Y009606D01*
X028199Y009508D02*
X028372Y009508D01*
X028298Y009409D02*
X031786Y009409D01*
X031824Y009508D02*
X028640Y009508D01*
X028734Y009606D02*
X031885Y009606D01*
X032052Y009450D02*
X031392Y008790D01*
X028692Y008790D01*
X028692Y009015D02*
X031392Y009015D01*
X031490Y009114D02*
X028593Y009114D01*
X028495Y009212D02*
X031589Y009212D01*
X031687Y009311D02*
X028396Y009311D01*
X028420Y010296D02*
X027411Y010296D01*
X027313Y010394D02*
X028518Y010394D01*
X028452Y010710D02*
X028092Y010710D01*
X028452Y010710D02*
X028692Y010950D01*
X028692Y011430D01*
X029499Y011150D02*
X030852Y011150D01*
X030852Y011300D01*
X031485Y013546D02*
X028491Y013546D01*
X028491Y013645D02*
X031354Y013645D01*
X031096Y013743D02*
X028491Y013743D01*
X028491Y013842D02*
X030998Y013842D01*
X030984Y013940D02*
X028491Y013940D01*
X028491Y014039D02*
X030984Y014039D01*
X031076Y014137D02*
X028491Y014137D01*
X026733Y014531D02*
X025755Y014531D01*
X025800Y014630D02*
X026733Y014630D01*
X026733Y014728D02*
X025800Y014728D01*
X023052Y013110D02*
X017052Y013110D01*
X015012Y011070D01*
X012252Y011070D01*
X011892Y010710D01*
X012120Y010690D02*
X013709Y010690D01*
X013704Y010591D02*
X012095Y010591D01*
X011997Y010493D02*
X013707Y010493D01*
X013805Y010394D02*
X011451Y010394D01*
X011451Y010296D02*
X014001Y010296D01*
X014100Y010197D02*
X011451Y010197D01*
X011528Y010099D02*
X014198Y010099D01*
X014297Y010000D02*
X011627Y010000D01*
X011725Y009902D02*
X014395Y009902D01*
X014494Y009803D02*
X011824Y009803D01*
X011922Y009705D02*
X014592Y009705D01*
X014691Y009606D02*
X012021Y009606D01*
X012119Y009508D02*
X014789Y009508D01*
X014888Y009409D02*
X012218Y009409D01*
X012316Y009311D02*
X014986Y009311D01*
X014155Y010690D02*
X025247Y010690D01*
X025149Y010788D02*
X014056Y010788D01*
X013807Y010788D02*
X012195Y010788D01*
X012293Y010887D02*
X025050Y010887D01*
X024952Y010985D02*
X015152Y010985D01*
X015250Y011084D02*
X024853Y011084D01*
X024755Y011182D02*
X015349Y011182D01*
X015447Y011281D02*
X024656Y011281D01*
X024558Y011379D02*
X015546Y011379D01*
X015644Y011478D02*
X024459Y011478D01*
X024361Y011576D02*
X015743Y011576D01*
X015841Y011675D02*
X024262Y011675D01*
X024164Y011773D02*
X015940Y011773D01*
X016038Y011872D02*
X024065Y011872D01*
X023967Y011970D02*
X016137Y011970D01*
X016235Y012069D02*
X023868Y012069D01*
X023770Y012167D02*
X016334Y012167D01*
X016432Y012266D02*
X023671Y012266D01*
X023573Y012364D02*
X016531Y012364D01*
X016629Y012463D02*
X023474Y012463D01*
X023376Y012561D02*
X016728Y012561D01*
X016826Y012660D02*
X023277Y012660D01*
X023179Y012758D02*
X016925Y012758D01*
X017023Y012857D02*
X023080Y012857D01*
X023052Y013110D02*
X028572Y007590D01*
X028554Y007833D02*
X029206Y007833D01*
X029556Y008129D02*
X032845Y008129D01*
X034200Y007341D02*
X034236Y007341D01*
X034186Y007242D02*
X034335Y007242D01*
X034433Y007144D02*
X034088Y007144D01*
X033856Y007144D02*
X033840Y007144D01*
X033840Y007045D02*
X034532Y007045D01*
X034630Y006947D02*
X033771Y006947D01*
X032391Y006060D02*
X040417Y006060D01*
X040318Y005962D02*
X032391Y005962D01*
X032391Y005863D02*
X040220Y005863D01*
X040121Y005765D02*
X032391Y005765D01*
X032391Y005666D02*
X040023Y005666D01*
X039924Y005568D02*
X032391Y005568D01*
X032391Y005469D02*
X039826Y005469D01*
X039727Y005371D02*
X032391Y005371D01*
X032391Y005272D02*
X039629Y005272D01*
X039530Y005174D02*
X032391Y005174D01*
X032391Y005075D02*
X039432Y005075D01*
X039333Y004977D02*
X032391Y004977D01*
X032391Y004878D02*
X039235Y004878D01*
X039136Y004780D02*
X032391Y004780D01*
X032391Y004681D02*
X039038Y004681D01*
X038939Y004583D02*
X032391Y004583D01*
X032391Y004484D02*
X038841Y004484D01*
X038742Y004386D02*
X032391Y004386D01*
X032391Y004287D02*
X038644Y004287D01*
X038545Y004189D02*
X032391Y004189D01*
X032391Y004090D02*
X038447Y004090D01*
X038348Y003992D02*
X032391Y003992D01*
X032391Y003893D02*
X038250Y003893D01*
X038151Y003795D02*
X032391Y003795D01*
X032391Y003696D02*
X038053Y003696D01*
X037954Y003598D02*
X032391Y003598D01*
X032391Y003499D02*
X037856Y003499D01*
X037757Y003401D02*
X032391Y003401D01*
X032309Y003302D02*
X037659Y003302D01*
X037560Y003204D02*
X032210Y003204D01*
X032112Y003105D02*
X037462Y003105D01*
X037363Y003007D02*
X032013Y003007D01*
X031915Y002908D02*
X037265Y002908D01*
X037166Y002810D02*
X031816Y002810D01*
X031718Y002711D02*
X037068Y002711D01*
X036969Y002613D02*
X031619Y002613D01*
X031521Y002514D02*
X036871Y002514D01*
X036772Y002416D02*
X031422Y002416D01*
X031324Y002317D02*
X036674Y002317D01*
X036575Y002219D02*
X031225Y002219D01*
X031127Y002120D02*
X036477Y002120D01*
X036378Y002022D02*
X031028Y002022D01*
X030930Y001923D02*
X036280Y001923D01*
X036181Y001825D02*
X030831Y001825D01*
X030711Y001726D02*
X036083Y001726D01*
X035984Y001628D02*
X030593Y001628D01*
X030475Y001529D02*
X035886Y001529D01*
X036492Y004110D02*
X036732Y004110D01*
X037332Y007950D02*
X036012Y009270D01*
X035828Y009409D02*
X034936Y009409D01*
X034837Y009311D02*
X035784Y009311D01*
X035077Y010000D02*
X035024Y010000D01*
X035040Y010099D02*
X035175Y010099D01*
X035274Y010197D02*
X035040Y010197D01*
X034949Y010296D02*
X035372Y010296D01*
X034978Y009902D02*
X034971Y009902D01*
X031932Y006450D02*
X031932Y003810D01*
X031704Y003795D02*
X008664Y003795D01*
X008762Y003893D02*
X031704Y003893D01*
X031773Y003992D02*
X008861Y003992D01*
X008959Y004090D02*
X031773Y004090D01*
X031773Y004189D02*
X009058Y004189D01*
X009156Y004287D02*
X031773Y004287D01*
X031773Y004386D02*
X009255Y004386D01*
X009353Y004484D02*
X031475Y004484D01*
X031404Y004583D02*
X009452Y004583D01*
X009550Y004681D02*
X031404Y004681D01*
X031439Y004780D02*
X009649Y004780D01*
X009747Y004878D02*
X031473Y004878D01*
X031473Y004977D02*
X009846Y004977D01*
X009944Y005075D02*
X031473Y005075D01*
X031473Y005174D02*
X010043Y005174D01*
X010141Y005272D02*
X031473Y005272D01*
X031473Y005371D02*
X010240Y005371D01*
X010338Y005469D02*
X031473Y005469D01*
X031473Y005568D02*
X010437Y005568D01*
X010535Y005666D02*
X031473Y005666D01*
X031473Y005765D02*
X010634Y005765D01*
X010732Y005863D02*
X021467Y005863D01*
X021384Y005962D02*
X010831Y005962D01*
X010929Y006060D02*
X013084Y006060D01*
X012986Y006159D02*
X011028Y006159D01*
X011121Y006252D02*
X011121Y007336D01*
X011160Y007376D01*
X011160Y007564D01*
X011026Y007698D01*
X010837Y007698D01*
X010704Y007564D01*
X010704Y007376D01*
X010743Y007336D01*
X010743Y006408D01*
X008213Y003879D01*
X008103Y003768D01*
X008103Y003524D01*
X008064Y003484D01*
X008064Y003296D01*
X008103Y003256D01*
X008103Y002772D01*
X008213Y002661D01*
X008813Y002061D01*
X011218Y002061D01*
X011257Y002022D01*
X011446Y002022D01*
X011580Y002156D01*
X011580Y002344D01*
X011446Y002478D01*
X011257Y002478D01*
X011218Y002439D01*
X008970Y002439D01*
X008481Y002928D01*
X008481Y003256D01*
X008520Y003296D01*
X008520Y003484D01*
X008481Y003524D01*
X008481Y003612D01*
X011121Y006252D01*
X011121Y006257D02*
X012887Y006257D01*
X012789Y006356D02*
X011121Y006356D01*
X011121Y006454D02*
X012690Y006454D01*
X012592Y006553D02*
X011121Y006553D01*
X011121Y006651D02*
X012493Y006651D01*
X012395Y006750D02*
X011121Y006750D01*
X011121Y006848D02*
X012296Y006848D01*
X012198Y006947D02*
X011121Y006947D01*
X011121Y007045D02*
X012099Y007045D01*
X012001Y007144D02*
X011121Y007144D01*
X011121Y007242D02*
X011902Y007242D01*
X011804Y007341D02*
X011125Y007341D01*
X011160Y007439D02*
X011705Y007439D01*
X011607Y007538D02*
X011160Y007538D01*
X011088Y007636D02*
X011508Y007636D01*
X011410Y007735D02*
X007000Y007735D01*
X007042Y007692D02*
X006948Y007786D01*
X006825Y007837D01*
X006691Y007837D01*
X006568Y007786D01*
X006474Y007692D01*
X006422Y007569D01*
X006422Y007435D01*
X006474Y007312D01*
X006568Y007218D01*
X006691Y007167D01*
X006825Y007167D01*
X006948Y007218D01*
X007042Y007312D01*
X007093Y007435D01*
X007093Y007569D01*
X007042Y007692D01*
X007065Y007636D02*
X010775Y007636D01*
X010704Y007538D02*
X007093Y007538D01*
X007093Y007439D02*
X010704Y007439D01*
X010739Y007341D02*
X007054Y007341D01*
X006972Y007242D02*
X010743Y007242D01*
X010743Y007144D02*
X005220Y007144D01*
X005220Y007242D02*
X006543Y007242D01*
X006462Y007341D02*
X005220Y007341D01*
X005220Y007439D02*
X006422Y007439D01*
X006422Y007538D02*
X005220Y007538D01*
X005220Y007636D02*
X006450Y007636D01*
X006516Y007735D02*
X005220Y007735D01*
X005220Y007833D02*
X006681Y007833D01*
X006835Y007833D02*
X011311Y007833D01*
X011213Y007932D02*
X005220Y007932D01*
X005220Y008030D02*
X011114Y008030D01*
X011016Y008129D02*
X005220Y008129D01*
X005220Y008227D02*
X010917Y008227D01*
X010819Y008326D02*
X005220Y008326D01*
X005220Y008424D02*
X010720Y008424D01*
X010622Y008523D02*
X005220Y008523D01*
X005220Y008621D02*
X007658Y008621D01*
X007584Y008720D02*
X006954Y008720D01*
X006948Y008714D02*
X007042Y008808D01*
X007093Y008931D01*
X007093Y009065D01*
X007042Y009188D01*
X006948Y009282D01*
X006825Y009333D01*
X006691Y009333D01*
X006568Y009282D01*
X006474Y009188D01*
X006422Y009065D01*
X006422Y008931D01*
X006474Y008808D01*
X006568Y008714D01*
X006691Y008663D01*
X006825Y008663D01*
X006948Y008714D01*
X007046Y008818D02*
X007584Y008818D01*
X007616Y008917D02*
X007087Y008917D01*
X007093Y009015D02*
X007714Y009015D01*
X007909Y009015D02*
X012162Y009015D01*
X012260Y008917D02*
X010678Y008917D01*
X010776Y008818D02*
X024599Y008818D01*
X024565Y009212D02*
X012415Y009212D01*
X012063Y009114D02*
X007073Y009114D01*
X007018Y009212D02*
X011965Y009212D01*
X011866Y009311D02*
X006880Y009311D01*
X006636Y009311D02*
X005220Y009311D01*
X005220Y009409D02*
X011768Y009409D01*
X011669Y009508D02*
X005220Y009508D01*
X005220Y009606D02*
X011571Y009606D01*
X011472Y009705D02*
X005220Y009705D01*
X005220Y009803D02*
X011374Y009803D01*
X011275Y009902D02*
X005220Y009902D01*
X005220Y010000D02*
X011177Y010000D01*
X011133Y010099D02*
X005220Y010099D01*
X005220Y010197D02*
X011133Y010197D01*
X011133Y010296D02*
X005220Y010296D01*
X005220Y010394D02*
X011133Y010394D01*
X011133Y010493D02*
X005220Y010493D01*
X005220Y010591D02*
X011133Y010591D01*
X011133Y010690D02*
X005220Y010690D01*
X005220Y010788D02*
X011133Y010788D01*
X011133Y010887D02*
X005220Y010887D01*
X005220Y010985D02*
X011133Y010985D01*
X011133Y011084D02*
X005220Y011084D01*
X005220Y011182D02*
X011179Y011182D01*
X011277Y011281D02*
X005220Y011281D01*
X005220Y011379D02*
X011376Y011379D01*
X011474Y011478D02*
X005220Y011478D01*
X005220Y011576D02*
X006469Y011576D01*
X006508Y011538D02*
X006631Y011487D01*
X006765Y011487D01*
X006888Y011538D01*
X006982Y011632D01*
X007033Y011755D01*
X007033Y011889D01*
X006982Y012012D01*
X006888Y012106D01*
X006765Y012157D01*
X006631Y012157D01*
X006508Y012106D01*
X006414Y012012D01*
X006362Y011889D01*
X006362Y011755D01*
X006414Y011632D01*
X006508Y011538D01*
X006396Y011675D02*
X005220Y011675D01*
X005220Y011773D02*
X006362Y011773D01*
X006362Y011872D02*
X005220Y011872D01*
X005220Y011970D02*
X006396Y011970D01*
X006470Y012069D02*
X005220Y012069D01*
X005220Y012167D02*
X012164Y012167D01*
X012262Y012266D02*
X005220Y012266D01*
X005220Y012364D02*
X012361Y012364D01*
X012459Y012463D02*
X005220Y012463D01*
X005220Y012561D02*
X012558Y012561D01*
X012656Y012660D02*
X005220Y012660D01*
X005220Y012758D02*
X012755Y012758D01*
X012853Y012857D02*
X005220Y012857D01*
X005220Y012955D02*
X012952Y012955D01*
X013050Y013054D02*
X006908Y013054D01*
X006888Y013034D02*
X006982Y013128D01*
X007033Y013251D01*
X007033Y013385D01*
X006982Y013508D01*
X006888Y013602D01*
X006765Y013653D01*
X006631Y013653D01*
X006508Y013602D01*
X006414Y013508D01*
X006362Y013385D01*
X006362Y013251D01*
X006414Y013128D01*
X006508Y013034D01*
X006631Y012983D01*
X006765Y012983D01*
X006888Y013034D01*
X006992Y013152D02*
X013149Y013152D01*
X013247Y013251D02*
X007033Y013251D01*
X007033Y013349D02*
X013346Y013349D01*
X013444Y013448D02*
X007007Y013448D01*
X006944Y013546D02*
X013543Y013546D01*
X013641Y013645D02*
X006786Y013645D01*
X006610Y013645D02*
X005220Y013645D01*
X005220Y013743D02*
X013740Y013743D01*
X013773Y013842D02*
X005220Y013842D01*
X005220Y013940D02*
X013773Y013940D01*
X013773Y014039D02*
X005220Y014039D01*
X005220Y014137D02*
X013773Y014137D01*
X013773Y014236D02*
X005220Y014236D01*
X005220Y014334D02*
X013773Y014334D01*
X013773Y014433D02*
X005220Y014433D01*
X005220Y014531D02*
X013773Y014531D01*
X013773Y014630D02*
X005220Y014630D01*
X005220Y014728D02*
X013773Y014728D01*
X013773Y014827D02*
X005220Y014827D01*
X005220Y014925D02*
X013773Y014925D01*
X013773Y015024D02*
X005220Y015024D01*
X005220Y015122D02*
X013799Y015122D01*
X013897Y015221D02*
X005220Y015221D01*
X005220Y015319D02*
X013996Y015319D01*
X013982Y015418D02*
X014073Y015418D01*
X014073Y015516D02*
X014040Y015516D01*
X014040Y015615D02*
X014073Y015615D01*
X014073Y015713D02*
X013991Y015713D01*
X014005Y015812D02*
X009078Y015812D01*
X008979Y015910D02*
X013907Y015910D01*
X014249Y015122D02*
X014279Y015122D01*
X014180Y015024D02*
X014150Y015024D01*
X014133Y014925D02*
X014091Y014925D01*
X014091Y014827D02*
X014133Y014827D01*
X014133Y014728D02*
X014091Y014728D01*
X014091Y014630D02*
X014133Y014630D01*
X014133Y014531D02*
X014091Y014531D01*
X014091Y014433D02*
X014133Y014433D01*
X014133Y014334D02*
X014091Y014334D01*
X014091Y014236D02*
X014133Y014236D01*
X014133Y014137D02*
X014091Y014137D01*
X014091Y014039D02*
X014133Y014039D01*
X014133Y013940D02*
X014091Y013940D01*
X014091Y013842D02*
X014133Y013842D01*
X014133Y013743D02*
X014091Y013743D01*
X014091Y013645D02*
X014133Y013645D01*
X014133Y013546D02*
X013993Y013546D01*
X013894Y013448D02*
X014133Y013448D01*
X014133Y013349D02*
X013796Y013349D01*
X013697Y013251D02*
X014133Y013251D01*
X014133Y013152D02*
X013599Y013152D01*
X013500Y013054D02*
X014133Y013054D01*
X014133Y012955D02*
X013402Y012955D01*
X013303Y012857D02*
X014133Y012857D01*
X014133Y012758D02*
X013205Y012758D01*
X013106Y012660D02*
X014133Y012660D01*
X014133Y012561D02*
X013008Y012561D01*
X012909Y012463D02*
X014133Y012463D01*
X014133Y012364D02*
X012811Y012364D01*
X012712Y012266D02*
X014133Y012266D01*
X014133Y012167D02*
X012614Y012167D01*
X012515Y012069D02*
X014133Y012069D01*
X014133Y011970D02*
X012417Y011970D01*
X012318Y011872D02*
X014064Y011872D01*
X014064Y011773D02*
X012220Y011773D01*
X012121Y011675D02*
X014085Y011675D01*
X014183Y011576D02*
X012023Y011576D01*
X011924Y011478D02*
X015194Y011478D01*
X015293Y011576D02*
X014400Y011576D01*
X014499Y011675D02*
X015391Y011675D01*
X015096Y011379D02*
X011826Y011379D01*
X011727Y011281D02*
X014997Y011281D01*
X012139Y011182D02*
X011629Y011182D01*
X011530Y011084D02*
X012040Y011084D01*
X011942Y010985D02*
X011451Y010985D01*
X011451Y010887D02*
X011746Y010887D01*
X011664Y010788D02*
X011451Y010788D01*
X011451Y010690D02*
X011664Y010690D01*
X011688Y010591D02*
X011451Y010591D01*
X011451Y010493D02*
X011787Y010493D01*
X011573Y011576D02*
X006926Y011576D01*
X007000Y011675D02*
X011671Y011675D01*
X011770Y011773D02*
X007033Y011773D01*
X007033Y011872D02*
X011868Y011872D01*
X011967Y011970D02*
X007000Y011970D01*
X006926Y012069D02*
X012065Y012069D01*
X008937Y015418D02*
X005220Y015418D01*
X005220Y015516D02*
X008838Y015516D01*
X008740Y015615D02*
X005220Y015615D01*
X005220Y015713D02*
X005486Y015713D01*
X005424Y015812D02*
X005220Y015812D01*
X005220Y015910D02*
X005424Y015910D01*
X005468Y016009D02*
X005220Y016009D01*
X005220Y016107D02*
X005621Y016107D01*
X005720Y016206D02*
X005220Y016206D01*
X005220Y016304D02*
X005818Y016304D01*
X005917Y016403D02*
X005220Y016403D01*
X005220Y016501D02*
X006015Y016501D01*
X006114Y016600D02*
X005220Y016600D01*
X005220Y016698D02*
X006212Y016698D01*
X006311Y016797D02*
X005220Y016797D01*
X005220Y016895D02*
X006409Y016895D01*
X006508Y016994D02*
X005220Y016994D01*
X005220Y017092D02*
X006606Y017092D01*
X006959Y017191D02*
X005220Y017191D01*
X005220Y017289D02*
X007044Y017289D01*
X007219Y017388D02*
X005220Y017388D01*
X005220Y017486D02*
X008903Y017486D01*
X008903Y017388D02*
X008085Y017388D01*
X008077Y017532D02*
X008144Y017554D01*
X008207Y017586D01*
X008264Y017628D01*
X008314Y017678D01*
X008356Y017735D01*
X008388Y017798D01*
X008409Y017865D01*
X008418Y017920D01*
X007702Y017920D01*
X007702Y018020D01*
X008418Y018020D01*
X008409Y018075D01*
X008388Y018142D01*
X008356Y018205D01*
X008314Y018262D01*
X008264Y018312D01*
X008207Y018354D01*
X008144Y018386D01*
X008077Y018408D01*
X008007Y018419D01*
X007702Y018419D01*
X007702Y018020D01*
X007602Y018020D01*
X007602Y018419D01*
X007296Y018419D01*
X007227Y018408D01*
X007159Y018386D01*
X007097Y018354D01*
X007039Y018312D01*
X006989Y018262D01*
X006948Y018205D01*
X006916Y018142D01*
X006894Y018075D01*
X006885Y018020D01*
X007602Y018020D01*
X007602Y017920D01*
X007702Y017920D01*
X007702Y017521D01*
X008007Y017521D01*
X008077Y017532D01*
X008204Y017585D02*
X008915Y017585D01*
X008956Y017683D02*
X008318Y017683D01*
X008379Y017782D02*
X009037Y017782D01*
X008697Y017880D02*
X008412Y017880D01*
X008409Y018077D02*
X008500Y018077D01*
X008598Y017979D02*
X007702Y017979D01*
X007702Y018077D02*
X007602Y018077D01*
X007602Y017979D02*
X005220Y017979D01*
X005220Y018077D02*
X006895Y018077D01*
X006933Y018176D02*
X005220Y018176D01*
X005220Y018274D02*
X007001Y018274D01*
X007133Y018373D02*
X005220Y018373D01*
X005220Y018471D02*
X008106Y018471D01*
X008170Y018373D02*
X008204Y018373D01*
X008302Y018274D02*
X008303Y018274D01*
X008371Y018176D02*
X008401Y018176D01*
X008654Y018373D02*
X008908Y018373D01*
X008903Y018471D02*
X008556Y018471D01*
X008457Y018570D02*
X008909Y018570D01*
X008949Y018668D02*
X008359Y018668D01*
X008352Y018767D02*
X009022Y018767D01*
X008949Y018274D02*
X008753Y018274D01*
X008851Y018176D02*
X009019Y018176D01*
X008942Y017289D02*
X008259Y017289D01*
X008345Y017191D02*
X009004Y017191D01*
X008050Y016304D02*
X006353Y016304D01*
X006255Y016206D02*
X008149Y016206D01*
X008247Y016107D02*
X006156Y016107D01*
X006058Y016009D02*
X008346Y016009D01*
X008444Y015910D02*
X005959Y015910D01*
X005880Y015812D02*
X008543Y015812D01*
X008641Y015713D02*
X005817Y015713D01*
X006452Y016403D02*
X007952Y016403D01*
X007853Y016501D02*
X006550Y016501D01*
X006649Y016600D02*
X007105Y016600D01*
X006997Y016698D02*
X006747Y016698D01*
X007159Y017554D02*
X007227Y017532D01*
X007296Y017521D01*
X007602Y017521D01*
X007602Y017920D01*
X006885Y017920D01*
X006894Y017865D01*
X006916Y017798D01*
X006948Y017735D01*
X006989Y017678D01*
X007039Y017628D01*
X007097Y017586D01*
X007159Y017554D01*
X007100Y017585D02*
X005220Y017585D01*
X005220Y017683D02*
X006986Y017683D01*
X006924Y017782D02*
X005220Y017782D01*
X005220Y017880D02*
X006892Y017880D01*
X007602Y017880D02*
X007702Y017880D01*
X007702Y017782D02*
X007602Y017782D01*
X007602Y017683D02*
X007702Y017683D01*
X007702Y017585D02*
X007602Y017585D01*
X007602Y018176D02*
X007702Y018176D01*
X007702Y018274D02*
X007602Y018274D01*
X007602Y018373D02*
X007702Y018373D01*
X008903Y019555D02*
X005220Y019555D01*
X005220Y019653D02*
X008943Y019653D01*
X009007Y019752D02*
X005220Y019752D01*
X005220Y019850D02*
X009128Y019850D01*
X006452Y013546D02*
X005220Y013546D01*
X005220Y013448D02*
X006388Y013448D01*
X006362Y013349D02*
X005220Y013349D01*
X005220Y013251D02*
X006363Y013251D01*
X006404Y013152D02*
X005220Y013152D01*
X005220Y013054D02*
X006488Y013054D01*
X006498Y009212D02*
X005220Y009212D01*
X005220Y009114D02*
X006443Y009114D01*
X006422Y009015D02*
X005220Y009015D01*
X005220Y008917D02*
X006429Y008917D01*
X006469Y008818D02*
X005220Y008818D01*
X005220Y008720D02*
X006562Y008720D01*
X007812Y008790D02*
X010579Y008790D01*
X013179Y006190D01*
X021612Y006190D01*
X021612Y006040D01*
X021757Y005863D02*
X031473Y005863D01*
X031473Y005962D02*
X021840Y005962D01*
X021840Y006060D02*
X031473Y006060D01*
X031473Y006159D02*
X021816Y006159D01*
X021770Y006257D02*
X031404Y006257D01*
X031404Y006356D02*
X021790Y006356D01*
X021840Y006454D02*
X031433Y006454D01*
X031532Y006553D02*
X021840Y006553D01*
X021441Y006651D02*
X013168Y006651D01*
X013267Y006553D02*
X021384Y006553D01*
X026199Y010788D02*
X026733Y010788D01*
X026733Y010690D02*
X026297Y010690D01*
X026396Y010591D02*
X026733Y010591D01*
X026733Y010493D02*
X026494Y010493D01*
X026593Y010394D02*
X026733Y010394D01*
X026733Y010296D02*
X026691Y010296D01*
X026733Y010887D02*
X026100Y010887D01*
X026002Y010985D02*
X026733Y010985D01*
X026733Y011084D02*
X025903Y011084D01*
X025805Y011182D02*
X026733Y011182D01*
X031212Y013950D02*
X031692Y013590D01*
X031490Y013940D02*
X031979Y013940D01*
X031944Y014039D02*
X031440Y014039D01*
X031347Y014137D02*
X031944Y014137D01*
X032652Y018390D02*
X032532Y018630D01*
X026733Y021525D02*
X026689Y021525D01*
X026532Y021690D02*
X023712Y021690D01*
X023869Y021525D02*
X026375Y021525D01*
X026724Y021820D02*
X026733Y021820D01*
X030132Y025350D02*
X033372Y028590D01*
X033372Y029790D01*
X032892Y030270D01*
X028351Y030685D02*
X040956Y030685D01*
X040858Y030587D02*
X028252Y030587D01*
X022092Y026310D02*
X022092Y025950D01*
X019152Y022170D02*
X019152Y021690D01*
X018672Y021210D01*
X033492Y024690D02*
X034332Y024690D01*
X011002Y008720D02*
X010875Y008720D01*
X010523Y008621D02*
X007965Y008621D01*
X005220Y007045D02*
X010743Y007045D01*
X010743Y006947D02*
X005220Y006947D01*
X005220Y006848D02*
X010743Y006848D01*
X010743Y006750D02*
X005220Y006750D01*
X005220Y006651D02*
X010743Y006651D01*
X010743Y006553D02*
X005220Y006553D01*
X005220Y006454D02*
X010743Y006454D01*
X010690Y006356D02*
X005220Y006356D01*
X005220Y006257D02*
X010591Y006257D01*
X010493Y006159D02*
X005220Y006159D01*
X005220Y006060D02*
X010394Y006060D01*
X010296Y005962D02*
X005220Y005962D01*
X005220Y005863D02*
X010197Y005863D01*
X010099Y005765D02*
X005220Y005765D01*
X005220Y005666D02*
X010000Y005666D01*
X009902Y005568D02*
X005220Y005568D01*
X005220Y005469D02*
X009803Y005469D01*
X009705Y005371D02*
X005220Y005371D01*
X005220Y005272D02*
X009606Y005272D01*
X009508Y005174D02*
X005220Y005174D01*
X005220Y005075D02*
X009409Y005075D01*
X009311Y004977D02*
X005220Y004977D01*
X005220Y004878D02*
X009212Y004878D01*
X009114Y004780D02*
X005220Y004780D01*
X005220Y004681D02*
X009015Y004681D01*
X008917Y004583D02*
X005220Y004583D01*
X005220Y004484D02*
X008818Y004484D01*
X008720Y004386D02*
X005220Y004386D01*
X005220Y004287D02*
X008621Y004287D01*
X008523Y004189D02*
X005220Y004189D01*
X005220Y004090D02*
X008424Y004090D01*
X008326Y003992D02*
X006829Y003992D01*
X006825Y003993D02*
X006691Y003993D01*
X006568Y003942D01*
X006474Y003848D01*
X006422Y003725D01*
X006422Y003591D01*
X006474Y003468D01*
X006568Y003374D01*
X006691Y003323D01*
X006825Y003323D01*
X006948Y003374D01*
X007042Y003468D01*
X007093Y003591D01*
X007093Y003725D01*
X007042Y003848D01*
X006948Y003942D01*
X006825Y003993D01*
X006686Y003992D02*
X005220Y003992D01*
X005220Y003893D02*
X006519Y003893D01*
X006451Y003795D02*
X005220Y003795D01*
X005220Y003696D02*
X006422Y003696D01*
X006422Y003598D02*
X005220Y003598D01*
X005220Y003499D02*
X006461Y003499D01*
X006541Y003401D02*
X005220Y003401D01*
X005220Y003302D02*
X008064Y003302D01*
X008064Y003401D02*
X006975Y003401D01*
X007055Y003499D02*
X008078Y003499D01*
X008103Y003598D02*
X007093Y003598D01*
X007093Y003696D02*
X008103Y003696D01*
X008129Y003795D02*
X007064Y003795D01*
X006997Y003893D02*
X008227Y003893D01*
X008481Y003598D02*
X031822Y003598D01*
X031723Y003696D02*
X008565Y003696D01*
X008505Y003499D02*
X032056Y003499D01*
X032042Y003598D02*
X032073Y003598D01*
X031957Y003401D02*
X008520Y003401D01*
X008520Y003302D02*
X031859Y003302D01*
X031760Y003204D02*
X008481Y003204D01*
X008481Y003105D02*
X031662Y003105D01*
X031563Y003007D02*
X008481Y003007D01*
X008501Y002908D02*
X031465Y002908D01*
X031366Y002810D02*
X008600Y002810D01*
X008698Y002711D02*
X031268Y002711D01*
X031169Y002613D02*
X008797Y002613D01*
X008895Y002514D02*
X031071Y002514D01*
X030972Y002416D02*
X011509Y002416D01*
X011580Y002317D02*
X030874Y002317D01*
X030775Y002219D02*
X011580Y002219D01*
X011544Y002120D02*
X030677Y002120D01*
X030569Y002022D02*
X007063Y002022D01*
X007042Y001972D02*
X007093Y002095D01*
X007093Y002229D01*
X007042Y002352D01*
X006948Y002446D01*
X006825Y002497D01*
X006691Y002497D01*
X006568Y002446D01*
X006474Y002352D01*
X006422Y002229D01*
X006422Y002095D01*
X006474Y001972D01*
X006568Y001878D01*
X006691Y001827D01*
X006825Y001827D01*
X006948Y001878D01*
X007042Y001972D01*
X006993Y001923D02*
X030451Y001923D01*
X030333Y001825D02*
X005220Y001825D01*
X005220Y001923D02*
X006522Y001923D01*
X006453Y002022D02*
X005220Y002022D01*
X005220Y002120D02*
X006422Y002120D01*
X006422Y002219D02*
X005220Y002219D01*
X005220Y002317D02*
X006459Y002317D01*
X006537Y002416D02*
X005220Y002416D01*
X005220Y002514D02*
X008360Y002514D01*
X008262Y002613D02*
X005220Y002613D01*
X005220Y002711D02*
X008163Y002711D01*
X008103Y002810D02*
X005220Y002810D01*
X005220Y002908D02*
X008103Y002908D01*
X008103Y003007D02*
X005220Y003007D01*
X005220Y003105D02*
X008103Y003105D01*
X008103Y003204D02*
X005220Y003204D01*
X005220Y001726D02*
X030215Y001726D01*
X030096Y001628D02*
X025137Y001628D01*
X024927Y001628D02*
X005220Y001628D01*
X005220Y001529D02*
X024828Y001529D01*
X024804Y001431D02*
X005220Y001431D01*
X005220Y001332D02*
X024804Y001332D01*
X024886Y001234D02*
X005220Y001234D01*
X007093Y002120D02*
X008754Y002120D01*
X008656Y002219D02*
X007093Y002219D01*
X007057Y002317D02*
X008557Y002317D01*
X008459Y002416D02*
X006979Y002416D01*
X030119Y001135D02*
X031012Y001135D01*
X031110Y001234D02*
X030218Y001234D01*
X030240Y001332D02*
X031209Y001332D01*
X031307Y001431D02*
X030357Y001431D01*
X031632Y004650D02*
X031632Y006330D01*
X043582Y005371D02*
X043682Y005371D01*
X043682Y005272D02*
X043582Y005272D01*
X043582Y005174D02*
X043682Y005174D01*
X043682Y004681D02*
X043582Y004681D01*
X044253Y005272D02*
X044254Y005272D01*
X044254Y005371D02*
X044163Y005371D01*
D19*
X039912Y026310D02*
X040032Y026430D01*
X006612Y033270D02*
X006612Y033390D01*
D20*
X006752Y016970D02*
X005652Y015870D01*
X006752Y016970D02*
X007652Y016970D01*
X009052Y015570D01*
X013812Y015570D01*
X010932Y007470D02*
X010932Y006330D01*
X008292Y003690D01*
X008292Y003390D01*
X008292Y002850D01*
X008892Y002250D01*
X011352Y002250D01*
D21*
X017932Y015690D02*
X016692Y016930D01*
X016692Y021230D01*
X007652Y030270D01*
X006652Y030270D02*
X006652Y031150D01*
X007272Y031770D01*
X016392Y031770D01*
X019212Y028950D01*
X026292Y028950D01*
X030132Y032790D01*
X030132Y036448D01*
M02*
