G75*
%MOIN*%
%OFA0B0*%
%FSLAX24Y24*%
%IPPOS*%
%LPD*%
%AMOC8*
5,1,8,0,0,1.08239X$1,22.5*
%
%ADD10R,0.0650X0.0335*%
%ADD11R,0.0335X0.0650*%
%ADD12R,0.0649X0.0649*%
%ADD13C,0.0649*%
%ADD14R,0.0571X0.0689*%
%ADD15R,0.0531X0.0531*%
%ADD16C,0.0617*%
%ADD17R,0.0179X0.0529*%
%ADD18R,0.0529X0.0179*%
%ADD19R,0.0650X0.0571*%
%ADD20R,0.0571X0.0650*%
%ADD21R,0.0768X0.0689*%
%ADD22R,0.1059X0.0559*%
%ADD23R,0.0689X0.0571*%
%ADD24R,0.2159X0.0819*%
%ADD25R,0.0639X0.0199*%
%ADD26R,0.0219X0.0889*%
%ADD27R,0.0669X0.0787*%
%ADD28R,0.0669X0.1063*%
%ADD29R,0.0630X0.0217*%
%ADD30C,0.0394*%
%ADD31R,0.1161X0.1555*%
%ADD32C,0.0559*%
%ADD33R,0.0335X0.0531*%
%ADD34R,0.0610X0.0453*%
%ADD35R,0.0499X0.0159*%
%ADD36R,0.0499X0.0179*%
%ADD37R,0.0492X0.0453*%
%ADD38R,0.0453X0.0492*%
%ADD39R,0.0748X0.0157*%
%ADD40R,0.0157X0.0748*%
%ADD41R,0.0906X0.0906*%
%ADD42R,0.0374X0.0531*%
%ADD43R,0.0531X0.0374*%
%ADD44OC8,0.1059*%
%ADD45R,0.1059X0.1059*%
%ADD46R,0.0689X0.0453*%
%ADD47R,0.2500X0.2185*%
%ADD48R,0.0197X0.0650*%
%ADD49R,0.0768X0.1319*%
%ADD50R,0.1853X0.1714*%
%ADD51R,0.0327X0.0354*%
%ADD52R,0.0327X0.0319*%
%ADD53R,0.0295X0.0295*%
%ADD54C,0.1083*%
%ADD55C,0.0531*%
%ADD56C,0.0699*%
%ADD57C,0.1149*%
%ADD58R,0.1555X0.0610*%
%ADD59R,0.0453X0.0610*%
%ADD60R,0.1319X0.0768*%
%ADD61R,0.0610X0.1555*%
%ADD62R,0.0453X0.0689*%
%ADD63R,0.2185X0.2500*%
%ADD64C,0.1059*%
%ADD65R,0.1043X0.0827*%
%ADD66OC8,0.0297*%
D10*
X020646Y031459D03*
X020646Y031892D03*
X020646Y032325D03*
X020646Y032758D03*
X020646Y033191D03*
X020646Y033624D03*
X020646Y034057D03*
X020646Y034490D03*
X020646Y034923D03*
X020646Y035356D03*
X020646Y035789D03*
X020646Y036222D03*
X020646Y038663D03*
X020646Y039096D03*
X025173Y039096D03*
X025173Y038663D03*
X025173Y035356D03*
X025173Y034923D03*
X025173Y034490D03*
X025173Y034057D03*
X025173Y033624D03*
X025173Y033191D03*
X025173Y032758D03*
X025173Y032325D03*
X025173Y031892D03*
X025173Y031459D03*
D11*
X024209Y030848D03*
X023776Y030848D03*
X023343Y030848D03*
X022910Y030848D03*
X022476Y030848D03*
X022043Y030848D03*
X021610Y030848D03*
D12*
X018332Y037250D03*
D13*
X019332Y037250D03*
X018832Y038250D03*
D14*
X018658Y035730D03*
X019406Y035730D03*
X015926Y029130D03*
X015178Y029130D03*
X017858Y023550D03*
X018645Y023550D03*
X021418Y021690D03*
X022166Y021690D03*
X022778Y019110D03*
X023565Y019110D03*
X021225Y018390D03*
X020438Y018390D03*
X020745Y019230D03*
X019958Y019230D03*
X019065Y019230D03*
X018278Y019230D03*
X018585Y018330D03*
X017798Y018330D03*
X017786Y020250D03*
X017038Y020250D03*
X013305Y017490D03*
X012518Y017490D03*
X011666Y017490D03*
X010918Y017490D03*
X010918Y016470D03*
X011666Y016470D03*
X012518Y016470D03*
X013305Y016470D03*
X014698Y015570D03*
X015446Y015570D03*
X022498Y012210D03*
X023246Y012210D03*
X023246Y011370D03*
X022498Y011370D03*
X022498Y010470D03*
X023246Y010470D03*
X023246Y009630D03*
X022498Y009630D03*
X022498Y008790D03*
X023246Y008790D03*
X019886Y006690D03*
X019138Y006690D03*
X019138Y005850D03*
X019886Y005850D03*
X019886Y005010D03*
X019138Y005010D03*
X019138Y004170D03*
X019886Y004170D03*
X019978Y001890D03*
X020726Y001890D03*
X019106Y000930D03*
X018358Y000930D03*
X016526Y002910D03*
X015778Y002910D03*
X015778Y003810D03*
X016526Y003810D03*
X008966Y005490D03*
X008218Y005490D03*
X030838Y018450D03*
X031586Y018450D03*
X024686Y026430D03*
X023938Y026430D03*
X030538Y035550D03*
X031286Y035550D03*
X007346Y034050D03*
X006598Y034050D03*
X006626Y032370D03*
X005878Y032370D03*
X006478Y038490D03*
X007226Y038490D03*
D15*
X018618Y034950D03*
X019445Y034950D03*
X020898Y012210D03*
X021725Y012210D03*
X021725Y011370D03*
X020898Y011370D03*
X020898Y010470D03*
X021725Y010470D03*
X021725Y009630D03*
X020898Y009630D03*
X020898Y008790D03*
X021725Y008790D03*
X018365Y006690D03*
X017538Y006690D03*
X017538Y005850D03*
X018365Y005850D03*
X018365Y005010D03*
X017538Y005010D03*
X017538Y004170D03*
X018365Y004170D03*
X015005Y003690D03*
X015005Y003030D03*
X014178Y003030D03*
X014178Y003690D03*
D16*
X013792Y007671D02*
X013792Y008229D01*
X014792Y008229D02*
X014792Y007671D01*
X017932Y015411D02*
X017932Y015969D01*
X018932Y015969D02*
X018932Y015411D01*
X019932Y015411D02*
X019932Y015969D01*
X020932Y015969D02*
X020932Y015411D01*
X021932Y015411D02*
X021932Y015969D01*
X007652Y029991D02*
X007652Y030549D01*
X006652Y030549D02*
X006652Y029991D01*
X016233Y034690D02*
X016790Y034690D01*
X016790Y035690D02*
X016233Y035690D01*
X016233Y036690D02*
X016790Y036690D01*
X016790Y037690D02*
X016233Y037690D01*
X016233Y038690D02*
X016790Y038690D01*
X043353Y017930D02*
X043910Y017930D01*
X043910Y016930D02*
X043353Y016930D01*
X043353Y015930D02*
X043910Y015930D01*
X043910Y014930D02*
X043353Y014930D01*
X043353Y013930D02*
X043910Y013930D01*
X043910Y012930D02*
X043353Y012930D01*
X043353Y011930D02*
X043910Y011930D01*
X043910Y010930D02*
X043353Y010930D01*
X043353Y009050D02*
X043910Y009050D01*
X043910Y008050D02*
X043353Y008050D01*
X043353Y007050D02*
X043910Y007050D01*
X043910Y006050D02*
X043353Y006050D01*
X043353Y005050D02*
X043910Y005050D01*
D17*
X033348Y010186D03*
X033151Y010186D03*
X032954Y010186D03*
X032758Y010186D03*
X032561Y010186D03*
X032364Y010186D03*
X032167Y010186D03*
X031970Y010186D03*
X031773Y010186D03*
X031576Y010186D03*
X031380Y010186D03*
X031183Y010186D03*
X030986Y010186D03*
X030789Y010186D03*
X030592Y010186D03*
X030395Y010186D03*
X030395Y014714D03*
X030592Y014714D03*
X030789Y014714D03*
X030986Y014714D03*
X031183Y014714D03*
X031380Y014714D03*
X031576Y014714D03*
X031773Y014714D03*
X031970Y014714D03*
X032167Y014714D03*
X032364Y014714D03*
X032561Y014714D03*
X032758Y014714D03*
X032954Y014714D03*
X033151Y014714D03*
X033348Y014714D03*
D18*
X034136Y013926D03*
X034136Y013730D03*
X034136Y013533D03*
X034136Y013336D03*
X034136Y013139D03*
X034136Y012942D03*
X034136Y012745D03*
X034136Y012548D03*
X034136Y012352D03*
X034136Y012155D03*
X034136Y011958D03*
X034136Y011761D03*
X034136Y011564D03*
X034136Y011367D03*
X034136Y011170D03*
X034136Y010974D03*
X029608Y010974D03*
X029608Y011170D03*
X029608Y011367D03*
X029608Y011564D03*
X029608Y011761D03*
X029608Y011958D03*
X029608Y012155D03*
X029608Y012352D03*
X029608Y012548D03*
X029608Y012745D03*
X029608Y012942D03*
X029608Y013139D03*
X029608Y013336D03*
X029608Y013533D03*
X029608Y013730D03*
X029608Y013926D03*
D19*
X029232Y014635D03*
X029232Y015305D03*
X034332Y015605D03*
X034332Y014935D03*
X035112Y013805D03*
X035112Y013135D03*
X034212Y009725D03*
X034212Y009055D03*
X029412Y009415D03*
X029412Y010085D03*
X030012Y003485D03*
X030012Y002815D03*
X034452Y002815D03*
X034452Y003485D03*
X039252Y003425D03*
X039252Y002755D03*
X043812Y002755D03*
X043812Y003425D03*
X033132Y025195D03*
X032292Y025195D03*
X032292Y025865D03*
X033132Y025865D03*
X034752Y026165D03*
X034752Y025495D03*
X035592Y025495D03*
X035592Y026165D03*
X035592Y028795D03*
X035592Y029465D03*
X034752Y029465D03*
X034752Y028795D03*
X037332Y029695D03*
X037332Y030365D03*
X038172Y030365D03*
X038172Y029695D03*
X038112Y032875D03*
X038112Y033545D03*
X031452Y026105D03*
X031452Y025435D03*
D20*
X036697Y027510D03*
X037366Y027510D03*
X038077Y027510D03*
X038746Y027510D03*
X038746Y031290D03*
X038077Y031290D03*
X037306Y031290D03*
X036637Y031290D03*
X036637Y032070D03*
X037306Y032070D03*
X038137Y034410D03*
X038806Y034410D03*
X038806Y036450D03*
X038137Y036450D03*
X033166Y019290D03*
X032497Y019290D03*
X031546Y019290D03*
X030877Y019290D03*
X030877Y017550D03*
X031546Y017550D03*
X031546Y016650D03*
X030877Y016650D03*
X020686Y000930D03*
X020017Y000930D03*
X008386Y004110D03*
X007717Y004110D03*
D21*
X035952Y012739D03*
X035952Y013841D03*
D22*
X035937Y001881D03*
X035937Y000699D03*
X034467Y000699D03*
X034467Y001881D03*
X031317Y001881D03*
X031317Y000699D03*
X029907Y000759D03*
X029907Y001941D03*
X026757Y001941D03*
X026757Y000759D03*
X024987Y000819D03*
X024987Y002001D03*
X021837Y002001D03*
X021837Y000819D03*
X039087Y000699D03*
X040557Y000699D03*
X040557Y001881D03*
X039087Y001881D03*
X043707Y001881D03*
X043707Y000699D03*
D23*
X042972Y002716D03*
X042972Y003464D03*
X042132Y003464D03*
X042132Y002716D03*
X038352Y002716D03*
X037452Y002716D03*
X037452Y003464D03*
X038352Y003464D03*
X033612Y003524D03*
X032772Y003524D03*
X032772Y002776D03*
X033612Y002776D03*
X029172Y002776D03*
X029172Y003524D03*
X028332Y003524D03*
X028332Y002776D03*
X015912Y011716D03*
X015072Y011716D03*
X015072Y012464D03*
X015912Y012464D03*
X018012Y016696D03*
X018012Y017444D03*
X018972Y017444D03*
X018972Y016696D03*
X019932Y016696D03*
X019932Y017444D03*
X020952Y017444D03*
X020952Y016696D03*
X021972Y018316D03*
X021972Y019064D03*
X022692Y019916D03*
X022692Y020704D03*
X023652Y020704D03*
X023652Y019916D03*
X024372Y019064D03*
X024372Y018316D03*
X026112Y018376D03*
X026112Y019124D03*
X023532Y024076D03*
X023532Y024824D03*
X021912Y024824D03*
X021912Y024076D03*
X021072Y024076D03*
X021072Y024824D03*
X020232Y024824D03*
X020232Y024076D03*
X019392Y024076D03*
X019392Y024824D03*
X017832Y022864D03*
X017832Y022076D03*
X014172Y018944D03*
X014172Y018196D03*
X005652Y017744D03*
X005652Y016996D03*
X010212Y010244D03*
X010212Y009496D03*
X010092Y008204D03*
X010092Y007456D03*
X010932Y006764D03*
X010932Y006016D03*
X008412Y006316D03*
X008412Y007064D03*
X015432Y031636D03*
X015432Y032384D03*
X009972Y033676D03*
X009972Y034424D03*
X030612Y038176D03*
X030612Y038924D03*
D24*
X030872Y023130D03*
X034672Y023130D03*
G36*
X036059Y018999D02*
X034534Y020524D01*
X035113Y021103D01*
X036638Y019578D01*
X036059Y018999D01*
G37*
G36*
X038746Y016312D02*
X037221Y017837D01*
X037800Y018416D01*
X039325Y016891D01*
X038746Y016312D01*
G37*
D25*
X012392Y004542D03*
X012392Y004286D03*
X012392Y004030D03*
X012392Y003774D03*
X012392Y003518D03*
X012392Y003262D03*
X012392Y003006D03*
X012392Y002750D03*
X012392Y002494D03*
X012392Y002238D03*
X009472Y002238D03*
X009472Y002494D03*
X009472Y002750D03*
X009472Y003006D03*
X009472Y003262D03*
X009472Y003518D03*
X009472Y003774D03*
X009472Y004030D03*
X009472Y004286D03*
X009472Y004542D03*
D26*
X012919Y001590D03*
X013392Y001590D03*
X013864Y001590D03*
D27*
X005892Y001460D03*
X005892Y004360D03*
X005892Y006800D03*
X005892Y009700D03*
X005832Y011120D03*
X005832Y014020D03*
D28*
X005832Y012570D03*
X005892Y008250D03*
X005892Y002910D03*
D29*
X006965Y002910D03*
X006965Y003166D03*
X006965Y003422D03*
X006965Y002654D03*
X006965Y002398D03*
X006965Y007738D03*
X006965Y007994D03*
X006965Y008250D03*
X006965Y008506D03*
X006965Y008762D03*
X006905Y012058D03*
X006905Y012314D03*
X006905Y012570D03*
X006905Y012826D03*
X006905Y013082D03*
D30*
X006698Y013318D03*
X006698Y011822D03*
X006758Y008998D03*
X006758Y007502D03*
X006758Y003658D03*
X006758Y002162D03*
D31*
X012835Y009750D03*
X015748Y009750D03*
X009268Y021330D03*
X006355Y021330D03*
D32*
X006252Y026010D03*
X012792Y031770D03*
X014712Y037230D03*
X014892Y038370D03*
X005772Y035130D03*
X027852Y014190D03*
X026532Y014010D03*
X034212Y017130D03*
X018372Y013650D03*
X017592Y012450D03*
X017712Y011310D03*
X017652Y010110D03*
X017652Y008970D03*
X017472Y007710D03*
X012492Y011910D03*
X012372Y013110D03*
X012312Y013950D03*
X026892Y003090D03*
X031332Y003210D03*
X036252Y003030D03*
X040812Y003030D03*
X018312Y001590D03*
D33*
X021972Y002842D03*
X022752Y002842D03*
X023472Y002842D03*
X024252Y002842D03*
X025032Y002842D03*
X025812Y002842D03*
X025812Y004298D03*
X025032Y004298D03*
X024252Y004298D03*
X023472Y004298D03*
X022752Y004298D03*
X021972Y004298D03*
D34*
X011845Y009870D03*
X010979Y009496D03*
X010979Y010244D03*
X010105Y006764D03*
X010105Y006016D03*
X009239Y006390D03*
D35*
X008542Y008050D03*
X008542Y008250D03*
X008542Y008450D03*
D36*
X009122Y008450D03*
X009122Y008050D03*
D37*
X008986Y009150D03*
X008317Y009150D03*
X007486Y005850D03*
X006817Y005850D03*
X016152Y007915D03*
X016152Y008585D03*
X030672Y025435D03*
X030672Y026105D03*
X042432Y030115D03*
X042432Y030785D03*
X018012Y033595D03*
X018012Y034265D03*
D38*
X018637Y034170D03*
X019306Y034170D03*
X028837Y008550D03*
X029506Y008550D03*
X007572Y007145D03*
X007572Y006475D03*
D39*
X032646Y027116D03*
X032646Y027313D03*
X032646Y027510D03*
X032646Y027707D03*
X032646Y027904D03*
X034457Y027904D03*
X034457Y027707D03*
X034457Y027510D03*
X034457Y027313D03*
X034457Y027116D03*
D40*
X033945Y026604D03*
X033749Y026604D03*
X033552Y026604D03*
X033355Y026604D03*
X033158Y026604D03*
X033158Y028416D03*
X033355Y028416D03*
X033552Y028416D03*
X033749Y028416D03*
X033945Y028416D03*
D41*
X033552Y027510D03*
D42*
X036677Y026790D03*
X037386Y026790D03*
X037997Y026790D03*
X038706Y026790D03*
X038826Y032070D03*
X038117Y032070D03*
D43*
X037332Y032856D03*
X037332Y033564D03*
X038142Y035106D03*
X038142Y035814D03*
X038112Y028944D03*
X038112Y028236D03*
X037392Y028236D03*
X037392Y028944D03*
D44*
X041261Y028121D03*
X041261Y030128D03*
X041261Y032136D03*
X041261Y035128D03*
D45*
X041272Y036830D03*
X041272Y026430D03*
D46*
X030642Y034652D03*
X030642Y036448D03*
X015282Y030028D03*
X015282Y028232D03*
D47*
X012408Y029130D03*
X027768Y035550D03*
D48*
X020663Y022791D03*
X020407Y022791D03*
X020152Y022791D03*
X019896Y022791D03*
X019640Y022791D03*
X019384Y022791D03*
X019128Y022791D03*
X018872Y022791D03*
X018616Y022791D03*
X018360Y022791D03*
X018360Y020469D03*
X018616Y020469D03*
X018872Y020469D03*
X019128Y020469D03*
X019384Y020469D03*
X019640Y020469D03*
X019896Y020469D03*
X020152Y020469D03*
X020407Y020469D03*
X020663Y020469D03*
D49*
X022069Y017070D03*
X024274Y017070D03*
D50*
X025117Y021050D03*
X025186Y024430D03*
D51*
X025402Y025601D03*
X025902Y025601D03*
X024902Y025601D03*
X024402Y025601D03*
X024402Y019879D03*
X024902Y019879D03*
X025402Y019879D03*
X025902Y019879D03*
D52*
X025902Y022064D03*
X025402Y022064D03*
X024902Y022064D03*
X024402Y022064D03*
X024402Y023416D03*
X024902Y023416D03*
X025402Y023416D03*
X025902Y023416D03*
D53*
X022752Y024917D03*
X022752Y025783D03*
X022499Y026430D03*
X023365Y026430D03*
D54*
X042092Y024110D03*
X042092Y020110D03*
D55*
X040328Y022110D02*
X039856Y022110D01*
X039856Y023110D02*
X040328Y023110D01*
D56*
X009972Y019470D02*
X009332Y019470D01*
X009332Y018470D02*
X009972Y018470D01*
X009972Y017470D02*
X009332Y017470D01*
X009332Y016470D02*
X009972Y016470D01*
X007972Y016970D02*
X007332Y016970D01*
X007332Y017970D02*
X007972Y017970D01*
X007972Y018970D02*
X007332Y018970D01*
D57*
X011949Y020007D02*
X011949Y020007D01*
X011589Y020367D01*
X011589Y020367D01*
X011949Y020007D01*
X015499Y020367D02*
X015499Y020367D01*
X015139Y020007D01*
X015139Y020007D01*
X015499Y020367D01*
X015499Y023557D02*
X015499Y023557D01*
X015139Y023917D01*
X015139Y023917D01*
X015499Y023557D01*
X011949Y023917D02*
X011949Y023917D01*
X011589Y023557D01*
X011589Y023557D01*
X011949Y023917D01*
D58*
X012713Y026010D03*
X010351Y026010D03*
X008813Y024390D03*
X006451Y024390D03*
X006451Y027690D03*
X008813Y027690D03*
X016351Y027510D03*
X018713Y027510D03*
X018713Y030870D03*
X016351Y030870D03*
X014993Y033930D03*
X012631Y033930D03*
X032011Y034290D03*
X034373Y034290D03*
X034373Y037710D03*
X032011Y037710D03*
X010733Y014070D03*
X008371Y014070D03*
D59*
X014698Y014203D03*
X015446Y014203D03*
X015072Y013337D03*
D60*
X015492Y016628D03*
X015492Y018832D03*
D61*
X030612Y030589D03*
X030612Y032951D03*
X011352Y035269D03*
X011352Y037631D03*
X007992Y037631D03*
X007992Y035269D03*
D62*
X009014Y033840D03*
X010809Y033840D03*
D63*
X009912Y030966D03*
D64*
X039732Y035430D03*
D65*
X010512Y022590D03*
X010512Y021390D03*
D66*
X005544Y000642D03*
X006528Y000642D03*
X008497Y000642D03*
X009481Y000642D03*
X009481Y001626D03*
X008497Y001626D03*
X008292Y003390D03*
X011352Y002250D03*
X010957Y001134D03*
X011942Y001134D03*
X014894Y000642D03*
X014894Y001674D03*
X015879Y001674D03*
X016863Y002119D03*
X017847Y002119D03*
X019323Y003103D03*
X020308Y003103D03*
X021784Y005071D03*
X022768Y005071D03*
X023753Y005563D03*
X024737Y005563D03*
X025721Y005563D03*
X026705Y005563D03*
X027690Y005563D03*
X028674Y005563D03*
X028674Y006548D03*
X027690Y006548D03*
X026705Y006548D03*
X025721Y006548D03*
X024737Y007532D03*
X024245Y007040D03*
X023753Y007040D03*
X023260Y007040D03*
X022276Y007040D03*
X021612Y006500D03*
X021612Y006040D03*
X020608Y005360D03*
X015879Y005071D03*
X014894Y005071D03*
X013910Y005071D03*
X012926Y005071D03*
X011942Y006548D03*
X010932Y007470D03*
X010706Y007844D03*
X011148Y008543D03*
X010934Y008804D03*
X009554Y008504D03*
X008426Y007724D03*
X007812Y008790D03*
X008005Y010977D03*
X008989Y010977D03*
X009973Y010977D03*
X011892Y010710D03*
X013932Y010590D03*
X014292Y011790D03*
X015879Y013437D03*
X016371Y013930D03*
X016692Y013590D03*
X016863Y014422D03*
X016371Y014422D03*
X016371Y014914D03*
X016371Y015406D03*
X013812Y015570D03*
X012926Y013930D03*
X017288Y017678D03*
X018352Y019861D03*
X018672Y021210D03*
X019552Y021181D03*
X019152Y022170D03*
X021052Y020641D03*
X021352Y019981D03*
X021292Y019201D03*
X023712Y021690D03*
X026532Y021690D03*
X027690Y022788D03*
X028182Y021804D03*
X027690Y020819D03*
X028812Y019470D03*
X028740Y019013D03*
X029052Y018990D03*
X029412Y018510D03*
X029790Y018203D03*
X030132Y017910D03*
X029712Y017670D03*
X029712Y017250D03*
X029052Y017550D03*
X028732Y018001D03*
X027952Y017881D03*
X027972Y016590D03*
X027372Y016590D03*
X025572Y014670D03*
X025721Y013930D03*
X025229Y013930D03*
X024245Y013437D03*
X023260Y015406D03*
X022768Y015406D03*
X028152Y011430D03*
X028692Y011430D03*
X027690Y010485D03*
X028158Y010044D03*
X028506Y009696D03*
X028212Y008550D03*
X027690Y008024D03*
X027197Y008024D03*
X026213Y009008D03*
X025721Y009008D03*
X025721Y009500D03*
X026213Y010977D03*
X029412Y007950D03*
X032052Y008550D03*
X032048Y009038D03*
X032052Y009450D03*
X033728Y010118D03*
X034812Y010110D03*
X036012Y010830D03*
X036452Y010113D03*
X036012Y009270D03*
X037532Y008516D03*
X038024Y009008D03*
X039008Y009008D03*
X039993Y009008D03*
X040977Y009008D03*
X040977Y008024D03*
X039993Y008024D03*
X039656Y006560D03*
X039501Y005563D03*
X038516Y005563D03*
X037532Y005563D03*
X036548Y005563D03*
X035564Y005563D03*
X035071Y006056D03*
X035412Y006390D03*
X034579Y005563D03*
X033612Y007110D03*
X033972Y007350D03*
X033852Y007950D03*
X034328Y008300D03*
X036548Y007040D03*
X037532Y007040D03*
X037332Y007950D03*
X040485Y010485D03*
X040485Y011469D03*
X041469Y010485D03*
X042453Y011961D03*
X041961Y012453D03*
X042488Y013478D03*
X042728Y014318D03*
X042968Y015278D03*
X041469Y015898D03*
X040485Y015898D03*
X040485Y014914D03*
X039501Y014914D03*
X039501Y015898D03*
X038516Y015898D03*
X038024Y016390D03*
X037040Y016882D03*
X036548Y017374D03*
X035071Y017374D03*
X034579Y017867D03*
X033595Y017867D03*
X032412Y017790D03*
X032292Y017190D03*
X032172Y016590D03*
X033612Y016110D03*
X031812Y015630D03*
X032172Y014070D03*
X032932Y013981D03*
X034087Y014422D03*
X034579Y014422D03*
X035071Y014422D03*
X036056Y014914D03*
X036548Y014914D03*
X036548Y015898D03*
X037532Y014914D03*
X037532Y013930D03*
X038516Y013930D03*
X039612Y013830D03*
X038024Y012453D03*
X037532Y012453D03*
X036548Y011961D03*
X036548Y012945D03*
X036548Y013930D03*
X040485Y016882D03*
X041469Y016882D03*
X040485Y017867D03*
X039501Y017867D03*
X038516Y018851D03*
X038024Y019343D03*
X037532Y019835D03*
X037040Y020327D03*
X036548Y020819D03*
X036056Y021311D03*
X035564Y021311D03*
X035564Y022296D03*
X036056Y022296D03*
X035071Y022296D03*
X034087Y022296D03*
X033331Y022860D03*
X033103Y022296D03*
X032119Y022296D03*
X031134Y022296D03*
X030150Y022296D03*
X030642Y021311D03*
X031627Y021311D03*
X032611Y021311D03*
X033595Y021311D03*
X034579Y021311D03*
X034579Y019835D03*
X034087Y018851D03*
X033103Y019835D03*
X032532Y018630D03*
X030150Y019343D03*
X030150Y020327D03*
X030150Y023772D03*
X030150Y024264D03*
X030642Y024264D03*
X031134Y024264D03*
X031627Y024264D03*
X030132Y025350D03*
X028182Y025741D03*
X027690Y026725D03*
X027690Y027709D03*
X026705Y027709D03*
X025932Y027870D03*
X025812Y028470D03*
X025448Y029318D03*
X026213Y029678D03*
X026213Y030662D03*
X026213Y031646D03*
X024893Y030986D03*
X023753Y031646D03*
X022768Y031646D03*
X021784Y031646D03*
X021784Y032630D03*
X022768Y032630D03*
X023753Y032630D03*
X023753Y033615D03*
X022768Y033615D03*
X021784Y033615D03*
X021784Y034599D03*
X021784Y035583D03*
X021252Y035670D03*
X022768Y035583D03*
X023753Y035583D03*
X023753Y034599D03*
X025812Y034950D03*
X026213Y033615D03*
X026213Y032630D03*
X027690Y032630D03*
X028758Y032570D03*
X029658Y030662D03*
X028674Y029678D03*
X028182Y030170D03*
X027570Y030782D03*
X029166Y029185D03*
X030788Y028538D03*
X032528Y028298D03*
X033552Y027510D03*
X032228Y026858D03*
X032292Y026430D03*
X032708Y026318D03*
X033492Y024690D03*
X034332Y024690D03*
X036056Y023772D03*
X036548Y024756D03*
X037532Y024756D03*
X038516Y024756D03*
X038516Y023772D03*
X039501Y023772D03*
X040485Y023772D03*
X040485Y024756D03*
X041469Y024756D03*
X042453Y025741D03*
X043438Y024756D03*
X043438Y023772D03*
X042453Y022788D03*
X041469Y022788D03*
X043438Y022296D03*
X043438Y021804D03*
X043438Y020819D03*
X043438Y019835D03*
X042453Y019343D03*
X041469Y019343D03*
X040485Y019835D03*
X040485Y020819D03*
X041469Y020819D03*
X042453Y020819D03*
X039501Y020819D03*
X039501Y019835D03*
X038516Y020819D03*
X038516Y021804D03*
X038516Y022296D03*
X037532Y021804D03*
X039501Y024756D03*
X039501Y025741D03*
X039501Y026725D03*
X038516Y025741D03*
X036128Y027518D03*
X035292Y027870D03*
X035292Y026850D03*
X039008Y029185D03*
X039501Y028693D03*
X039993Y029185D03*
X040977Y029185D03*
X039993Y030170D03*
X042453Y029678D03*
X042945Y030662D03*
X042945Y031646D03*
X043438Y032138D03*
X043438Y033122D03*
X043930Y034107D03*
X043930Y035091D03*
X043930Y036075D03*
X043930Y037059D03*
X043930Y038044D03*
X043930Y039028D03*
X042945Y039028D03*
X039788Y037035D03*
X040317Y036267D03*
X040977Y034107D03*
X041469Y034107D03*
X041469Y033122D03*
X040977Y033122D03*
X039501Y032630D03*
X039008Y032630D03*
X039008Y033615D03*
X035564Y034599D03*
X035564Y035583D03*
X034579Y035583D03*
X033595Y035583D03*
X032611Y035583D03*
X033103Y034599D03*
X033595Y033615D03*
X032611Y033615D03*
X031627Y033615D03*
X031627Y032570D03*
X032611Y032570D03*
X033595Y032570D03*
X034579Y033615D03*
X032611Y031646D03*
X031627Y031646D03*
X031627Y030662D03*
X032892Y030270D03*
X033548Y030278D03*
X034579Y030662D03*
X035564Y030662D03*
X036548Y029678D03*
X042453Y028693D03*
X043438Y028693D03*
X043438Y027217D03*
X035564Y036567D03*
X035564Y037552D03*
X034579Y036567D03*
X033595Y036567D03*
X032119Y037059D03*
X031627Y036567D03*
X030642Y037552D03*
X029658Y037552D03*
X030132Y036448D03*
X029658Y036075D03*
X027690Y037552D03*
X026705Y037552D03*
X026705Y038536D03*
X027690Y038536D03*
X028674Y038536D03*
X031627Y039028D03*
X033103Y038536D03*
X034579Y039028D03*
X035564Y039028D03*
X036056Y038536D03*
X037040Y038536D03*
X037532Y039028D03*
X023753Y030170D03*
X022932Y030270D03*
X020308Y030170D03*
X019932Y030510D03*
X019932Y031950D03*
X017355Y029678D03*
X017847Y028693D03*
X017355Y028201D03*
X016863Y028693D03*
X018339Y028201D03*
X018339Y026725D03*
X017847Y026233D03*
X017355Y026725D03*
X016863Y026233D03*
X016371Y026725D03*
X016371Y025741D03*
X017355Y025741D03*
X020308Y025741D03*
X021292Y025741D03*
X022092Y025950D03*
X020800Y027709D03*
X023753Y027709D03*
X024737Y027709D03*
X027690Y024756D03*
X028182Y023772D03*
X016863Y032138D03*
X016371Y033122D03*
X014894Y034599D03*
X013910Y034599D03*
X013910Y035583D03*
X012926Y035583D03*
X012926Y034599D03*
X012926Y036567D03*
X013418Y036567D03*
X012926Y037552D03*
X012926Y038536D03*
X010957Y036567D03*
X009973Y036567D03*
X009973Y037552D03*
X008989Y037552D03*
X008989Y038536D03*
X009973Y038536D03*
X007020Y037552D03*
X007020Y036567D03*
X005544Y036567D03*
X005544Y037552D03*
X005544Y038536D03*
X006528Y035091D03*
X005544Y034599D03*
X005544Y033615D03*
X006612Y033390D03*
X008005Y033615D03*
X010465Y035583D03*
X005544Y031646D03*
X005544Y030662D03*
X006132Y029070D03*
X008497Y030662D03*
X008005Y031154D03*
X009973Y029185D03*
X008005Y026725D03*
X008005Y025741D03*
X009481Y025248D03*
X008005Y023772D03*
X007020Y023772D03*
X009481Y022788D03*
X011942Y022296D03*
X012926Y020819D03*
X014402Y020819D03*
X010957Y019835D03*
X010957Y019343D03*
X011666Y018256D03*
X009481Y020327D03*
X005652Y015870D03*
X006528Y014914D03*
X012434Y008516D03*
X012434Y008024D03*
X012926Y008024D03*
X012926Y007532D03*
X013418Y007040D03*
X024257Y001987D03*
X025032Y001410D03*
X027197Y003595D03*
X027197Y004087D03*
X026705Y004087D03*
X030012Y001350D03*
X031932Y003810D03*
X031632Y004650D03*
X030728Y005438D03*
X031632Y006330D03*
X031932Y006450D03*
X032052Y006750D03*
X035264Y002983D03*
X036732Y004110D03*
X038352Y004770D03*
X040485Y004579D03*
X040785Y005563D03*
X041469Y005071D03*
X041469Y004087D03*
X040977Y003595D03*
X041049Y002431D03*
X041469Y001626D03*
X041961Y001626D03*
X041892Y001950D03*
X042453Y002119D03*
X042453Y001626D03*
X041961Y001134D03*
X041469Y001134D03*
X040977Y001134D03*
X040485Y001134D03*
X043438Y001134D03*
X043930Y001134D03*
X041961Y009008D03*
X043930Y009993D03*
X042848Y016838D03*
X031212Y013950D03*
X030852Y011300D03*
X030852Y010840D03*
X018072Y034950D03*
X018339Y039028D03*
X018831Y039028D03*
X019323Y039028D03*
X019816Y039028D03*
M02*
