G75*
%MOIN*%
%OFA0B0*%
%FSLAX24Y24*%
%IPPOS*%
%LPD*%
%AMOC8*
5,1,8,0,0,1.08239X$1,22.5*
%
%ADD10R,0.0649X0.0649*%
%ADD11C,0.0649*%
%ADD12C,0.0617*%
%ADD13C,0.0394*%
%ADD14OC8,0.1059*%
%ADD15C,0.1083*%
%ADD16C,0.0531*%
%ADD17C,0.0699*%
%ADD18OC8,0.0297*%
D10*
X018332Y037250D03*
D11*
X019332Y037250D03*
X018832Y038250D03*
D12*
X016790Y038690D02*
X016233Y038690D01*
X016233Y037690D02*
X016790Y037690D01*
X016790Y036690D02*
X016233Y036690D01*
X016233Y035690D02*
X016790Y035690D01*
X016790Y034690D02*
X016233Y034690D01*
X007652Y030549D02*
X007652Y029991D01*
X006652Y029991D02*
X006652Y030549D01*
X017932Y015969D02*
X017932Y015411D01*
X018932Y015411D02*
X018932Y015969D01*
X019932Y015969D02*
X019932Y015411D01*
X020932Y015411D02*
X020932Y015969D01*
X021932Y015969D02*
X021932Y015411D01*
X014792Y008229D02*
X014792Y007671D01*
X013792Y007671D02*
X013792Y008229D01*
X043353Y008050D02*
X043910Y008050D01*
X043910Y009050D02*
X043353Y009050D01*
X043353Y010930D02*
X043910Y010930D01*
X043910Y011930D02*
X043353Y011930D01*
X043353Y012930D02*
X043910Y012930D01*
X043910Y013930D02*
X043353Y013930D01*
X043353Y014930D02*
X043910Y014930D01*
X043910Y015930D02*
X043353Y015930D01*
X043353Y016930D02*
X043910Y016930D01*
X043910Y017930D02*
X043353Y017930D01*
X043353Y007050D02*
X043910Y007050D01*
X043910Y006050D02*
X043353Y006050D01*
X043353Y005050D02*
X043910Y005050D01*
D13*
X006758Y003658D03*
X006758Y002162D03*
X006758Y007502D03*
X006758Y008998D03*
X006698Y011822D03*
X006698Y013318D03*
D14*
X041261Y028121D03*
X041261Y030128D03*
X041261Y032136D03*
X041261Y035128D03*
D15*
X042092Y024110D03*
X042092Y020110D03*
D16*
X040328Y022110D02*
X039856Y022110D01*
X039856Y023110D02*
X040328Y023110D01*
D17*
X009972Y019470D02*
X009332Y019470D01*
X009332Y018470D02*
X009972Y018470D01*
X009972Y017470D02*
X009332Y017470D01*
X009332Y016470D02*
X009972Y016470D01*
X007972Y016970D02*
X007332Y016970D01*
X007332Y017970D02*
X007972Y017970D01*
X007972Y018970D02*
X007332Y018970D01*
D18*
X005544Y000642D03*
X006528Y000642D03*
X008497Y000642D03*
X009481Y000642D03*
X009481Y001626D03*
X008497Y001626D03*
X008292Y003390D03*
X011352Y002250D03*
X010957Y001134D03*
X011942Y001134D03*
X014894Y000642D03*
X014894Y001674D03*
X015879Y001674D03*
X016863Y002119D03*
X017847Y002119D03*
X019323Y003103D03*
X020308Y003103D03*
X021784Y005071D03*
X022768Y005071D03*
X023753Y005563D03*
X024737Y005563D03*
X025721Y005563D03*
X026705Y005563D03*
X027690Y005563D03*
X028674Y005563D03*
X028674Y006548D03*
X027690Y006548D03*
X026705Y006548D03*
X025721Y006548D03*
X024737Y007532D03*
X024245Y007040D03*
X023753Y007040D03*
X023260Y007040D03*
X022276Y007040D03*
X021612Y006500D03*
X021612Y006040D03*
X020608Y005360D03*
X015879Y005071D03*
X014894Y005071D03*
X013910Y005071D03*
X012926Y005071D03*
X011942Y006548D03*
X010932Y007470D03*
X010706Y007844D03*
X011148Y008543D03*
X010934Y008804D03*
X009554Y008504D03*
X008426Y007724D03*
X007812Y008790D03*
X008005Y010977D03*
X008989Y010977D03*
X009973Y010977D03*
X011892Y010710D03*
X013932Y010590D03*
X014292Y011790D03*
X015879Y013437D03*
X016371Y013930D03*
X016692Y013590D03*
X016863Y014422D03*
X016371Y014422D03*
X016371Y014914D03*
X016371Y015406D03*
X013812Y015570D03*
X012926Y013930D03*
X017288Y017678D03*
X018352Y019861D03*
X018672Y021210D03*
X019552Y021181D03*
X019152Y022170D03*
X021052Y020641D03*
X021352Y019981D03*
X021292Y019201D03*
X023712Y021690D03*
X026532Y021690D03*
X027690Y022788D03*
X028182Y021804D03*
X027690Y020819D03*
X028812Y019470D03*
X028740Y019013D03*
X029052Y018990D03*
X029412Y018510D03*
X029790Y018203D03*
X030132Y017910D03*
X029712Y017670D03*
X029712Y017250D03*
X029052Y017550D03*
X028732Y018001D03*
X027952Y017881D03*
X027972Y016590D03*
X027372Y016590D03*
X025572Y014670D03*
X025721Y013930D03*
X025229Y013930D03*
X024245Y013437D03*
X023260Y015406D03*
X022768Y015406D03*
X028152Y011430D03*
X028692Y011430D03*
X027690Y010485D03*
X028158Y010044D03*
X028506Y009696D03*
X028212Y008550D03*
X027690Y008024D03*
X027197Y008024D03*
X026213Y009008D03*
X025721Y009008D03*
X025721Y009500D03*
X026213Y010977D03*
X029412Y007950D03*
X032052Y008550D03*
X032048Y009038D03*
X032052Y009450D03*
X033728Y010118D03*
X034812Y010110D03*
X036012Y010830D03*
X036452Y010113D03*
X036012Y009270D03*
X037532Y008516D03*
X038024Y009008D03*
X039008Y009008D03*
X039993Y009008D03*
X040977Y009008D03*
X040977Y008024D03*
X039993Y008024D03*
X039656Y006560D03*
X039501Y005563D03*
X038516Y005563D03*
X037532Y005563D03*
X036548Y005563D03*
X035564Y005563D03*
X035071Y006056D03*
X035412Y006390D03*
X034579Y005563D03*
X033612Y007110D03*
X033972Y007350D03*
X033852Y007950D03*
X034328Y008300D03*
X036548Y007040D03*
X037532Y007040D03*
X037332Y007950D03*
X040485Y010485D03*
X040485Y011469D03*
X041469Y010485D03*
X042453Y011961D03*
X041961Y012453D03*
X042488Y013478D03*
X042728Y014318D03*
X042968Y015278D03*
X041469Y015898D03*
X040485Y015898D03*
X040485Y014914D03*
X039501Y014914D03*
X039501Y015898D03*
X038516Y015898D03*
X038024Y016390D03*
X037040Y016882D03*
X036548Y017374D03*
X035071Y017374D03*
X034579Y017867D03*
X033595Y017867D03*
X032412Y017790D03*
X032292Y017190D03*
X032172Y016590D03*
X033612Y016110D03*
X031812Y015630D03*
X032172Y014070D03*
X032932Y013981D03*
X034087Y014422D03*
X034579Y014422D03*
X035071Y014422D03*
X036056Y014914D03*
X036548Y014914D03*
X036548Y015898D03*
X037532Y014914D03*
X037532Y013930D03*
X038516Y013930D03*
X039612Y013830D03*
X038024Y012453D03*
X037532Y012453D03*
X036548Y011961D03*
X036548Y012945D03*
X036548Y013930D03*
X040485Y016882D03*
X041469Y016882D03*
X040485Y017867D03*
X039501Y017867D03*
X038516Y018851D03*
X038024Y019343D03*
X037532Y019835D03*
X037040Y020327D03*
X036548Y020819D03*
X036056Y021311D03*
X035564Y021311D03*
X035564Y022296D03*
X036056Y022296D03*
X035071Y022296D03*
X034087Y022296D03*
X033331Y022860D03*
X033103Y022296D03*
X032119Y022296D03*
X031134Y022296D03*
X030150Y022296D03*
X030642Y021311D03*
X031627Y021311D03*
X032611Y021311D03*
X033595Y021311D03*
X034579Y021311D03*
X034579Y019835D03*
X034087Y018851D03*
X033103Y019835D03*
X032532Y018630D03*
X030150Y019343D03*
X030150Y020327D03*
X030150Y023772D03*
X030150Y024264D03*
X030642Y024264D03*
X031134Y024264D03*
X031627Y024264D03*
X030132Y025350D03*
X028182Y025741D03*
X027690Y026725D03*
X027690Y027709D03*
X026705Y027709D03*
X025932Y027870D03*
X025812Y028470D03*
X025448Y029318D03*
X026213Y029678D03*
X026213Y030662D03*
X026213Y031646D03*
X024893Y030986D03*
X023753Y031646D03*
X022768Y031646D03*
X021784Y031646D03*
X021784Y032630D03*
X022768Y032630D03*
X023753Y032630D03*
X023753Y033615D03*
X022768Y033615D03*
X021784Y033615D03*
X021784Y034599D03*
X021784Y035583D03*
X021252Y035670D03*
X022768Y035583D03*
X023753Y035583D03*
X023753Y034599D03*
X025812Y034950D03*
X026213Y033615D03*
X026213Y032630D03*
X027690Y032630D03*
X028758Y032570D03*
X029658Y030662D03*
X028674Y029678D03*
X028182Y030170D03*
X027570Y030782D03*
X029166Y029185D03*
X030788Y028538D03*
X032528Y028298D03*
X033552Y027510D03*
X032228Y026858D03*
X032292Y026430D03*
X032708Y026318D03*
X033492Y024690D03*
X034332Y024690D03*
X036056Y023772D03*
X036548Y024756D03*
X037532Y024756D03*
X038516Y024756D03*
X038516Y023772D03*
X039501Y023772D03*
X040485Y023772D03*
X040485Y024756D03*
X041469Y024756D03*
X042453Y025741D03*
X043438Y024756D03*
X043438Y023772D03*
X042453Y022788D03*
X041469Y022788D03*
X043438Y022296D03*
X043438Y021804D03*
X043438Y020819D03*
X043438Y019835D03*
X042453Y019343D03*
X041469Y019343D03*
X040485Y019835D03*
X040485Y020819D03*
X041469Y020819D03*
X042453Y020819D03*
X039501Y020819D03*
X039501Y019835D03*
X038516Y020819D03*
X038516Y021804D03*
X038516Y022296D03*
X037532Y021804D03*
X039501Y024756D03*
X039501Y025741D03*
X039501Y026725D03*
X038516Y025741D03*
X036128Y027518D03*
X035292Y027870D03*
X035292Y026850D03*
X039008Y029185D03*
X039501Y028693D03*
X039993Y029185D03*
X040977Y029185D03*
X039993Y030170D03*
X042453Y029678D03*
X042945Y030662D03*
X042945Y031646D03*
X043438Y032138D03*
X043438Y033122D03*
X043930Y034107D03*
X043930Y035091D03*
X043930Y036075D03*
X043930Y037059D03*
X043930Y038044D03*
X043930Y039028D03*
X042945Y039028D03*
X039788Y037035D03*
X040317Y036267D03*
X040977Y034107D03*
X041469Y034107D03*
X041469Y033122D03*
X040977Y033122D03*
X039501Y032630D03*
X039008Y032630D03*
X039008Y033615D03*
X035564Y034599D03*
X035564Y035583D03*
X034579Y035583D03*
X033595Y035583D03*
X032611Y035583D03*
X033103Y034599D03*
X033595Y033615D03*
X032611Y033615D03*
X031627Y033615D03*
X031627Y032570D03*
X032611Y032570D03*
X033595Y032570D03*
X034579Y033615D03*
X032611Y031646D03*
X031627Y031646D03*
X031627Y030662D03*
X032892Y030270D03*
X033548Y030278D03*
X034579Y030662D03*
X035564Y030662D03*
X036548Y029678D03*
X042453Y028693D03*
X043438Y028693D03*
X043438Y027217D03*
X035564Y036567D03*
X035564Y037552D03*
X034579Y036567D03*
X033595Y036567D03*
X032119Y037059D03*
X031627Y036567D03*
X030642Y037552D03*
X029658Y037552D03*
X030132Y036448D03*
X029658Y036075D03*
X027690Y037552D03*
X026705Y037552D03*
X026705Y038536D03*
X027690Y038536D03*
X028674Y038536D03*
X031627Y039028D03*
X033103Y038536D03*
X034579Y039028D03*
X035564Y039028D03*
X036056Y038536D03*
X037040Y038536D03*
X037532Y039028D03*
X023753Y030170D03*
X022932Y030270D03*
X020308Y030170D03*
X019932Y030510D03*
X019932Y031950D03*
X017355Y029678D03*
X017847Y028693D03*
X017355Y028201D03*
X016863Y028693D03*
X018339Y028201D03*
X018339Y026725D03*
X017847Y026233D03*
X017355Y026725D03*
X016863Y026233D03*
X016371Y026725D03*
X016371Y025741D03*
X017355Y025741D03*
X020308Y025741D03*
X021292Y025741D03*
X022092Y025950D03*
X020800Y027709D03*
X023753Y027709D03*
X024737Y027709D03*
X027690Y024756D03*
X028182Y023772D03*
X016863Y032138D03*
X016371Y033122D03*
X014894Y034599D03*
X013910Y034599D03*
X013910Y035583D03*
X012926Y035583D03*
X012926Y034599D03*
X012926Y036567D03*
X013418Y036567D03*
X012926Y037552D03*
X012926Y038536D03*
X010957Y036567D03*
X009973Y036567D03*
X009973Y037552D03*
X008989Y037552D03*
X008989Y038536D03*
X009973Y038536D03*
X007020Y037552D03*
X007020Y036567D03*
X005544Y036567D03*
X005544Y037552D03*
X005544Y038536D03*
X006528Y035091D03*
X005544Y034599D03*
X005544Y033615D03*
X006612Y033390D03*
X008005Y033615D03*
X010465Y035583D03*
X005544Y031646D03*
X005544Y030662D03*
X006132Y029070D03*
X008497Y030662D03*
X008005Y031154D03*
X009973Y029185D03*
X008005Y026725D03*
X008005Y025741D03*
X009481Y025248D03*
X008005Y023772D03*
X007020Y023772D03*
X009481Y022788D03*
X011942Y022296D03*
X012926Y020819D03*
X014402Y020819D03*
X010957Y019835D03*
X010957Y019343D03*
X011666Y018256D03*
X009481Y020327D03*
X005652Y015870D03*
X006528Y014914D03*
X012434Y008516D03*
X012434Y008024D03*
X012926Y008024D03*
X012926Y007532D03*
X013418Y007040D03*
X024257Y001987D03*
X025032Y001410D03*
X027197Y003595D03*
X027197Y004087D03*
X026705Y004087D03*
X030012Y001350D03*
X031932Y003810D03*
X031632Y004650D03*
X030728Y005438D03*
X031632Y006330D03*
X031932Y006450D03*
X032052Y006750D03*
X035264Y002983D03*
X036732Y004110D03*
X038352Y004770D03*
X040485Y004579D03*
X040785Y005563D03*
X041469Y005071D03*
X041469Y004087D03*
X040977Y003595D03*
X041049Y002431D03*
X041469Y001626D03*
X041961Y001626D03*
X041892Y001950D03*
X042453Y002119D03*
X042453Y001626D03*
X041961Y001134D03*
X041469Y001134D03*
X040977Y001134D03*
X040485Y001134D03*
X043438Y001134D03*
X043930Y001134D03*
X041961Y009008D03*
X043930Y009993D03*
X042848Y016838D03*
X031212Y013950D03*
X030852Y011300D03*
X030852Y010840D03*
X018072Y034950D03*
X018339Y039028D03*
X018831Y039028D03*
X019323Y039028D03*
X019816Y039028D03*
M02*
